<svg xmlns="http://www.w3.org/2000/svg" xmlns:xlink="http://www.w3.org/1999/xlink" zoomAndPan="magnify" viewBox="100 105 310 80" preserveAspectRatio="xMidYMid meet" version="1.0"><defs><g/><clipPath id="9eca4bf4db"><path d="M 129.140625 120.054688 L 157.433594 120.054688 L 157.433594 181.730469 L 129.140625 181.730469 Z M 129.140625 120.054688 " clip-rule="nonzero"/></clipPath><clipPath id="8f6ae0987f"><path d="M 157.433594 169.015625 C 157.433594 176.019531 151.101562 181.695312 143.289062 181.695312 C 135.472656 181.695312 129.140625 176.019531 129.140625 169.015625 L 129.140625 132.84375 C 129.140625 125.839844 135.472656 120.164062 143.289062 120.164062 C 151.101562 120.164062 157.433594 125.839844 157.433594 132.84375 Z M 157.433594 169.015625 " clip-rule="nonzero"/></clipPath><clipPath id="6a9f89f055"><path d="M 0.140625 0.0546875 L 28.433594 0.0546875 L 28.433594 61.730469 L 0.140625 61.730469 Z M 0.140625 0.0546875 " clip-rule="nonzero"/></clipPath><clipPath id="db01c80bf9"><path d="M 28.433594 49.015625 C 28.433594 56.019531 22.101562 61.695312 14.289062 61.695312 C 6.472656 61.695312 0.140625 56.019531 0.140625 49.015625 L 0.140625 12.84375 C 0.140625 5.839844 6.472656 0.164062 14.289062 0.164062 C 22.101562 0.164062 28.433594 5.839844 28.433594 12.84375 Z M 28.433594 49.015625 " clip-rule="nonzero"/></clipPath><clipPath id="691f2f6794"><rect x="0" width="29" y="0" height="62"/></clipPath><clipPath id="653583a4c2"><path d="M 129 120.167969 L 157.433594 120.167969 L 157.433594 181.664062 L 129 181.664062 Z M 129 120.167969 " clip-rule="nonzero"/></clipPath><clipPath id="82aca39e8a"><path d="M 157.433594 169.007812 C 157.433594 176.007812 151.101562 181.683594 143.289062 181.683594 C 135.480469 181.683594 129.144531 176.007812 129.144531 169.007812 L 129.144531 132.84375 C 129.144531 125.84375 135.480469 120.167969 143.289062 120.167969 C 151.101562 120.167969 157.433594 125.84375 157.433594 132.84375 Z M 157.433594 169.007812 " clip-rule="nonzero"/></clipPath></defs><g clip-path="url(#9eca4bf4db)"><g clip-path="url(#8f6ae0987f)"><g transform="matrix(1, 0, 0, 1, 129, 120)"><g clip-path="url(#691f2f6794)"><g clip-path="url(#6a9f89f055)"><g clip-path="url(#db01c80bf9)"><path fill="none" d="M 28.433594 0.164062 L 28.433594 61.730469 L 0.140625 61.730469 L 0.140625 0.164062 Z M 28.433594 0.164062 " fill-opacity="1" fill-rule="nonzero"/></g></g></g></g></g></g><g clip-path="url(#653583a4c2)"><g clip-path="url(#82aca39e8a)"><path stroke-linecap="butt" transform="matrix(0, 0.75, -0.75, 0, 157.435102, 120.169233)" fill="none" stroke-linejoin="miter" d="M 65.118113 0.00201097 C 74.451448 0.00201097 82.019157 8.44472 82.019157 18.861388 C 82.019157 29.272848 74.451448 37.720765 65.118113 37.720765 L 16.899358 37.720765 C 7.566023 37.720765 -0.00168587 29.272848 -0.00168587 18.861388 C -0.00168587 8.44472 7.566023 0.00201097 16.899358 0.00201097 Z M 65.118113 0.00201097 " stroke="#984ae8" stroke-width="14" stroke-opacity="1" stroke-miterlimit="4"/></g></g><path stroke-linecap="butt" transform="matrix(0.75, 0, 0, 0.75, 161.172022, 125.211489)" fill="none" stroke-linejoin="miter" d="M -0.000195722 3.499265 L 23.447722 3.499265 C 30.624806 3.499265 36.447723 9.322182 36.447723 16.499266 L 36.447723 52.082601 C 36.447723 59.259684 30.624806 65.082601 23.447722 65.082601 L -0.000195722 65.082601 " stroke="#984ae8" stroke-width="7" stroke-opacity="1" stroke-miterlimit="4"/><g fill="#1c1678" fill-opacity="1"><g transform="translate(198.004387, 149.965361)"><g><path d="M 9.65625 -22.234375 C 12.03125 -22.234375 14.109375 -21.78125 15.890625 -20.875 C 17.671875 -19.96875 19.046875 -18.664062 20.015625 -16.96875 C 20.984375 -15.28125 21.46875 -13.304688 21.46875 -11.046875 C 21.46875 -8.773438 20.984375 -6.804688 20.015625 -5.140625 C 19.046875 -3.484375 17.671875 -2.210938 15.890625 -1.328125 C 14.109375 -0.441406 12.03125 0 9.65625 0 L 2.40625 0 L 2.40625 -22.234375 Z M 9.65625 -2.96875 C 12.257812 -2.96875 14.253906 -3.671875 15.640625 -5.078125 C 17.035156 -6.492188 17.734375 -8.484375 17.734375 -11.046875 C 17.734375 -13.617188 17.035156 -15.628906 15.640625 -17.078125 C 14.253906 -18.535156 12.257812 -19.265625 9.65625 -19.265625 L 6.046875 -19.265625 L 6.046875 -2.96875 Z M 9.65625 -2.96875 "/></g></g></g><g fill="#1c1678" fill-opacity="1"><g transform="translate(220.686816, 149.965361)"><g><path d="M 6.046875 -15.078125 C 6.578125 -15.972656 7.285156 -16.671875 8.171875 -17.171875 C 9.054688 -17.671875 10.109375 -17.921875 11.328125 -17.921875 L 11.328125 -14.140625 L 10.40625 -14.140625 C 8.96875 -14.140625 7.878906 -13.773438 7.140625 -13.046875 C 6.410156 -12.328125 6.046875 -11.070312 6.046875 -9.28125 L 6.046875 0 L 2.40625 0 L 2.40625 -17.625 L 6.046875 -17.625 Z M 6.046875 -15.078125 "/></g></g></g><g fill="#1c1678" fill-opacity="1"><g transform="translate(232.971797, 149.965361)"><g><path d="M 4.25 -19.96875 C 3.59375 -19.96875 3.039062 -20.191406 2.59375 -20.640625 C 2.144531 -21.085938 1.921875 -21.640625 1.921875 -22.296875 C 1.921875 -22.960938 2.144531 -23.519531 2.59375 -23.96875 C 3.039062 -24.414062 3.59375 -24.640625 4.25 -24.640625 C 4.894531 -24.640625 5.441406 -24.414062 5.890625 -23.96875 C 6.335938 -23.519531 6.5625 -22.960938 6.5625 -22.296875 C 6.5625 -21.640625 6.335938 -21.085938 5.890625 -20.640625 C 5.441406 -20.191406 4.894531 -19.96875 4.25 -19.96875 Z M 6.046875 -17.625 L 6.046875 0 L 2.40625 0 L 2.40625 -17.625 Z M 6.046875 -17.625 "/></g></g></g><g fill="#1c1678" fill-opacity="1"><g transform="translate(241.417719, 149.965361)"><g><path d="M 9.796875 -14.65625 L 6.53125 -14.65625 L 6.53125 0 L 2.84375 0 L 2.84375 -14.65625 L 0.765625 -14.65625 L 0.765625 -17.625 L 2.84375 -17.625 L 2.84375 -18.875 C 2.84375 -20.90625 3.378906 -22.382812 4.453125 -23.3125 C 5.535156 -24.238281 7.226562 -24.703125 9.53125 -24.703125 L 9.53125 -21.65625 C 8.425781 -21.65625 7.648438 -21.445312 7.203125 -21.03125 C 6.753906 -20.625 6.53125 -19.90625 6.53125 -18.875 L 6.53125 -17.625 L 9.796875 -17.625 Z M 9.796875 -14.65625 "/></g></g></g><g fill="#1c1678" fill-opacity="1"><g transform="translate(252.039106, 149.965361)"><g><path d="M 6.65625 -14.65625 L 6.65625 -4.890625 C 6.65625 -4.234375 6.804688 -3.757812 7.109375 -3.46875 C 7.421875 -3.1875 7.953125 -3.046875 8.703125 -3.046875 L 10.9375 -3.046875 L 10.9375 0 L 8.0625 0 C 6.414062 0 5.15625 -0.378906 4.28125 -1.140625 C 3.40625 -1.910156 2.96875 -3.160156 2.96875 -4.890625 L 2.96875 -14.65625 L 0.890625 -14.65625 L 0.890625 -17.625 L 2.96875 -17.625 L 2.96875 -22.015625 L 6.65625 -22.015625 L 6.65625 -17.625 L 10.9375 -17.625 L 10.9375 -14.65625 Z M 6.65625 -14.65625 "/></g></g></g><g fill="#1c1678" fill-opacity="1"><g transform="translate(263.940183, 149.965361)"><g><path d="M 6.046875 -23.6875 L 6.046875 0 L 2.40625 0 L 2.40625 -23.6875 Z M 6.046875 -23.6875 "/></g></g></g><g fill="#1c1678" fill-opacity="1"><g transform="translate(272.386105, 149.965361)"><g><path d="M 10.046875 0.28125 C 8.378906 0.28125 6.875 -0.09375 5.53125 -0.84375 C 4.1875 -1.601562 3.128906 -2.671875 2.359375 -4.046875 C 1.597656 -5.421875 1.21875 -7.015625 1.21875 -8.828125 C 1.21875 -10.617188 1.609375 -12.207031 2.390625 -13.59375 C 3.179688 -14.988281 4.257812 -16.054688 5.625 -16.796875 C 7 -17.546875 8.523438 -17.921875 10.203125 -17.921875 C 11.890625 -17.921875 13.414062 -17.546875 14.78125 -16.796875 C 16.144531 -16.054688 17.222656 -14.988281 18.015625 -13.59375 C 18.804688 -12.207031 19.203125 -10.617188 19.203125 -8.828125 C 19.203125 -7.035156 18.796875 -5.445312 17.984375 -4.0625 C 17.171875 -2.675781 16.066406 -1.601562 14.671875 -0.84375 C 13.273438 -0.09375 11.734375 0.28125 10.046875 0.28125 Z M 10.046875 -2.875 C 10.984375 -2.875 11.863281 -3.097656 12.6875 -3.546875 C 13.507812 -3.992188 14.175781 -4.664062 14.6875 -5.5625 C 15.195312 -6.457031 15.453125 -7.546875 15.453125 -8.828125 C 15.453125 -10.109375 15.207031 -11.191406 14.71875 -12.078125 C 14.226562 -12.960938 13.578125 -13.628906 12.765625 -14.078125 C 11.953125 -14.523438 11.078125 -14.75 10.140625 -14.75 C 9.203125 -14.75 8.332031 -14.523438 7.53125 -14.078125 C 6.738281 -13.628906 6.101562 -12.960938 5.625 -12.078125 C 5.15625 -11.191406 4.921875 -10.109375 4.921875 -8.828125 C 4.921875 -6.929688 5.40625 -5.460938 6.375 -4.421875 C 7.351562 -3.390625 8.578125 -2.875 10.046875 -2.875 Z M 10.046875 -2.875 "/></g></g></g><g fill="#1c1678" fill-opacity="1"><g transform="translate(292.797088, 149.965361)"><g><path d="M 1.1875 -8.828125 C 1.1875 -10.640625 1.550781 -12.234375 2.28125 -13.609375 C 3.019531 -14.992188 4.039062 -16.054688 5.34375 -16.796875 C 6.644531 -17.546875 8.140625 -17.921875 9.828125 -17.921875 C 11.960938 -17.921875 13.726562 -17.410156 15.125 -16.390625 C 16.519531 -15.378906 17.460938 -13.9375 17.953125 -12.0625 L 14.015625 -12.0625 C 13.691406 -12.9375 13.175781 -13.617188 12.46875 -14.109375 C 11.769531 -14.597656 10.890625 -14.84375 9.828125 -14.84375 C 8.328125 -14.84375 7.132812 -14.316406 6.25 -13.265625 C 5.363281 -12.210938 4.921875 -10.734375 4.921875 -8.828125 C 4.921875 -6.929688 5.363281 -5.445312 6.25 -4.375 C 7.132812 -3.3125 8.328125 -2.78125 9.828125 -2.78125 C 11.929688 -2.78125 13.328125 -3.707031 14.015625 -5.5625 L 17.953125 -5.5625 C 17.441406 -3.769531 16.476562 -2.347656 15.0625 -1.296875 C 13.65625 -0.242188 11.910156 0.28125 9.828125 0.28125 C 8.140625 0.28125 6.644531 -0.09375 5.34375 -0.84375 C 4.039062 -1.601562 3.019531 -2.671875 2.28125 -4.046875 C 1.550781 -5.421875 1.1875 -7.015625 1.1875 -8.828125 Z M 1.1875 -8.828125 "/></g></g></g><g fill="#1c1678" fill-opacity="1"><g transform="translate(311.992365, 149.965361)"><g><path d="M 9.375 -8.796875 L 17.5 0 L 12.578125 0 L 6.046875 -7.578125 L 6.046875 0 L 2.40625 0 L 2.40625 -23.6875 L 6.046875 -23.6875 L 6.046875 -9.921875 L 12.453125 -17.625 L 17.5 -17.625 Z M 9.375 -8.796875 "/></g></g></g><g fill="#1c1678" fill-opacity="1"><g transform="translate(329.716012, 149.965361)"><g><path d="M 3.875 0.21875 C 3.207031 0.21875 2.648438 -0.00390625 2.203125 -0.453125 C 1.753906 -0.898438 1.53125 -1.453125 1.53125 -2.109375 C 1.53125 -2.773438 1.753906 -3.332031 2.203125 -3.78125 C 2.648438 -4.226562 3.207031 -4.453125 3.875 -4.453125 C 4.507812 -4.453125 5.050781 -4.226562 5.5 -3.78125 C 5.945312 -3.332031 6.171875 -2.773438 6.171875 -2.109375 C 6.171875 -1.453125 5.945312 -0.898438 5.5 -0.453125 C 5.050781 -0.00390625 4.507812 0.21875 3.875 0.21875 Z M 3.875 0.21875 "/></g></g></g><g fill="#1c1678" fill-opacity="1"><g transform="translate(337.426114, 149.965361)"><g><path d="M 1.1875 -8.890625 C 1.1875 -10.660156 1.550781 -12.226562 2.28125 -13.59375 C 3.019531 -14.957031 4.023438 -16.019531 5.296875 -16.78125 C 6.566406 -17.539062 7.96875 -17.921875 9.5 -17.921875 C 10.882812 -17.921875 12.09375 -17.644531 13.125 -17.09375 C 14.164062 -16.550781 14.992188 -15.878906 15.609375 -15.078125 L 15.609375 -17.625 L 19.296875 -17.625 L 19.296875 0 L 15.609375 0 L 15.609375 -2.625 C 14.992188 -1.789062 14.148438 -1.097656 13.078125 -0.546875 C 12.015625 0.00390625 10.800781 0.28125 9.4375 0.28125 C 7.925781 0.28125 6.539062 -0.101562 5.28125 -0.875 C 4.019531 -1.65625 3.019531 -2.742188 2.28125 -4.140625 C 1.550781 -5.535156 1.1875 -7.117188 1.1875 -8.890625 Z M 15.609375 -8.828125 C 15.609375 -10.046875 15.359375 -11.101562 14.859375 -12 C 14.359375 -12.894531 13.703125 -13.578125 12.890625 -14.046875 C 12.085938 -14.515625 11.210938 -14.75 10.265625 -14.75 C 9.328125 -14.75 8.453125 -14.519531 7.640625 -14.0625 C 6.835938 -13.601562 6.179688 -12.929688 5.671875 -12.046875 C 5.171875 -11.160156 4.921875 -10.109375 4.921875 -8.890625 C 4.921875 -7.679688 5.171875 -6.613281 5.671875 -5.6875 C 6.179688 -4.769531 6.84375 -4.070312 7.65625 -3.59375 C 8.476562 -3.113281 9.347656 -2.875 10.265625 -2.875 C 11.210938 -2.875 12.085938 -3.109375 12.890625 -3.578125 C 13.703125 -4.046875 14.359375 -4.734375 14.859375 -5.640625 C 15.359375 -6.554688 15.609375 -7.617188 15.609375 -8.828125 Z M 15.609375 -8.828125 "/></g></g></g><g fill="#1c1678" fill-opacity="1"><g transform="translate(359.116786, 149.965361)"><g><path d="M 4.25 -19.96875 C 3.59375 -19.96875 3.039062 -20.191406 2.59375 -20.640625 C 2.144531 -21.085938 1.921875 -21.640625 1.921875 -22.296875 C 1.921875 -22.960938 2.144531 -23.519531 2.59375 -23.96875 C 3.039062 -24.414062 3.59375 -24.640625 4.25 -24.640625 C 4.894531 -24.640625 5.441406 -24.414062 5.890625 -23.96875 C 6.335938 -23.519531 6.5625 -22.960938 6.5625 -22.296875 C 6.5625 -21.640625 6.335938 -21.085938 5.890625 -20.640625 C 5.441406 -20.191406 4.894531 -19.96875 4.25 -19.96875 Z M 6.046875 -17.625 L 6.046875 0 L 2.40625 0 L 2.40625 -17.625 Z M 6.046875 -17.625 "/></g></g></g><g fill="#984ae8" fill-opacity="1"><g transform="translate(205.823723, 176.194274)"><g><path d="M 7.234375 -11.78125 L 7.015625 -11.78125 C 6.960938 -11.925781 6.878906 -12.09375 6.765625 -12.28125 C 6.660156 -12.46875 6.515625 -12.644531 6.328125 -12.8125 C 6.140625 -12.976562 5.910156 -13.117188 5.640625 -13.234375 C 5.378906 -13.347656 5.070312 -13.40625 4.71875 -13.40625 C 4.394531 -13.40625 4.109375 -13.351562 3.859375 -13.25 C 3.617188 -13.15625 3.414062 -13.019531 3.25 -12.84375 C 3.082031 -12.664062 2.957031 -12.457031 2.875 -12.21875 C 2.789062 -11.976562 2.75 -11.710938 2.75 -11.421875 C 2.75 -10.953125 2.878906 -10.503906 3.140625 -10.078125 C 3.398438 -9.648438 3.726562 -9.226562 4.125 -8.8125 C 4.53125 -8.394531 4.960938 -7.976562 5.421875 -7.5625 C 5.878906 -7.144531 6.304688 -6.710938 6.703125 -6.265625 C 7.109375 -5.816406 7.441406 -5.34375 7.703125 -4.84375 C 7.960938 -4.351562 8.09375 -3.828125 8.09375 -3.265625 C 8.09375 -2.835938 8.019531 -2.410156 7.875 -1.984375 C 7.726562 -1.554688 7.5 -1.171875 7.1875 -0.828125 C 6.882812 -0.492188 6.492188 -0.222656 6.015625 -0.015625 C 5.535156 0.191406 4.960938 0.296875 4.296875 0.296875 C 3.921875 0.296875 3.566406 0.257812 3.234375 0.1875 C 2.898438 0.125 2.59375 0.046875 2.3125 -0.046875 C 2.03125 -0.148438 1.773438 -0.257812 1.546875 -0.375 C 1.328125 -0.5 1.144531 -0.609375 1 -0.703125 L 1.21875 -2.859375 L 1.46875 -2.859375 C 1.539062 -2.554688 1.65625 -2.265625 1.8125 -1.984375 C 1.976562 -1.710938 2.179688 -1.46875 2.421875 -1.25 C 2.660156 -1.039062 2.929688 -0.875 3.234375 -0.75 C 3.535156 -0.625 3.867188 -0.5625 4.234375 -0.5625 C 4.566406 -0.5625 4.863281 -0.609375 5.125 -0.703125 C 5.394531 -0.804688 5.625 -0.945312 5.8125 -1.125 C 6 -1.300781 6.140625 -1.515625 6.234375 -1.765625 C 6.335938 -2.015625 6.390625 -2.285156 6.390625 -2.578125 C 6.390625 -2.984375 6.316406 -3.359375 6.171875 -3.703125 C 6.023438 -4.054688 5.828125 -4.390625 5.578125 -4.703125 C 5.335938 -5.015625 5.0625 -5.316406 4.75 -5.609375 C 4.4375 -5.910156 4.117188 -6.207031 3.796875 -6.5 C 3.472656 -6.789062 3.15625 -7.09375 2.84375 -7.40625 C 2.539062 -7.71875 2.265625 -8.050781 2.015625 -8.40625 C 1.773438 -8.769531 1.578125 -9.15625 1.421875 -9.5625 C 1.273438 -9.96875 1.203125 -10.414062 1.203125 -10.90625 C 1.203125 -11.414062 1.300781 -11.875 1.5 -12.28125 C 1.695312 -12.695312 1.957031 -13.050781 2.28125 -13.34375 C 2.613281 -13.644531 2.988281 -13.875 3.40625 -14.03125 C 3.820312 -14.1875 4.253906 -14.265625 4.703125 -14.265625 C 5.023438 -14.265625 5.320312 -14.238281 5.59375 -14.1875 C 5.863281 -14.132812 6.109375 -14.070312 6.328125 -14 C 6.546875 -13.925781 6.738281 -13.851562 6.90625 -13.78125 C 7.070312 -13.707031 7.207031 -13.648438 7.3125 -13.609375 Z M 7.234375 -11.78125 "/></g></g></g><g fill="#984ae8" fill-opacity="1"><g transform="translate(214.92173, 176.194274)"><g><path d="M 5.046875 -0.578125 C 5.234375 -0.578125 5.421875 -0.613281 5.609375 -0.6875 C 5.804688 -0.757812 5.992188 -0.851562 6.171875 -0.96875 C 6.359375 -1.09375 6.53125 -1.234375 6.6875 -1.390625 C 6.851562 -1.554688 7.007812 -1.726562 7.15625 -1.90625 L 7.25 -1.859375 L 6.625 -0.28125 C 6.539062 -0.238281 6.441406 -0.191406 6.328125 -0.140625 C 6.210938 -0.0859375 6.078125 -0.0351562 5.921875 0.015625 C 5.765625 0.0664062 5.578125 0.109375 5.359375 0.140625 C 5.148438 0.179688 4.894531 0.203125 4.59375 0.203125 C 3.726562 0.203125 3.050781 -0.03125 2.5625 -0.5 C 2.082031 -0.976562 1.84375 -1.71875 1.84375 -2.71875 L 1.84375 -9.234375 L 0.203125 -9.1875 L 0.203125 -10.046875 C 0.398438 -10.023438 0.640625 -10.007812 0.921875 -10 C 1.203125 -10 1.507812 -10 1.84375 -10 C 1.832031 -10.457031 1.816406 -10.863281 1.796875 -11.21875 C 1.785156 -11.582031 1.765625 -11.894531 1.734375 -12.15625 C 1.710938 -12.414062 1.6875 -12.632812 1.65625 -12.8125 C 1.625 -13 1.59375 -13.15625 1.5625 -13.28125 L 1.5625 -13.328125 L 3.8125 -13.328125 L 3.8125 -13.28125 C 3.78125 -13.15625 3.742188 -13 3.703125 -12.8125 C 3.671875 -12.632812 3.644531 -12.414062 3.625 -12.15625 C 3.601562 -11.894531 3.582031 -11.585938 3.5625 -11.234375 C 3.550781 -10.878906 3.539062 -10.46875 3.53125 -10 C 3.945312 -10.007812 4.347656 -10.019531 4.734375 -10.03125 C 5.128906 -10.039062 5.488281 -10.050781 5.8125 -10.0625 C 6.132812 -10.082031 6.40625 -10.097656 6.625 -10.109375 C 6.851562 -10.128906 7.003906 -10.144531 7.078125 -10.15625 L 6.90625 -9.15625 C 6.570312 -9.164062 6.222656 -9.175781 5.859375 -9.1875 C 5.546875 -9.195312 5.1875 -9.207031 4.78125 -9.21875 C 4.382812 -9.226562 3.96875 -9.234375 3.53125 -9.234375 L 3.53125 -2.515625 C 3.53125 -2.117188 3.570312 -1.789062 3.65625 -1.53125 C 3.75 -1.28125 3.863281 -1.082031 4 -0.9375 C 4.144531 -0.800781 4.304688 -0.707031 4.484375 -0.65625 C 4.660156 -0.601562 4.847656 -0.578125 5.046875 -0.578125 Z M 5.046875 -0.578125 "/></g></g></g><g fill="#984ae8" fill-opacity="1"><g transform="translate(222.594513, 176.194274)"><g><path d="M 1.5 -6.1875 C 1.5 -6.738281 1.488281 -7.21875 1.46875 -7.625 C 1.457031 -8.039062 1.441406 -8.398438 1.421875 -8.703125 C 1.398438 -9.003906 1.367188 -9.253906 1.328125 -9.453125 C 1.296875 -9.648438 1.257812 -9.820312 1.21875 -9.96875 L 1.21875 -10 L 3.484375 -10 L 3.484375 -9.96875 C 3.429688 -9.8125 3.382812 -9.625 3.34375 -9.40625 C 3.3125 -9.195312 3.285156 -8.921875 3.265625 -8.578125 C 3.503906 -8.785156 3.753906 -8.984375 4.015625 -9.171875 C 4.273438 -9.367188 4.539062 -9.539062 4.8125 -9.6875 C 5.082031 -9.84375 5.359375 -9.96875 5.640625 -10.0625 C 5.929688 -10.15625 6.21875 -10.203125 6.5 -10.203125 C 6.675781 -10.203125 6.828125 -10.191406 6.953125 -10.171875 C 7.085938 -10.148438 7.207031 -10.125 7.3125 -10.09375 C 7.414062 -10.070312 7.507812 -10.039062 7.59375 -10 C 7.675781 -9.96875 7.757812 -9.9375 7.84375 -9.90625 L 7.359375 -8.03125 L 7.203125 -8.078125 C 7.117188 -8.359375 6.96875 -8.585938 6.75 -8.765625 C 6.539062 -8.941406 6.25 -9.03125 5.875 -9.03125 C 5.675781 -9.03125 5.460938 -8.992188 5.234375 -8.921875 C 5.015625 -8.847656 4.789062 -8.742188 4.5625 -8.609375 C 4.34375 -8.484375 4.117188 -8.335938 3.890625 -8.171875 C 3.660156 -8.015625 3.4375 -7.84375 3.21875 -7.65625 C 3.207031 -7.46875 3.203125 -7.257812 3.203125 -7.03125 C 3.203125 -6.8125 3.203125 -6.582031 3.203125 -6.34375 L 3.203125 -3.8125 C 3.203125 -3.257812 3.207031 -2.773438 3.21875 -2.359375 C 3.238281 -1.953125 3.257812 -1.597656 3.28125 -1.296875 C 3.3125 -0.992188 3.34375 -0.742188 3.375 -0.546875 C 3.40625 -0.347656 3.441406 -0.179688 3.484375 -0.046875 L 3.484375 0 L 1.21875 0 L 1.21875 -0.046875 C 1.257812 -0.179688 1.296875 -0.347656 1.328125 -0.546875 C 1.367188 -0.742188 1.398438 -0.992188 1.421875 -1.296875 C 1.441406 -1.597656 1.457031 -1.953125 1.46875 -2.359375 C 1.488281 -2.773438 1.5 -3.257812 1.5 -3.8125 Z M 1.5 -6.1875 "/></g></g></g><g fill="#984ae8" fill-opacity="1"><g transform="translate(230.433246, 176.194274)"><g><path d="M 3.140625 -3.421875 C 3.140625 -2.554688 3.3125 -1.921875 3.65625 -1.515625 C 4 -1.117188 4.460938 -0.921875 5.046875 -0.921875 C 5.253906 -0.921875 5.488281 -0.960938 5.75 -1.046875 C 6.007812 -1.140625 6.273438 -1.257812 6.546875 -1.40625 C 6.828125 -1.550781 7.101562 -1.71875 7.375 -1.90625 C 7.65625 -2.101562 7.910156 -2.316406 8.140625 -2.546875 C 8.160156 -2.734375 8.171875 -2.929688 8.171875 -3.140625 C 8.171875 -3.347656 8.171875 -3.570312 8.171875 -3.8125 L 8.171875 -6.1875 C 8.171875 -6.738281 8.160156 -7.21875 8.140625 -7.625 C 8.117188 -8.039062 8.097656 -8.398438 8.078125 -8.703125 C 8.054688 -9.003906 8.023438 -9.253906 7.984375 -9.453125 C 7.953125 -9.648438 7.914062 -9.820312 7.875 -9.96875 L 7.875 -10 L 10.140625 -10 L 10.140625 -9.96875 C 10.097656 -9.820312 10.0625 -9.648438 10.03125 -9.453125 C 10 -9.253906 9.96875 -9.003906 9.9375 -8.703125 C 9.914062 -8.398438 9.894531 -8.039062 9.875 -7.625 C 9.863281 -7.21875 9.859375 -6.738281 9.859375 -6.1875 L 9.859375 -3.8125 C 9.859375 -3.257812 9.863281 -2.773438 9.875 -2.359375 C 9.894531 -1.953125 9.914062 -1.597656 9.9375 -1.296875 C 9.96875 -0.992188 10 -0.742188 10.03125 -0.546875 C 10.0625 -0.347656 10.097656 -0.179688 10.140625 -0.046875 L 10.140625 0 L 7.875 0 L 7.875 -0.046875 C 7.914062 -0.203125 7.957031 -0.40625 8 -0.65625 C 8.039062 -0.914062 8.070312 -1.25 8.09375 -1.65625 C 7.832031 -1.425781 7.546875 -1.203125 7.234375 -0.984375 C 6.921875 -0.765625 6.597656 -0.566406 6.265625 -0.390625 C 5.929688 -0.210938 5.59375 -0.0703125 5.25 0.03125 C 4.90625 0.144531 4.566406 0.203125 4.234375 0.203125 C 3.734375 0.203125 3.300781 0.113281 2.9375 -0.0625 C 2.582031 -0.238281 2.289062 -0.46875 2.0625 -0.75 C 1.84375 -1.039062 1.679688 -1.367188 1.578125 -1.734375 C 1.484375 -2.097656 1.4375 -2.472656 1.4375 -2.859375 L 1.4375 -6.1875 C 1.4375 -6.738281 1.425781 -7.21875 1.40625 -7.625 C 1.394531 -8.039062 1.375 -8.398438 1.34375 -8.703125 C 1.320312 -9.003906 1.296875 -9.253906 1.265625 -9.453125 C 1.234375 -9.648438 1.195312 -9.820312 1.15625 -9.96875 L 1.15625 -10 L 3.421875 -10 L 3.421875 -9.96875 C 3.378906 -9.820312 3.34375 -9.648438 3.3125 -9.453125 C 3.28125 -9.253906 3.25 -9.003906 3.21875 -8.703125 C 3.195312 -8.398438 3.175781 -8.039062 3.15625 -7.625 C 3.144531 -7.21875 3.140625 -6.738281 3.140625 -6.1875 Z M 3.140625 -3.421875 "/></g></g></g><g fill="#984ae8" fill-opacity="1"><g transform="translate(241.786231, 176.194274)"><g><path d="M 9.625 -2.078125 L 8.890625 -0.34375 C 8.722656 -0.257812 8.523438 -0.1875 8.296875 -0.125 C 8.066406 -0.0625 7.828125 -0.0078125 7.578125 0.03125 C 7.335938 0.0820312 7.09375 0.117188 6.84375 0.140625 C 6.59375 0.160156 6.359375 0.171875 6.140625 0.171875 C 5.359375 0.171875 4.628906 0.0546875 3.953125 -0.171875 C 3.285156 -0.398438 2.707031 -0.734375 2.21875 -1.171875 C 1.738281 -1.617188 1.363281 -2.164062 1.09375 -2.8125 C 0.820312 -3.457031 0.6875 -4.191406 0.6875 -5.015625 C 0.6875 -5.753906 0.828125 -6.4375 1.109375 -7.0625 C 1.390625 -7.695312 1.78125 -8.242188 2.28125 -8.703125 C 2.789062 -9.160156 3.382812 -9.519531 4.0625 -9.78125 C 4.75 -10.039062 5.492188 -10.171875 6.296875 -10.171875 C 6.660156 -10.171875 7.050781 -10.140625 7.46875 -10.078125 C 7.882812 -10.015625 8.253906 -9.9375 8.578125 -9.84375 L 9.28125 -8.1875 L 9.15625 -8.109375 C 9 -8.316406 8.804688 -8.503906 8.578125 -8.671875 C 8.359375 -8.835938 8.113281 -8.976562 7.84375 -9.09375 C 7.570312 -9.207031 7.285156 -9.296875 6.984375 -9.359375 C 6.679688 -9.429688 6.375 -9.46875 6.0625 -9.46875 C 5.550781 -9.46875 5.085938 -9.375 4.671875 -9.1875 C 4.253906 -9.007812 3.894531 -8.75 3.59375 -8.40625 C 3.300781 -8.070312 3.070312 -7.660156 2.90625 -7.171875 C 2.738281 -6.679688 2.65625 -6.125 2.65625 -5.5 C 2.65625 -4.789062 2.734375 -4.132812 2.890625 -3.53125 C 3.054688 -2.925781 3.296875 -2.398438 3.609375 -1.953125 C 3.921875 -1.515625 4.316406 -1.164062 4.796875 -0.90625 C 5.273438 -0.65625 5.835938 -0.53125 6.484375 -0.53125 C 6.785156 -0.53125 7.082031 -0.566406 7.375 -0.640625 C 7.675781 -0.722656 7.957031 -0.832031 8.21875 -0.96875 C 8.476562 -1.113281 8.71875 -1.28125 8.9375 -1.46875 C 9.164062 -1.664062 9.351562 -1.890625 9.5 -2.140625 Z M 9.625 -2.078125 "/></g></g></g><g fill="#984ae8" fill-opacity="1"><g transform="translate(251.879942, 176.194274)"><g><path d="M 5.046875 -0.578125 C 5.234375 -0.578125 5.421875 -0.613281 5.609375 -0.6875 C 5.804688 -0.757812 5.992188 -0.851562 6.171875 -0.96875 C 6.359375 -1.09375 6.53125 -1.234375 6.6875 -1.390625 C 6.851562 -1.554688 7.007812 -1.726562 7.15625 -1.90625 L 7.25 -1.859375 L 6.625 -0.28125 C 6.539062 -0.238281 6.441406 -0.191406 6.328125 -0.140625 C 6.210938 -0.0859375 6.078125 -0.0351562 5.921875 0.015625 C 5.765625 0.0664062 5.578125 0.109375 5.359375 0.140625 C 5.148438 0.179688 4.894531 0.203125 4.59375 0.203125 C 3.726562 0.203125 3.050781 -0.03125 2.5625 -0.5 C 2.082031 -0.976562 1.84375 -1.71875 1.84375 -2.71875 L 1.84375 -9.234375 L 0.203125 -9.1875 L 0.203125 -10.046875 C 0.398438 -10.023438 0.640625 -10.007812 0.921875 -10 C 1.203125 -10 1.507812 -10 1.84375 -10 C 1.832031 -10.457031 1.816406 -10.863281 1.796875 -11.21875 C 1.785156 -11.582031 1.765625 -11.894531 1.734375 -12.15625 C 1.710938 -12.414062 1.6875 -12.632812 1.65625 -12.8125 C 1.625 -13 1.59375 -13.15625 1.5625 -13.28125 L 1.5625 -13.328125 L 3.8125 -13.328125 L 3.8125 -13.28125 C 3.78125 -13.15625 3.742188 -13 3.703125 -12.8125 C 3.671875 -12.632812 3.644531 -12.414062 3.625 -12.15625 C 3.601562 -11.894531 3.582031 -11.585938 3.5625 -11.234375 C 3.550781 -10.878906 3.539062 -10.46875 3.53125 -10 C 3.945312 -10.007812 4.347656 -10.019531 4.734375 -10.03125 C 5.128906 -10.039062 5.488281 -10.050781 5.8125 -10.0625 C 6.132812 -10.082031 6.40625 -10.097656 6.625 -10.109375 C 6.851562 -10.128906 7.003906 -10.144531 7.078125 -10.15625 L 6.90625 -9.15625 C 6.570312 -9.164062 6.222656 -9.175781 5.859375 -9.1875 C 5.546875 -9.195312 5.1875 -9.207031 4.78125 -9.21875 C 4.382812 -9.226562 3.96875 -9.234375 3.53125 -9.234375 L 3.53125 -2.515625 C 3.53125 -2.117188 3.570312 -1.789062 3.65625 -1.53125 C 3.75 -1.28125 3.863281 -1.082031 4 -0.9375 C 4.144531 -0.800781 4.304688 -0.707031 4.484375 -0.65625 C 4.660156 -0.601562 4.847656 -0.578125 5.046875 -0.578125 Z M 5.046875 -0.578125 "/></g></g></g><g fill="#984ae8" fill-opacity="1"><g transform="translate(259.552725, 176.194274)"><g><path d="M 3.140625 -3.421875 C 3.140625 -2.554688 3.3125 -1.921875 3.65625 -1.515625 C 4 -1.117188 4.460938 -0.921875 5.046875 -0.921875 C 5.253906 -0.921875 5.488281 -0.960938 5.75 -1.046875 C 6.007812 -1.140625 6.273438 -1.257812 6.546875 -1.40625 C 6.828125 -1.550781 7.101562 -1.71875 7.375 -1.90625 C 7.65625 -2.101562 7.910156 -2.316406 8.140625 -2.546875 C 8.160156 -2.734375 8.171875 -2.929688 8.171875 -3.140625 C 8.171875 -3.347656 8.171875 -3.570312 8.171875 -3.8125 L 8.171875 -6.1875 C 8.171875 -6.738281 8.160156 -7.21875 8.140625 -7.625 C 8.117188 -8.039062 8.097656 -8.398438 8.078125 -8.703125 C 8.054688 -9.003906 8.023438 -9.253906 7.984375 -9.453125 C 7.953125 -9.648438 7.914062 -9.820312 7.875 -9.96875 L 7.875 -10 L 10.140625 -10 L 10.140625 -9.96875 C 10.097656 -9.820312 10.0625 -9.648438 10.03125 -9.453125 C 10 -9.253906 9.96875 -9.003906 9.9375 -8.703125 C 9.914062 -8.398438 9.894531 -8.039062 9.875 -7.625 C 9.863281 -7.21875 9.859375 -6.738281 9.859375 -6.1875 L 9.859375 -3.8125 C 9.859375 -3.257812 9.863281 -2.773438 9.875 -2.359375 C 9.894531 -1.953125 9.914062 -1.597656 9.9375 -1.296875 C 9.96875 -0.992188 10 -0.742188 10.03125 -0.546875 C 10.0625 -0.347656 10.097656 -0.179688 10.140625 -0.046875 L 10.140625 0 L 7.875 0 L 7.875 -0.046875 C 7.914062 -0.203125 7.957031 -0.40625 8 -0.65625 C 8.039062 -0.914062 8.070312 -1.25 8.09375 -1.65625 C 7.832031 -1.425781 7.546875 -1.203125 7.234375 -0.984375 C 6.921875 -0.765625 6.597656 -0.566406 6.265625 -0.390625 C 5.929688 -0.210938 5.59375 -0.0703125 5.25 0.03125 C 4.90625 0.144531 4.566406 0.203125 4.234375 0.203125 C 3.734375 0.203125 3.300781 0.113281 2.9375 -0.0625 C 2.582031 -0.238281 2.289062 -0.46875 2.0625 -0.75 C 1.84375 -1.039062 1.679688 -1.367188 1.578125 -1.734375 C 1.484375 -2.097656 1.4375 -2.472656 1.4375 -2.859375 L 1.4375 -6.1875 C 1.4375 -6.738281 1.425781 -7.21875 1.40625 -7.625 C 1.394531 -8.039062 1.375 -8.398438 1.34375 -8.703125 C 1.320312 -9.003906 1.296875 -9.253906 1.265625 -9.453125 C 1.234375 -9.648438 1.195312 -9.820312 1.15625 -9.96875 L 1.15625 -10 L 3.421875 -10 L 3.421875 -9.96875 C 3.378906 -9.820312 3.34375 -9.648438 3.3125 -9.453125 C 3.28125 -9.253906 3.25 -9.003906 3.21875 -8.703125 C 3.195312 -8.398438 3.175781 -8.039062 3.15625 -7.625 C 3.144531 -7.21875 3.140625 -6.738281 3.140625 -6.1875 Z M 3.140625 -3.421875 "/></g></g></g><g fill="#984ae8" fill-opacity="1"><g transform="translate(270.905709, 176.194274)"><g><path d="M 1.5 -6.1875 C 1.5 -6.738281 1.488281 -7.21875 1.46875 -7.625 C 1.457031 -8.039062 1.441406 -8.398438 1.421875 -8.703125 C 1.398438 -9.003906 1.367188 -9.253906 1.328125 -9.453125 C 1.296875 -9.648438 1.257812 -9.820312 1.21875 -9.96875 L 1.21875 -10 L 3.484375 -10 L 3.484375 -9.96875 C 3.429688 -9.8125 3.382812 -9.625 3.34375 -9.40625 C 3.3125 -9.195312 3.285156 -8.921875 3.265625 -8.578125 C 3.503906 -8.785156 3.753906 -8.984375 4.015625 -9.171875 C 4.273438 -9.367188 4.539062 -9.539062 4.8125 -9.6875 C 5.082031 -9.84375 5.359375 -9.96875 5.640625 -10.0625 C 5.929688 -10.15625 6.21875 -10.203125 6.5 -10.203125 C 6.675781 -10.203125 6.828125 -10.191406 6.953125 -10.171875 C 7.085938 -10.148438 7.207031 -10.125 7.3125 -10.09375 C 7.414062 -10.070312 7.507812 -10.039062 7.59375 -10 C 7.675781 -9.96875 7.757812 -9.9375 7.84375 -9.90625 L 7.359375 -8.03125 L 7.203125 -8.078125 C 7.117188 -8.359375 6.96875 -8.585938 6.75 -8.765625 C 6.539062 -8.941406 6.25 -9.03125 5.875 -9.03125 C 5.675781 -9.03125 5.460938 -8.992188 5.234375 -8.921875 C 5.015625 -8.847656 4.789062 -8.742188 4.5625 -8.609375 C 4.34375 -8.484375 4.117188 -8.335938 3.890625 -8.171875 C 3.660156 -8.015625 3.4375 -7.84375 3.21875 -7.65625 C 3.207031 -7.46875 3.203125 -7.257812 3.203125 -7.03125 C 3.203125 -6.8125 3.203125 -6.582031 3.203125 -6.34375 L 3.203125 -3.8125 C 3.203125 -3.257812 3.207031 -2.773438 3.21875 -2.359375 C 3.238281 -1.953125 3.257812 -1.597656 3.28125 -1.296875 C 3.3125 -0.992188 3.34375 -0.742188 3.375 -0.546875 C 3.40625 -0.347656 3.441406 -0.179688 3.484375 -0.046875 L 3.484375 0 L 1.21875 0 L 1.21875 -0.046875 C 1.257812 -0.179688 1.296875 -0.347656 1.328125 -0.546875 C 1.367188 -0.742188 1.398438 -0.992188 1.421875 -1.296875 C 1.441406 -1.597656 1.457031 -1.953125 1.46875 -2.359375 C 1.488281 -2.773438 1.5 -3.257812 1.5 -3.8125 Z M 1.5 -6.1875 "/></g></g></g><g fill="#984ae8" fill-opacity="1"><g transform="translate(278.744443, 176.194274)"><g><path d="M 5.875 0.171875 C 5.15625 0.171875 4.476562 0.0546875 3.84375 -0.171875 C 3.21875 -0.398438 2.671875 -0.734375 2.203125 -1.171875 C 1.734375 -1.609375 1.363281 -2.148438 1.09375 -2.796875 C 0.820312 -3.441406 0.6875 -4.179688 0.6875 -5.015625 C 0.6875 -5.753906 0.804688 -6.4375 1.046875 -7.0625 C 1.296875 -7.695312 1.640625 -8.242188 2.078125 -8.703125 C 2.515625 -9.160156 3.023438 -9.519531 3.609375 -9.78125 C 4.191406 -10.039062 4.820312 -10.171875 5.5 -10.171875 C 6.164062 -10.171875 6.785156 -10.054688 7.359375 -9.828125 C 7.929688 -9.597656 8.425781 -9.265625 8.84375 -8.828125 C 9.269531 -8.390625 9.601562 -7.84375 9.84375 -7.1875 C 10.09375 -6.539062 10.226562 -5.804688 10.25 -4.984375 C 9.507812 -4.992188 8.769531 -5 8.03125 -5 C 7.300781 -5.007812 6.539062 -5.015625 5.75 -5.015625 C 5.175781 -5.015625 4.617188 -5.007812 4.078125 -5 C 3.546875 -5 3.066406 -4.992188 2.640625 -4.984375 C 2.679688 -4.304688 2.785156 -3.691406 2.953125 -3.140625 C 3.128906 -2.597656 3.367188 -2.128906 3.671875 -1.734375 C 3.972656 -1.347656 4.335938 -1.050781 4.765625 -0.84375 C 5.203125 -0.632812 5.691406 -0.53125 6.234375 -0.53125 C 6.617188 -0.53125 6.976562 -0.570312 7.3125 -0.65625 C 7.644531 -0.75 7.945312 -0.875 8.21875 -1.03125 C 8.5 -1.1875 8.742188 -1.367188 8.953125 -1.578125 C 9.171875 -1.796875 9.351562 -2.03125 9.5 -2.28125 L 9.625 -2.21875 L 8.890625 -0.484375 C 8.546875 -0.296875 8.128906 -0.140625 7.640625 -0.015625 C 7.148438 0.109375 6.5625 0.171875 5.875 0.171875 Z M 4.578125 -5.78125 C 5.234375 -5.78125 5.882812 -5.78125 6.53125 -5.78125 C 7.1875 -5.789062 7.785156 -5.804688 8.328125 -5.828125 C 8.265625 -6.390625 8.148438 -6.894531 7.984375 -7.34375 C 7.828125 -7.789062 7.617188 -8.171875 7.359375 -8.484375 C 7.109375 -8.796875 6.8125 -9.035156 6.46875 -9.203125 C 6.125 -9.378906 5.742188 -9.46875 5.328125 -9.46875 C 4.941406 -9.46875 4.59375 -9.382812 4.28125 -9.21875 C 3.96875 -9.050781 3.691406 -8.8125 3.453125 -8.5 C 3.222656 -8.1875 3.035156 -7.800781 2.890625 -7.34375 C 2.742188 -6.894531 2.660156 -6.378906 2.640625 -5.796875 C 2.929688 -5.785156 3.238281 -5.78125 3.5625 -5.78125 C 3.882812 -5.78125 4.222656 -5.78125 4.578125 -5.78125 Z M 4.578125 -5.78125 "/></g></g></g><g fill="#984ae8" fill-opacity="1"><g transform="translate(289.580052, 176.194274)"><g/></g></g><g fill="#984ae8" fill-opacity="1"><g transform="translate(295.573803, 176.194274)"><g><path d="M 11.21875 -7.21875 L 11.21875 -6.5 L 2.203125 -2.546875 L 1.84375 -3.421875 L 9.71875 -6.859375 L 1.84375 -10.296875 L 2.203125 -11.1875 Z M 11.21875 -7.21875 "/></g></g></g><g fill="#984ae8" fill-opacity="1"><g transform="translate(308.566771, 176.194274)"><g/></g></g><g fill="#984ae8" fill-opacity="1"><g transform="translate(314.560523, 176.194274)"><g><path d="M 7.234375 -11.78125 L 7.015625 -11.78125 C 6.960938 -11.925781 6.878906 -12.09375 6.765625 -12.28125 C 6.660156 -12.46875 6.515625 -12.644531 6.328125 -12.8125 C 6.140625 -12.976562 5.910156 -13.117188 5.640625 -13.234375 C 5.378906 -13.347656 5.070312 -13.40625 4.71875 -13.40625 C 4.394531 -13.40625 4.109375 -13.351562 3.859375 -13.25 C 3.617188 -13.15625 3.414062 -13.019531 3.25 -12.84375 C 3.082031 -12.664062 2.957031 -12.457031 2.875 -12.21875 C 2.789062 -11.976562 2.75 -11.710938 2.75 -11.421875 C 2.75 -10.953125 2.878906 -10.503906 3.140625 -10.078125 C 3.398438 -9.648438 3.726562 -9.226562 4.125 -8.8125 C 4.53125 -8.394531 4.960938 -7.976562 5.421875 -7.5625 C 5.878906 -7.144531 6.304688 -6.710938 6.703125 -6.265625 C 7.109375 -5.816406 7.441406 -5.34375 7.703125 -4.84375 C 7.960938 -4.351562 8.09375 -3.828125 8.09375 -3.265625 C 8.09375 -2.835938 8.019531 -2.410156 7.875 -1.984375 C 7.726562 -1.554688 7.5 -1.171875 7.1875 -0.828125 C 6.882812 -0.492188 6.492188 -0.222656 6.015625 -0.015625 C 5.535156 0.191406 4.960938 0.296875 4.296875 0.296875 C 3.921875 0.296875 3.566406 0.257812 3.234375 0.1875 C 2.898438 0.125 2.59375 0.046875 2.3125 -0.046875 C 2.03125 -0.148438 1.773438 -0.257812 1.546875 -0.375 C 1.328125 -0.5 1.144531 -0.609375 1 -0.703125 L 1.21875 -2.859375 L 1.46875 -2.859375 C 1.539062 -2.554688 1.65625 -2.265625 1.8125 -1.984375 C 1.976562 -1.710938 2.179688 -1.46875 2.421875 -1.25 C 2.660156 -1.039062 2.929688 -0.875 3.234375 -0.75 C 3.535156 -0.625 3.867188 -0.5625 4.234375 -0.5625 C 4.566406 -0.5625 4.863281 -0.609375 5.125 -0.703125 C 5.394531 -0.804688 5.625 -0.945312 5.8125 -1.125 C 6 -1.300781 6.140625 -1.515625 6.234375 -1.765625 C 6.335938 -2.015625 6.390625 -2.285156 6.390625 -2.578125 C 6.390625 -2.984375 6.316406 -3.359375 6.171875 -3.703125 C 6.023438 -4.054688 5.828125 -4.390625 5.578125 -4.703125 C 5.335938 -5.015625 5.0625 -5.316406 4.75 -5.609375 C 4.4375 -5.910156 4.117188 -6.207031 3.796875 -6.5 C 3.472656 -6.789062 3.15625 -7.09375 2.84375 -7.40625 C 2.539062 -7.71875 2.265625 -8.050781 2.015625 -8.40625 C 1.773438 -8.769531 1.578125 -9.15625 1.421875 -9.5625 C 1.273438 -9.96875 1.203125 -10.414062 1.203125 -10.90625 C 1.203125 -11.414062 1.300781 -11.875 1.5 -12.28125 C 1.695312 -12.695312 1.957031 -13.050781 2.28125 -13.34375 C 2.613281 -13.644531 2.988281 -13.875 3.40625 -14.03125 C 3.820312 -14.1875 4.253906 -14.265625 4.703125 -14.265625 C 5.023438 -14.265625 5.320312 -14.238281 5.59375 -14.1875 C 5.863281 -14.132812 6.109375 -14.070312 6.328125 -14 C 6.546875 -13.925781 6.738281 -13.851562 6.90625 -13.78125 C 7.070312 -13.707031 7.207031 -13.648438 7.3125 -13.609375 Z M 7.234375 -11.78125 "/></g></g></g><g fill="#984ae8" fill-opacity="1"><g transform="translate(323.658529, 176.194274)"><g><path d="M 9.625 -2.078125 L 8.890625 -0.34375 C 8.722656 -0.257812 8.523438 -0.1875 8.296875 -0.125 C 8.066406 -0.0625 7.828125 -0.0078125 7.578125 0.03125 C 7.335938 0.0820312 7.09375 0.117188 6.84375 0.140625 C 6.59375 0.160156 6.359375 0.171875 6.140625 0.171875 C 5.359375 0.171875 4.628906 0.0546875 3.953125 -0.171875 C 3.285156 -0.398438 2.707031 -0.734375 2.21875 -1.171875 C 1.738281 -1.617188 1.363281 -2.164062 1.09375 -2.8125 C 0.820312 -3.457031 0.6875 -4.191406 0.6875 -5.015625 C 0.6875 -5.753906 0.828125 -6.4375 1.109375 -7.0625 C 1.390625 -7.695312 1.78125 -8.242188 2.28125 -8.703125 C 2.789062 -9.160156 3.382812 -9.519531 4.0625 -9.78125 C 4.75 -10.039062 5.492188 -10.171875 6.296875 -10.171875 C 6.660156 -10.171875 7.050781 -10.140625 7.46875 -10.078125 C 7.882812 -10.015625 8.253906 -9.9375 8.578125 -9.84375 L 9.28125 -8.1875 L 9.15625 -8.109375 C 9 -8.316406 8.804688 -8.503906 8.578125 -8.671875 C 8.359375 -8.835938 8.113281 -8.976562 7.84375 -9.09375 C 7.570312 -9.207031 7.285156 -9.296875 6.984375 -9.359375 C 6.679688 -9.429688 6.375 -9.46875 6.0625 -9.46875 C 5.550781 -9.46875 5.085938 -9.375 4.671875 -9.1875 C 4.253906 -9.007812 3.894531 -8.75 3.59375 -8.40625 C 3.300781 -8.070312 3.070312 -7.660156 2.90625 -7.171875 C 2.738281 -6.679688 2.65625 -6.125 2.65625 -5.5 C 2.65625 -4.789062 2.734375 -4.132812 2.890625 -3.53125 C 3.054688 -2.925781 3.296875 -2.398438 3.609375 -1.953125 C 3.921875 -1.515625 4.316406 -1.164062 4.796875 -0.90625 C 5.273438 -0.65625 5.835938 -0.53125 6.484375 -0.53125 C 6.785156 -0.53125 7.082031 -0.566406 7.375 -0.640625 C 7.675781 -0.722656 7.957031 -0.832031 8.21875 -0.96875 C 8.476562 -1.113281 8.71875 -1.28125 8.9375 -1.46875 C 9.164062 -1.664062 9.351562 -1.890625 9.5 -2.140625 Z M 9.625 -2.078125 "/></g></g></g><g fill="#984ae8" fill-opacity="1"><g transform="translate(333.752241, 176.194274)"><g><path d="M 0.71875 -2.875 C 0.71875 -3.394531 0.820312 -3.84375 1.03125 -4.21875 C 1.25 -4.59375 1.53125 -4.914062 1.875 -5.1875 C 2.226562 -5.457031 2.628906 -5.671875 3.078125 -5.828125 C 3.535156 -5.992188 4.003906 -6.125 4.484375 -6.21875 C 4.960938 -6.320312 5.4375 -6.390625 5.90625 -6.421875 C 6.375 -6.453125 6.804688 -6.472656 7.203125 -6.484375 L 7.203125 -6.984375 C 7.203125 -7.410156 7.144531 -7.78125 7.03125 -8.09375 C 6.914062 -8.40625 6.757812 -8.664062 6.5625 -8.875 C 6.363281 -9.082031 6.117188 -9.234375 5.828125 -9.328125 C 5.546875 -9.429688 5.238281 -9.484375 4.90625 -9.484375 C 4.664062 -9.484375 4.429688 -9.460938 4.203125 -9.421875 C 3.984375 -9.378906 3.75 -9.3125 3.5 -9.21875 C 3.257812 -9.132812 3.003906 -9.015625 2.734375 -8.859375 C 2.460938 -8.703125 2.171875 -8.503906 1.859375 -8.265625 L 1.765625 -8.328125 L 2.421875 -9.703125 C 2.640625 -9.796875 2.851562 -9.875 3.0625 -9.9375 C 3.269531 -10 3.476562 -10.046875 3.6875 -10.078125 C 3.90625 -10.117188 4.125 -10.148438 4.34375 -10.171875 C 4.570312 -10.191406 4.8125 -10.203125 5.0625 -10.203125 C 5.738281 -10.203125 6.320312 -10.117188 6.8125 -9.953125 C 7.300781 -9.785156 7.695312 -9.554688 8 -9.265625 C 8.3125 -8.972656 8.535156 -8.632812 8.671875 -8.25 C 8.816406 -7.863281 8.890625 -7.445312 8.890625 -7 L 8.890625 -3.8125 C 8.890625 -3.257812 8.898438 -2.773438 8.921875 -2.359375 C 8.941406 -1.953125 8.960938 -1.597656 8.984375 -1.296875 C 9.003906 -0.992188 9.03125 -0.742188 9.0625 -0.546875 C 9.101562 -0.347656 9.144531 -0.179688 9.1875 -0.046875 L 9.1875 0 L 7.015625 0 L 7.015625 -0.046875 C 7.054688 -0.148438 7.082031 -0.265625 7.09375 -0.390625 C 7.113281 -0.523438 7.128906 -0.679688 7.140625 -0.859375 C 7.003906 -0.742188 6.84375 -0.625 6.65625 -0.5 C 6.46875 -0.375 6.253906 -0.257812 6.015625 -0.15625 C 5.785156 -0.0625 5.523438 0.015625 5.234375 0.078125 C 4.941406 0.140625 4.625 0.171875 4.28125 0.171875 C 3.144531 0.171875 2.265625 -0.09375 1.640625 -0.625 C 1.023438 -1.15625 0.71875 -1.90625 0.71875 -2.875 Z M 7.203125 -5.71875 C 6.609375 -5.71875 6.035156 -5.6875 5.484375 -5.625 C 4.941406 -5.5625 4.457031 -5.429688 4.03125 -5.234375 C 3.613281 -5.035156 3.28125 -4.753906 3.03125 -4.390625 C 2.78125 -4.035156 2.65625 -3.554688 2.65625 -2.953125 C 2.65625 -2.191406 2.847656 -1.609375 3.234375 -1.203125 C 3.617188 -0.796875 4.148438 -0.59375 4.828125 -0.59375 C 5.140625 -0.59375 5.421875 -0.632812 5.671875 -0.71875 C 5.929688 -0.8125 6.160156 -0.925781 6.359375 -1.0625 C 6.554688 -1.195312 6.722656 -1.34375 6.859375 -1.5 C 7.003906 -1.65625 7.109375 -1.8125 7.171875 -1.96875 C 7.191406 -2.207031 7.203125 -2.476562 7.203125 -2.78125 C 7.203125 -3.09375 7.203125 -3.4375 7.203125 -3.8125 Z M 7.203125 -5.71875 "/></g></g></g><g fill="#984ae8" fill-opacity="1"><g transform="translate(344.089997, 176.194274)"><g><path d="M 1.5625 -10.78125 C 1.5625 -11.332031 1.550781 -11.816406 1.53125 -12.234375 C 1.519531 -12.648438 1.503906 -13.003906 1.484375 -13.296875 C 1.460938 -13.597656 1.429688 -13.847656 1.390625 -14.046875 C 1.359375 -14.253906 1.320312 -14.425781 1.28125 -14.5625 L 1.28125 -14.59375 L 3.53125 -14.59375 L 3.53125 -14.5625 C 3.5 -14.425781 3.460938 -14.253906 3.421875 -14.046875 C 3.390625 -13.847656 3.359375 -13.597656 3.328125 -13.296875 C 3.304688 -13.003906 3.289062 -12.648438 3.28125 -12.234375 C 3.269531 -11.816406 3.265625 -11.332031 3.265625 -10.78125 L 3.265625 -3.8125 C 3.265625 -3.257812 3.269531 -2.773438 3.28125 -2.359375 C 3.289062 -1.953125 3.304688 -1.597656 3.328125 -1.296875 C 3.359375 -0.992188 3.390625 -0.742188 3.421875 -0.546875 C 3.460938 -0.347656 3.5 -0.179688 3.53125 -0.046875 L 3.53125 0 L 1.28125 0 L 1.28125 -0.046875 C 1.320312 -0.179688 1.359375 -0.347656 1.390625 -0.546875 C 1.429688 -0.742188 1.460938 -0.992188 1.484375 -1.296875 C 1.503906 -1.597656 1.519531 -1.953125 1.53125 -2.359375 C 1.550781 -2.773438 1.5625 -3.257812 1.5625 -3.8125 Z M 1.5625 -10.78125 "/></g></g></g><g fill="#984ae8" fill-opacity="1"><g transform="translate(348.912331, 176.194274)"><g><path d="M 5.875 0.171875 C 5.15625 0.171875 4.476562 0.0546875 3.84375 -0.171875 C 3.21875 -0.398438 2.671875 -0.734375 2.203125 -1.171875 C 1.734375 -1.609375 1.363281 -2.148438 1.09375 -2.796875 C 0.820312 -3.441406 0.6875 -4.179688 0.6875 -5.015625 C 0.6875 -5.753906 0.804688 -6.4375 1.046875 -7.0625 C 1.296875 -7.695312 1.640625 -8.242188 2.078125 -8.703125 C 2.515625 -9.160156 3.023438 -9.519531 3.609375 -9.78125 C 4.191406 -10.039062 4.820312 -10.171875 5.5 -10.171875 C 6.164062 -10.171875 6.785156 -10.054688 7.359375 -9.828125 C 7.929688 -9.597656 8.425781 -9.265625 8.84375 -8.828125 C 9.269531 -8.390625 9.601562 -7.84375 9.84375 -7.1875 C 10.09375 -6.539062 10.226562 -5.804688 10.25 -4.984375 C 9.507812 -4.992188 8.769531 -5 8.03125 -5 C 7.300781 -5.007812 6.539062 -5.015625 5.75 -5.015625 C 5.175781 -5.015625 4.617188 -5.007812 4.078125 -5 C 3.546875 -5 3.066406 -4.992188 2.640625 -4.984375 C 2.679688 -4.304688 2.785156 -3.691406 2.953125 -3.140625 C 3.128906 -2.597656 3.367188 -2.128906 3.671875 -1.734375 C 3.972656 -1.347656 4.335938 -1.050781 4.765625 -0.84375 C 5.203125 -0.632812 5.691406 -0.53125 6.234375 -0.53125 C 6.617188 -0.53125 6.976562 -0.570312 7.3125 -0.65625 C 7.644531 -0.75 7.945312 -0.875 8.21875 -1.03125 C 8.5 -1.1875 8.742188 -1.367188 8.953125 -1.578125 C 9.171875 -1.796875 9.351562 -2.03125 9.5 -2.28125 L 9.625 -2.21875 L 8.890625 -0.484375 C 8.546875 -0.296875 8.128906 -0.140625 7.640625 -0.015625 C 7.148438 0.109375 6.5625 0.171875 5.875 0.171875 Z M 4.578125 -5.78125 C 5.234375 -5.78125 5.882812 -5.78125 6.53125 -5.78125 C 7.1875 -5.789062 7.785156 -5.804688 8.328125 -5.828125 C 8.265625 -6.390625 8.148438 -6.894531 7.984375 -7.34375 C 7.828125 -7.789062 7.617188 -8.171875 7.359375 -8.484375 C 7.109375 -8.796875 6.8125 -9.035156 6.46875 -9.203125 C 6.125 -9.378906 5.742188 -9.46875 5.328125 -9.46875 C 4.941406 -9.46875 4.59375 -9.382812 4.28125 -9.21875 C 3.96875 -9.050781 3.691406 -8.8125 3.453125 -8.5 C 3.222656 -8.1875 3.035156 -7.800781 2.890625 -7.34375 C 2.742188 -6.894531 2.660156 -6.378906 2.640625 -5.796875 C 2.929688 -5.785156 3.238281 -5.78125 3.5625 -5.78125 C 3.882812 -5.78125 4.222656 -5.78125 4.578125 -5.78125 Z M 4.578125 -5.78125 "/></g></g></g></svg>