<svg xmlns="http://www.w3.org/2000/svg" xmlns:xlink="http://www.w3.org/1999/xlink" width="500" zoomAndPan="magnify" viewBox="0 0 375 187.499995" height="250" preserveAspectRatio="xMidYMid meet" version="1.0"><defs><g/></defs><g fill="#000000" fill-opacity="1"><g transform="translate(78.688601, 106.964753)"><g><path d="M 12.40625 -28.53125 C 15.4375 -28.53125 18.09375 -27.945312 20.375 -26.78125 C 22.664062 -25.625 24.429688 -23.957031 25.671875 -21.78125 C 26.921875 -19.601562 27.546875 -17.066406 27.546875 -14.171875 C 27.546875 -11.265625 26.921875 -8.742188 25.671875 -6.609375 C 24.429688 -4.472656 22.664062 -2.835938 20.375 -1.703125 C 18.09375 -0.566406 15.4375 0 12.40625 0 L 3.078125 0 L 3.078125 -28.53125 Z M 12.40625 -3.8125 C 15.738281 -3.8125 18.296875 -4.710938 20.078125 -6.515625 C 21.859375 -8.328125 22.75 -10.878906 22.75 -14.171875 C 22.75 -17.484375 21.859375 -20.066406 20.078125 -21.921875 C 18.296875 -23.785156 15.738281 -24.71875 12.40625 -24.71875 L 7.765625 -24.71875 L 7.765625 -3.8125 Z M 12.40625 -3.8125 "/></g></g></g><g fill="#000000" fill-opacity="1"><g transform="translate(107.79907, 106.964753)"><g><path d="M 7.765625 -19.34375 C 8.441406 -20.488281 9.347656 -21.382812 10.484375 -22.03125 C 11.628906 -22.675781 12.976562 -23 14.53125 -23 L 14.53125 -18.15625 L 13.34375 -18.15625 C 11.507812 -18.15625 10.117188 -17.6875 9.171875 -16.75 C 8.234375 -15.820312 7.765625 -14.207031 7.765625 -11.90625 L 7.765625 0 L 3.078125 0 L 3.078125 -22.625 L 7.765625 -22.625 Z M 7.765625 -19.34375 "/></g></g></g><g fill="#000000" fill-opacity="1"><g transform="translate(123.565527, 106.964753)"><g><path d="M 5.46875 -25.625 C 4.613281 -25.625 3.898438 -25.910156 3.328125 -26.484375 C 2.753906 -27.054688 2.46875 -27.769531 2.46875 -28.625 C 2.46875 -29.46875 2.753906 -30.175781 3.328125 -30.75 C 3.898438 -31.332031 4.613281 -31.625 5.46875 -31.625 C 6.28125 -31.625 6.972656 -31.332031 7.546875 -30.75 C 8.128906 -30.175781 8.421875 -29.46875 8.421875 -28.625 C 8.421875 -27.769531 8.128906 -27.054688 7.546875 -26.484375 C 6.972656 -25.910156 6.28125 -25.625 5.46875 -25.625 Z M 7.765625 -22.625 L 7.765625 0 L 3.078125 0 L 3.078125 -22.625 Z M 7.765625 -22.625 "/></g></g></g><g fill="#000000" fill-opacity="1"><g transform="translate(134.404972, 106.964753)"><g><path d="M 12.5625 -18.8125 L 8.375 -18.8125 L 8.375 0 L 3.65625 0 L 3.65625 -18.8125 L 0.984375 -18.8125 L 0.984375 -22.625 L 3.65625 -22.625 L 3.65625 -24.234375 C 3.65625 -26.828125 4.34375 -28.71875 5.71875 -29.90625 C 7.101562 -31.101562 9.273438 -31.703125 12.234375 -31.703125 L 12.234375 -27.796875 C 10.804688 -27.796875 9.804688 -27.53125 9.234375 -27 C 8.660156 -26.46875 8.375 -25.546875 8.375 -24.234375 L 8.375 -22.625 L 12.5625 -22.625 Z M 12.5625 -18.8125 "/></g></g></g><g fill="#000000" fill-opacity="1"><g transform="translate(148.036391, 106.964753)"><g><path d="M 8.546875 -18.8125 L 8.546875 -6.28125 C 8.546875 -5.4375 8.742188 -4.828125 9.140625 -4.453125 C 9.535156 -4.085938 10.210938 -3.90625 11.171875 -3.90625 L 14.046875 -3.90625 L 14.046875 0 L 10.34375 0 C 8.238281 0 6.625 -0.488281 5.5 -1.46875 C 4.375 -2.457031 3.8125 -4.0625 3.8125 -6.28125 L 3.8125 -18.8125 L 1.15625 -18.8125 L 1.15625 -22.625 L 3.8125 -22.625 L 3.8125 -28.25 L 8.546875 -28.25 L 8.546875 -22.625 L 14.046875 -22.625 L 14.046875 -18.8125 Z M 8.546875 -18.8125 "/></g></g></g><g fill="#000000" fill-opacity="1"><g transform="translate(163.310144, 106.964753)"><g><path d="M 7.765625 -30.390625 L 7.765625 0 L 3.078125 0 L 3.078125 -30.390625 Z M 7.765625 -30.390625 "/></g></g></g><g fill="#000000" fill-opacity="1"><g transform="translate(174.149589, 106.964753)"><g><path d="M 12.890625 0.375 C 10.753906 0.375 8.820312 -0.109375 7.09375 -1.078125 C 5.375 -2.054688 4.019531 -3.425781 3.03125 -5.1875 C 2.050781 -6.957031 1.5625 -9.003906 1.5625 -11.328125 C 1.5625 -13.628906 2.066406 -15.671875 3.078125 -17.453125 C 4.085938 -19.234375 5.46875 -20.601562 7.21875 -21.5625 C 8.976562 -22.519531 10.9375 -23 13.09375 -23 C 15.257812 -23 17.21875 -22.519531 18.96875 -21.5625 C 20.71875 -20.601562 22.097656 -19.234375 23.109375 -17.453125 C 24.128906 -15.671875 24.640625 -13.628906 24.640625 -11.328125 C 24.640625 -9.035156 24.117188 -7 23.078125 -5.21875 C 22.035156 -3.4375 20.617188 -2.054688 18.828125 -1.078125 C 17.035156 -0.109375 15.054688 0.375 12.890625 0.375 Z M 12.890625 -3.703125 C 14.097656 -3.703125 15.226562 -3.988281 16.28125 -4.5625 C 17.332031 -5.132812 18.1875 -5.992188 18.84375 -7.140625 C 19.5 -8.296875 19.828125 -9.691406 19.828125 -11.328125 C 19.828125 -12.972656 19.507812 -14.363281 18.875 -15.5 C 18.25 -16.632812 17.414062 -17.488281 16.375 -18.0625 C 15.34375 -18.644531 14.222656 -18.9375 13.015625 -18.9375 C 11.804688 -18.9375 10.6875 -18.644531 9.65625 -18.0625 C 8.632812 -17.488281 7.820312 -16.632812 7.21875 -15.5 C 6.625 -14.363281 6.328125 -12.972656 6.328125 -11.328125 C 6.328125 -8.890625 6.945312 -7.007812 8.1875 -5.6875 C 9.4375 -4.363281 11.003906 -3.703125 12.890625 -3.703125 Z M 12.890625 -3.703125 "/></g></g></g><g fill="#000000" fill-opacity="1"><g transform="translate(200.344897, 106.964753)"><g><path d="M 1.515625 -11.328125 C 1.515625 -13.660156 1.988281 -15.707031 2.9375 -17.46875 C 3.882812 -19.238281 5.191406 -20.601562 6.859375 -21.5625 C 8.523438 -22.519531 10.441406 -23 12.609375 -23 C 15.347656 -23 17.613281 -22.347656 19.40625 -21.046875 C 21.195312 -19.742188 22.40625 -17.890625 23.03125 -15.484375 L 17.984375 -15.484375 C 17.578125 -16.609375 16.921875 -17.484375 16.015625 -18.109375 C 15.109375 -18.734375 13.972656 -19.046875 12.609375 -19.046875 C 10.691406 -19.046875 9.164062 -18.367188 8.03125 -17.015625 C 6.894531 -15.660156 6.328125 -13.765625 6.328125 -11.328125 C 6.328125 -8.890625 6.894531 -6.988281 8.03125 -5.625 C 9.164062 -4.257812 10.691406 -3.578125 12.609375 -3.578125 C 15.316406 -3.578125 17.109375 -4.765625 17.984375 -7.140625 L 23.03125 -7.140625 C 22.375 -4.847656 21.140625 -3.019531 19.328125 -1.65625 C 17.523438 -0.300781 15.285156 0.375 12.609375 0.375 C 10.441406 0.375 8.523438 -0.109375 6.859375 -1.078125 C 5.191406 -2.054688 3.882812 -3.425781 2.9375 -5.1875 C 1.988281 -6.957031 1.515625 -9.003906 1.515625 -11.328125 Z M 1.515625 -11.328125 "/></g></g></g><g fill="#000000" fill-opacity="1"><g transform="translate(224.979992, 106.964753)"><g><path d="M 12.03125 -11.296875 L 22.46875 0 L 16.140625 0 L 7.765625 -9.734375 L 7.765625 0 L 3.078125 0 L 3.078125 -30.390625 L 7.765625 -30.390625 L 7.765625 -12.734375 L 15.96875 -22.625 L 22.46875 -22.625 Z M 12.03125 -11.296875 "/></g></g></g><g fill="#000000" fill-opacity="1"><g transform="translate(247.72639, 106.964753)"><g><path d="M 4.96875 0.28125 C 4.125 0.28125 3.410156 -0.00390625 2.828125 -0.578125 C 2.253906 -1.148438 1.96875 -1.859375 1.96875 -2.703125 C 1.96875 -3.554688 2.253906 -4.269531 2.828125 -4.84375 C 3.410156 -5.414062 4.125 -5.703125 4.96875 -5.703125 C 5.789062 -5.703125 6.488281 -5.414062 7.0625 -4.84375 C 7.632812 -4.269531 7.921875 -3.554688 7.921875 -2.703125 C 7.921875 -1.859375 7.632812 -1.148438 7.0625 -0.578125 C 6.488281 -0.00390625 5.789062 0.28125 4.96875 0.28125 Z M 4.96875 0.28125 "/></g></g></g><g fill="#000000" fill-opacity="1"><g transform="translate(257.62148, 106.964753)"><g><path d="M 1.515625 -11.421875 C 1.515625 -13.691406 1.988281 -15.703125 2.9375 -17.453125 C 3.882812 -19.203125 5.171875 -20.5625 6.796875 -21.53125 C 8.421875 -22.507812 10.222656 -23 12.203125 -23 C 13.972656 -23 15.519531 -22.648438 16.84375 -21.953125 C 18.175781 -21.253906 19.238281 -20.382812 20.03125 -19.34375 L 20.03125 -22.625 L 24.765625 -22.625 L 24.765625 0 L 20.03125 0 L 20.03125 -3.359375 C 19.238281 -2.296875 18.15625 -1.40625 16.78125 -0.6875 C 15.414062 0.0195312 13.859375 0.375 12.109375 0.375 C 10.171875 0.375 8.394531 -0.125 6.78125 -1.125 C 5.164062 -2.125 3.882812 -3.519531 2.9375 -5.3125 C 1.988281 -7.101562 1.515625 -9.140625 1.515625 -11.421875 Z M 20.03125 -11.328125 C 20.03125 -12.890625 19.707031 -14.242188 19.0625 -15.390625 C 18.425781 -16.546875 17.585938 -17.425781 16.546875 -18.03125 C 15.503906 -18.632812 14.382812 -18.9375 13.1875 -18.9375 C 11.976562 -18.9375 10.851562 -18.640625 9.8125 -18.046875 C 8.769531 -17.460938 7.925781 -16.597656 7.28125 -15.453125 C 6.644531 -14.316406 6.328125 -12.972656 6.328125 -11.421875 C 6.328125 -9.859375 6.644531 -8.488281 7.28125 -7.3125 C 7.925781 -6.132812 8.773438 -5.238281 9.828125 -4.625 C 10.890625 -4.007812 12.007812 -3.703125 13.1875 -3.703125 C 14.382812 -3.703125 15.503906 -4 16.546875 -4.59375 C 17.585938 -5.195312 18.425781 -6.082031 19.0625 -7.25 C 19.707031 -8.414062 20.03125 -9.773438 20.03125 -11.328125 Z M 20.03125 -11.328125 "/></g></g></g><g fill="#000000" fill-opacity="1"><g transform="translate(285.459144, 106.964753)"><g><path d="M 5.46875 -25.625 C 4.613281 -25.625 3.898438 -25.910156 3.328125 -26.484375 C 2.753906 -27.054688 2.46875 -27.769531 2.46875 -28.625 C 2.46875 -29.46875 2.753906 -30.175781 3.328125 -30.75 C 3.898438 -31.332031 4.613281 -31.625 5.46875 -31.625 C 6.28125 -31.625 6.972656 -31.332031 7.546875 -30.75 C 8.128906 -30.175781 8.421875 -29.46875 8.421875 -28.625 C 8.421875 -27.769531 8.128906 -27.054688 7.546875 -26.484375 C 6.972656 -25.910156 6.28125 -25.625 5.46875 -25.625 Z M 7.765625 -22.625 L 7.765625 0 L 3.078125 0 L 3.078125 -22.625 Z M 7.765625 -22.625 "/></g></g></g></svg>