<svg xmlns="http://www.w3.org/2000/svg" xmlns:xlink="http://www.w3.org/1999/xlink" width="270" zoomAndPan="magnify" viewBox="0 0 202.5 37.5" height="50" preserveAspectRatio="xMidYMid meet" version="1.0"><defs><g/><clipPath id="e4eb5e3f71"><path d="M 159 4 L 164.796875 4 L 164.796875 12 L 159 12 Z M 159 4 " clip-rule="nonzero"/></clipPath><clipPath id="85c05dee88"><rect x="0" width="165" y="0" height="13"/></clipPath><clipPath id="4a7c348b92"><path d="M 2.964844 3.703125 L 16.289062 3.703125 L 16.289062 32.570312 L 2.964844 32.570312 Z M 2.964844 3.703125 " clip-rule="nonzero"/></clipPath><clipPath id="bdfb43e972"><path d="M 16.289062 26.761719 C 16.289062 30.066406 13.296875 32.742188 9.609375 32.742188 C 5.921875 32.742188 2.933594 30.066406 2.933594 26.761719 L 2.933594 9.6875 C 2.933594 6.382812 5.921875 3.703125 9.609375 3.703125 C 13.296875 3.703125 16.289062 6.382812 16.289062 9.6875 Z M 16.289062 26.761719 " clip-rule="nonzero"/></clipPath><clipPath id="4716d8cafb"><path d="M 5 0 L 44 0 L 44 37.007812 L 5 37.007812 Z M 5 0 " clip-rule="nonzero"/></clipPath></defs><g fill="#1c1678" fill-opacity="1"><g transform="translate(35.831573, 16.993421)"><g><path d="M 4.5625 -10.484375 C 5.675781 -10.484375 6.648438 -10.269531 7.484375 -9.84375 C 8.328125 -9.414062 8.976562 -8.800781 9.4375 -8 C 9.894531 -7.207031 10.125 -6.273438 10.125 -5.203125 C 10.125 -4.140625 9.894531 -3.210938 9.4375 -2.421875 C 8.976562 -1.640625 8.328125 -1.039062 7.484375 -0.625 C 6.648438 -0.207031 5.675781 0 4.5625 0 L 1.125 0 L 1.125 -10.484375 Z M 4.5625 -1.40625 C 5.789062 -1.40625 6.726562 -1.734375 7.375 -2.390625 C 8.03125 -3.054688 8.359375 -3.992188 8.359375 -5.203125 C 8.359375 -6.421875 8.03125 -7.375 7.375 -8.0625 C 6.726562 -8.75 5.789062 -9.09375 4.5625 -9.09375 L 2.859375 -9.09375 L 2.859375 -1.40625 Z M 4.5625 -1.40625 "/></g></g></g><g fill="#1c1678" fill-opacity="1"><g transform="translate(46.531565, 16.993421)"><g><path d="M 2.859375 -7.109375 C 3.109375 -7.535156 3.441406 -7.863281 3.859375 -8.09375 C 4.273438 -8.332031 4.769531 -8.453125 5.34375 -8.453125 L 5.34375 -6.671875 L 4.90625 -6.671875 C 4.226562 -6.671875 3.71875 -6.5 3.375 -6.15625 C 3.03125 -5.8125 2.859375 -5.21875 2.859375 -4.375 L 2.859375 0 L 1.125 0 L 1.125 -8.3125 L 2.859375 -8.3125 Z M 2.859375 -7.109375 "/></g></g></g><g fill="#1c1678" fill-opacity="1"><g transform="translate(52.326762, 16.993421)"><g><path d="M 2 -9.421875 C 1.695312 -9.421875 1.4375 -9.523438 1.21875 -9.734375 C 1.007812 -9.941406 0.90625 -10.203125 0.90625 -10.515625 C 0.90625 -10.828125 1.007812 -11.085938 1.21875 -11.296875 C 1.4375 -11.515625 1.695312 -11.625 2 -11.625 C 2.300781 -11.625 2.554688 -11.515625 2.765625 -11.296875 C 2.984375 -11.085938 3.09375 -10.828125 3.09375 -10.515625 C 3.09375 -10.203125 2.984375 -9.941406 2.765625 -9.734375 C 2.554688 -9.523438 2.300781 -9.421875 2 -9.421875 Z M 2.859375 -8.3125 L 2.859375 0 L 1.125 0 L 1.125 -8.3125 Z M 2.859375 -8.3125 "/></g></g></g><g fill="#1c1678" fill-opacity="1"><g transform="translate(56.310966, 16.993421)"><g><path d="M 4.625 -6.90625 L 3.078125 -6.90625 L 3.078125 0 L 1.34375 0 L 1.34375 -6.90625 L 0.359375 -6.90625 L 0.359375 -8.3125 L 1.34375 -8.3125 L 1.34375 -8.90625 C 1.34375 -9.863281 1.597656 -10.5625 2.109375 -11 C 2.617188 -11.4375 3.414062 -11.65625 4.5 -11.65625 L 4.5 -10.21875 C 3.976562 -10.21875 3.609375 -10.117188 3.390625 -9.921875 C 3.179688 -9.722656 3.078125 -9.382812 3.078125 -8.90625 L 3.078125 -8.3125 L 4.625 -8.3125 Z M 4.625 -6.90625 "/></g></g></g><g fill="#1c1678" fill-opacity="1"><g transform="translate(61.3214, 16.993421)"><g><path d="M 3.140625 -6.90625 L 3.140625 -2.3125 C 3.140625 -2 3.210938 -1.773438 3.359375 -1.640625 C 3.503906 -1.503906 3.753906 -1.4375 4.109375 -1.4375 L 5.15625 -1.4375 L 5.15625 0 L 3.796875 0 C 3.023438 0 2.429688 -0.179688 2.015625 -0.546875 C 1.609375 -0.910156 1.40625 -1.5 1.40625 -2.3125 L 1.40625 -6.90625 L 0.421875 -6.90625 L 0.421875 -8.3125 L 1.40625 -8.3125 L 1.40625 -10.390625 L 3.140625 -10.390625 L 3.140625 -8.3125 L 5.15625 -8.3125 L 5.15625 -6.90625 Z M 3.140625 -6.90625 "/></g></g></g><g fill="#1c1678" fill-opacity="1"><g transform="translate(66.935495, 16.993421)"><g><path d="M 2.859375 -11.171875 L 2.859375 0 L 1.125 0 L 1.125 -11.171875 Z M 2.859375 -11.171875 "/></g></g></g><g fill="#1c1678" fill-opacity="1"><g transform="translate(70.919699, 16.993421)"><g><path d="M 4.734375 0.140625 C 3.953125 0.140625 3.242188 -0.0351562 2.609375 -0.390625 C 1.972656 -0.753906 1.472656 -1.257812 1.109375 -1.90625 C 0.753906 -2.5625 0.578125 -3.316406 0.578125 -4.171875 C 0.578125 -5.015625 0.757812 -5.757812 1.125 -6.40625 C 1.5 -7.0625 2.007812 -7.566406 2.65625 -7.921875 C 3.300781 -8.273438 4.019531 -8.453125 4.8125 -8.453125 C 5.601562 -8.453125 6.320312 -8.273438 6.96875 -7.921875 C 7.613281 -7.566406 8.125 -7.0625 8.5 -6.40625 C 8.875 -5.757812 9.0625 -5.015625 9.0625 -4.171875 C 9.0625 -3.316406 8.867188 -2.5625 8.484375 -1.90625 C 8.097656 -1.257812 7.578125 -0.753906 6.921875 -0.390625 C 6.265625 -0.0351562 5.535156 0.140625 4.734375 0.140625 Z M 4.734375 -1.359375 C 5.179688 -1.359375 5.597656 -1.460938 5.984375 -1.671875 C 6.367188 -1.890625 6.679688 -2.207031 6.921875 -2.625 C 7.171875 -3.050781 7.296875 -3.566406 7.296875 -4.171875 C 7.296875 -4.773438 7.175781 -5.285156 6.9375 -5.703125 C 6.707031 -6.117188 6.398438 -6.429688 6.015625 -6.640625 C 5.640625 -6.847656 5.226562 -6.953125 4.78125 -6.953125 C 4.34375 -6.953125 3.929688 -6.847656 3.546875 -6.640625 C 3.171875 -6.429688 2.875 -6.117188 2.65625 -5.703125 C 2.4375 -5.285156 2.328125 -4.773438 2.328125 -4.171875 C 2.328125 -3.273438 2.554688 -2.582031 3.015625 -2.09375 C 3.472656 -1.601562 4.046875 -1.359375 4.734375 -1.359375 Z M 4.734375 -1.359375 "/></g></g></g><g fill="#1c1678" fill-opacity="1"><g transform="translate(80.548174, 16.993421)"><g><path d="M 0.5625 -4.171875 C 0.5625 -5.023438 0.734375 -5.773438 1.078125 -6.421875 C 1.421875 -7.066406 1.898438 -7.566406 2.515625 -7.921875 C 3.128906 -8.273438 3.835938 -8.453125 4.640625 -8.453125 C 5.640625 -8.453125 6.46875 -8.210938 7.125 -7.734375 C 7.789062 -7.253906 8.238281 -6.570312 8.46875 -5.6875 L 6.609375 -5.6875 C 6.460938 -6.101562 6.222656 -6.425781 5.890625 -6.65625 C 5.554688 -6.882812 5.140625 -7 4.640625 -7 C 3.929688 -7 3.367188 -6.75 2.953125 -6.25 C 2.535156 -5.757812 2.328125 -5.066406 2.328125 -4.171875 C 2.328125 -3.273438 2.535156 -2.570312 2.953125 -2.0625 C 3.367188 -1.5625 3.929688 -1.3125 4.640625 -1.3125 C 5.628906 -1.3125 6.285156 -1.75 6.609375 -2.625 L 8.46875 -2.625 C 8.226562 -1.78125 7.773438 -1.109375 7.109375 -0.609375 C 6.441406 -0.109375 5.617188 0.140625 4.640625 0.140625 C 3.835938 0.140625 3.128906 -0.0351562 2.515625 -0.390625 C 1.898438 -0.753906 1.421875 -1.257812 1.078125 -1.90625 C 0.734375 -2.5625 0.5625 -3.316406 0.5625 -4.171875 Z M 0.5625 -4.171875 "/></g></g></g><g fill="#1c1678" fill-opacity="1"><g transform="translate(89.603176, 16.993421)"><g><path d="M 4.421875 -4.15625 L 8.25 0 L 5.9375 0 L 2.859375 -3.578125 L 2.859375 0 L 1.125 0 L 1.125 -11.171875 L 2.859375 -11.171875 L 2.859375 -4.671875 L 5.875 -8.3125 L 8.25 -8.3125 Z M 4.421875 -4.15625 "/></g></g></g><g fill="#1c1678" fill-opacity="1"><g transform="translate(97.963954, 16.993421)"><g><path d="M 1.828125 0.109375 C 1.515625 0.109375 1.25 0.00390625 1.03125 -0.203125 C 0.820312 -0.421875 0.71875 -0.6875 0.71875 -1 C 0.71875 -1.3125 0.820312 -1.570312 1.03125 -1.78125 C 1.25 -1.988281 1.515625 -2.09375 1.828125 -2.09375 C 2.128906 -2.09375 2.382812 -1.988281 2.59375 -1.78125 C 2.800781 -1.570312 2.90625 -1.3125 2.90625 -1 C 2.90625 -0.6875 2.800781 -0.421875 2.59375 -0.203125 C 2.382812 0.00390625 2.128906 0.109375 1.828125 0.109375 Z M 1.828125 0.109375 "/></g></g></g><g fill="#1c1678" fill-opacity="1"><g transform="translate(101.601041, 16.993421)"><g><path d="M 0.5625 -4.203125 C 0.5625 -5.035156 0.734375 -5.769531 1.078125 -6.40625 C 1.421875 -7.050781 1.890625 -7.550781 2.484375 -7.90625 C 3.085938 -8.269531 3.753906 -8.453125 4.484375 -8.453125 C 5.140625 -8.453125 5.707031 -8.320312 6.1875 -8.0625 C 6.675781 -7.8125 7.066406 -7.492188 7.359375 -7.109375 L 7.359375 -8.3125 L 9.109375 -8.3125 L 9.109375 0 L 7.359375 0 L 7.359375 -1.234375 C 7.066406 -0.847656 6.671875 -0.519531 6.171875 -0.25 C 5.671875 0.0078125 5.097656 0.140625 4.453125 0.140625 C 3.734375 0.140625 3.078125 -0.0390625 2.484375 -0.40625 C 1.890625 -0.78125 1.421875 -1.296875 1.078125 -1.953125 C 0.734375 -2.609375 0.5625 -3.359375 0.5625 -4.203125 Z M 7.359375 -4.171875 C 7.359375 -4.742188 7.238281 -5.238281 7 -5.65625 C 6.769531 -6.082031 6.460938 -6.40625 6.078125 -6.625 C 5.703125 -6.84375 5.289062 -6.953125 4.84375 -6.953125 C 4.40625 -6.953125 3.992188 -6.84375 3.609375 -6.625 C 3.222656 -6.414062 2.910156 -6.101562 2.671875 -5.6875 C 2.441406 -5.269531 2.328125 -4.773438 2.328125 -4.203125 C 2.328125 -3.617188 2.441406 -3.109375 2.671875 -2.671875 C 2.910156 -2.242188 3.222656 -1.914062 3.609375 -1.6875 C 4.003906 -1.46875 4.414062 -1.359375 4.84375 -1.359375 C 5.289062 -1.359375 5.703125 -1.46875 6.078125 -1.6875 C 6.460938 -1.90625 6.769531 -2.226562 7 -2.65625 C 7.238281 -3.09375 7.359375 -3.597656 7.359375 -4.171875 Z M 7.359375 -4.171875 "/></g></g></g><g fill="#1c1678" fill-opacity="1"><g transform="translate(111.833188, 16.993421)"><g><path d="M 2 -9.421875 C 1.695312 -9.421875 1.4375 -9.523438 1.21875 -9.734375 C 1.007812 -9.941406 0.90625 -10.203125 0.90625 -10.515625 C 0.90625 -10.828125 1.007812 -11.085938 1.21875 -11.296875 C 1.4375 -11.515625 1.695312 -11.625 2 -11.625 C 2.300781 -11.625 2.554688 -11.515625 2.765625 -11.296875 C 2.984375 -11.085938 3.09375 -10.828125 3.09375 -10.515625 C 3.09375 -10.203125 2.984375 -9.941406 2.765625 -9.734375 C 2.554688 -9.523438 2.300781 -9.421875 2 -9.421875 Z M 2.859375 -8.3125 L 2.859375 0 L 1.125 0 L 1.125 -8.3125 Z M 2.859375 -8.3125 "/></g></g></g><g transform="matrix(1, 0, 0, 1, 35, 21)"><g clip-path="url(#85c05dee88)"><g fill="#984ae8" fill-opacity="1"><g transform="translate(0.842139, 9.153256)"><g><path d="M 1.625 -1.796875 C 1.625 -1.535156 1.628906 -1.304688 1.640625 -1.109375 C 1.648438 -0.921875 1.660156 -0.753906 1.671875 -0.609375 C 1.679688 -0.472656 1.691406 -0.351562 1.703125 -0.25 C 1.722656 -0.15625 1.742188 -0.078125 1.765625 -0.015625 L 1.765625 0 L 0.65625 0 L 0.65625 -0.015625 C 0.675781 -0.078125 0.691406 -0.15625 0.703125 -0.25 C 0.722656 -0.351562 0.738281 -0.472656 0.75 -0.609375 C 0.769531 -0.753906 0.78125 -0.921875 0.78125 -1.109375 C 0.789062 -1.304688 0.796875 -1.535156 0.796875 -1.796875 L 0.796875 -4.796875 C 0.796875 -5.054688 0.789062 -5.285156 0.78125 -5.484375 C 0.78125 -5.679688 0.769531 -5.847656 0.75 -5.984375 C 0.738281 -6.128906 0.722656 -6.25 0.703125 -6.34375 C 0.691406 -6.445312 0.675781 -6.53125 0.65625 -6.59375 L 0.65625 -6.609375 C 0.914062 -6.609375 1.175781 -6.609375 1.4375 -6.609375 C 1.695312 -6.609375 1.945312 -6.609375 2.1875 -6.609375 C 2.4375 -6.617188 2.671875 -6.625 2.890625 -6.625 C 3.109375 -6.625 3.304688 -6.625 3.484375 -6.625 C 3.671875 -6.632812 3.820312 -6.644531 3.9375 -6.65625 C 4.0625 -6.664062 4.148438 -6.675781 4.203125 -6.6875 L 3.984375 -6.0625 C 3.878906 -6.09375 3.757812 -6.117188 3.625 -6.140625 C 3.507812 -6.160156 3.367188 -6.175781 3.203125 -6.1875 C 3.035156 -6.207031 2.84375 -6.21875 2.625 -6.21875 C 2.550781 -6.21875 2.457031 -6.210938 2.34375 -6.203125 C 2.226562 -6.203125 2.117188 -6.203125 2.015625 -6.203125 C 1.890625 -6.191406 1.757812 -6.179688 1.625 -6.171875 L 1.625 -3.859375 C 1.945312 -3.859375 2.238281 -3.863281 2.5 -3.875 C 2.769531 -3.894531 3 -3.910156 3.1875 -3.921875 C 3.40625 -3.941406 3.601562 -3.960938 3.78125 -3.984375 L 3.640625 -3.328125 C 3.410156 -3.347656 3.175781 -3.375 2.9375 -3.40625 C 2.738281 -3.425781 2.519531 -3.441406 2.28125 -3.453125 C 2.050781 -3.472656 1.832031 -3.484375 1.625 -3.484375 Z M 1.625 -1.796875 "/></g></g></g><g fill="#984ae8" fill-opacity="1"><g transform="translate(4.957746, 9.153256)"><g><path d="M 0.328125 -2.375 C 0.328125 -2.71875 0.390625 -3.035156 0.515625 -3.328125 C 0.640625 -3.628906 0.816406 -3.890625 1.046875 -4.109375 C 1.273438 -4.328125 1.539062 -4.492188 1.84375 -4.609375 C 2.15625 -4.734375 2.488281 -4.796875 2.84375 -4.796875 C 3.1875 -4.796875 3.507812 -4.738281 3.8125 -4.625 C 4.125 -4.507812 4.390625 -4.34375 4.609375 -4.125 C 4.835938 -3.914062 5.015625 -3.660156 5.140625 -3.359375 C 5.273438 -3.054688 5.34375 -2.71875 5.34375 -2.34375 C 5.34375 -2.019531 5.285156 -1.710938 5.171875 -1.421875 C 5.066406 -1.128906 4.90625 -0.867188 4.6875 -0.640625 C 4.476562 -0.421875 4.21875 -0.242188 3.90625 -0.109375 C 3.59375 0.015625 3.234375 0.078125 2.828125 0.078125 C 2.484375 0.078125 2.160156 0.0195312 1.859375 -0.09375 C 1.554688 -0.207031 1.289062 -0.367188 1.0625 -0.578125 C 0.832031 -0.785156 0.648438 -1.039062 0.515625 -1.34375 C 0.390625 -1.644531 0.328125 -1.988281 0.328125 -2.375 Z M 2.9375 -0.25 C 3.15625 -0.25 3.351562 -0.289062 3.53125 -0.375 C 3.71875 -0.46875 3.875 -0.59375 4 -0.75 C 4.132812 -0.914062 4.238281 -1.113281 4.3125 -1.34375 C 4.382812 -1.582031 4.421875 -1.847656 4.421875 -2.140625 C 4.421875 -2.472656 4.382812 -2.78125 4.3125 -3.0625 C 4.25 -3.351562 4.144531 -3.597656 4 -3.796875 C 3.863281 -4.003906 3.6875 -4.164062 3.46875 -4.28125 C 3.257812 -4.40625 3.015625 -4.46875 2.734375 -4.46875 C 2.515625 -4.46875 2.3125 -4.425781 2.125 -4.34375 C 1.945312 -4.257812 1.789062 -4.132812 1.65625 -3.96875 C 1.53125 -3.8125 1.429688 -3.613281 1.359375 -3.375 C 1.285156 -3.144531 1.25 -2.882812 1.25 -2.59375 C 1.25 -2.257812 1.28125 -1.945312 1.34375 -1.65625 C 1.414062 -1.375 1.523438 -1.128906 1.671875 -0.921875 C 1.816406 -0.710938 1.992188 -0.546875 2.203125 -0.421875 C 2.410156 -0.304688 2.65625 -0.25 2.9375 -0.25 Z M 2.9375 -0.25 "/></g></g></g><g fill="#984ae8" fill-opacity="1"><g transform="translate(10.63116, 9.153256)"><g><path d="M 0.703125 -2.921875 C 0.703125 -3.179688 0.695312 -3.40625 0.6875 -3.59375 C 0.6875 -3.789062 0.679688 -3.957031 0.671875 -4.09375 C 0.660156 -4.238281 0.644531 -4.359375 0.625 -4.453125 C 0.613281 -4.554688 0.597656 -4.640625 0.578125 -4.703125 L 0.578125 -4.71875 L 1.640625 -4.71875 L 1.640625 -4.703125 C 1.617188 -4.628906 1.597656 -4.539062 1.578125 -4.4375 C 1.554688 -4.34375 1.546875 -4.210938 1.546875 -4.046875 C 1.648438 -4.140625 1.765625 -4.234375 1.890625 -4.328125 C 2.015625 -4.421875 2.140625 -4.503906 2.265625 -4.578125 C 2.398438 -4.648438 2.53125 -4.707031 2.65625 -4.75 C 2.789062 -4.789062 2.925781 -4.8125 3.0625 -4.8125 C 3.144531 -4.8125 3.21875 -4.804688 3.28125 -4.796875 C 3.34375 -4.785156 3.398438 -4.773438 3.453125 -4.765625 C 3.503906 -4.753906 3.546875 -4.738281 3.578125 -4.71875 C 3.617188 -4.707031 3.660156 -4.691406 3.703125 -4.671875 L 3.46875 -3.796875 L 3.390625 -3.8125 C 3.359375 -3.945312 3.289062 -4.054688 3.1875 -4.140625 C 3.082031 -4.222656 2.945312 -4.265625 2.78125 -4.265625 C 2.675781 -4.265625 2.570312 -4.242188 2.46875 -4.203125 C 2.363281 -4.171875 2.257812 -4.125 2.15625 -4.0625 C 2.050781 -4.007812 1.941406 -3.941406 1.828125 -3.859375 C 1.722656 -3.773438 1.617188 -3.691406 1.515625 -3.609375 C 1.515625 -3.523438 1.515625 -3.429688 1.515625 -3.328125 C 1.515625 -3.222656 1.515625 -3.109375 1.515625 -2.984375 L 1.515625 -1.796875 C 1.515625 -1.535156 1.515625 -1.304688 1.515625 -1.109375 C 1.523438 -0.921875 1.535156 -0.753906 1.546875 -0.609375 C 1.554688 -0.472656 1.566406 -0.351562 1.578125 -0.25 C 1.597656 -0.15625 1.617188 -0.078125 1.640625 -0.015625 L 1.640625 0 L 0.578125 0 L 0.578125 -0.015625 C 0.597656 -0.078125 0.613281 -0.15625 0.625 -0.25 C 0.644531 -0.351562 0.660156 -0.472656 0.671875 -0.609375 C 0.679688 -0.753906 0.6875 -0.921875 0.6875 -1.109375 C 0.695312 -1.304688 0.703125 -1.535156 0.703125 -1.796875 Z M 0.703125 -2.921875 "/></g></g></g><g fill="#984ae8" fill-opacity="1"><g transform="translate(14.332015, 9.153256)"><g><path d="M 3.78125 -3.109375 C 3.78125 -3.304688 3.757812 -3.476562 3.71875 -3.625 C 3.675781 -3.78125 3.613281 -3.90625 3.53125 -4 C 3.457031 -4.09375 3.363281 -4.160156 3.25 -4.203125 C 3.144531 -4.253906 3.023438 -4.28125 2.890625 -4.28125 C 2.796875 -4.28125 2.691406 -4.257812 2.578125 -4.21875 C 2.460938 -4.1875 2.34375 -4.140625 2.21875 -4.078125 C 2.101562 -4.015625 1.984375 -3.941406 1.859375 -3.859375 C 1.742188 -3.773438 1.628906 -3.6875 1.515625 -3.59375 C 1.515625 -3.5 1.515625 -3.394531 1.515625 -3.28125 C 1.515625 -3.164062 1.515625 -3.046875 1.515625 -2.921875 L 1.515625 -1.796875 C 1.515625 -1.535156 1.515625 -1.304688 1.515625 -1.109375 C 1.523438 -0.921875 1.535156 -0.753906 1.546875 -0.609375 C 1.554688 -0.472656 1.566406 -0.351562 1.578125 -0.25 C 1.597656 -0.15625 1.617188 -0.078125 1.640625 -0.015625 L 1.640625 0 L 0.578125 0 L 0.578125 -0.015625 C 0.597656 -0.078125 0.613281 -0.15625 0.625 -0.25 C 0.644531 -0.351562 0.660156 -0.472656 0.671875 -0.609375 C 0.679688 -0.753906 0.6875 -0.921875 0.6875 -1.109375 C 0.695312 -1.304688 0.703125 -1.535156 0.703125 -1.796875 L 0.703125 -2.921875 C 0.703125 -3.179688 0.695312 -3.40625 0.6875 -3.59375 C 0.6875 -3.789062 0.679688 -3.957031 0.671875 -4.09375 C 0.660156 -4.238281 0.644531 -4.359375 0.625 -4.453125 C 0.613281 -4.554688 0.597656 -4.640625 0.578125 -4.703125 L 0.578125 -4.71875 L 1.640625 -4.71875 L 1.640625 -4.703125 C 1.617188 -4.628906 1.597656 -4.535156 1.578125 -4.421875 C 1.566406 -4.316406 1.554688 -4.179688 1.546875 -4.015625 C 1.660156 -4.117188 1.785156 -4.21875 1.921875 -4.3125 C 2.066406 -4.40625 2.210938 -4.488281 2.359375 -4.5625 C 2.515625 -4.632812 2.664062 -4.691406 2.8125 -4.734375 C 2.96875 -4.785156 3.117188 -4.8125 3.265625 -4.8125 C 3.441406 -4.8125 3.597656 -4.785156 3.734375 -4.734375 C 3.867188 -4.691406 3.984375 -4.628906 4.078125 -4.546875 C 4.179688 -4.472656 4.269531 -4.378906 4.34375 -4.265625 C 4.414062 -4.160156 4.46875 -4.046875 4.5 -3.921875 C 4.625 -4.035156 4.757812 -4.144531 4.90625 -4.25 C 5.0625 -4.351562 5.21875 -4.445312 5.375 -4.53125 C 5.53125 -4.613281 5.691406 -4.679688 5.859375 -4.734375 C 6.023438 -4.785156 6.1875 -4.8125 6.34375 -4.8125 C 6.582031 -4.8125 6.785156 -4.769531 6.953125 -4.6875 C 7.117188 -4.601562 7.253906 -4.492188 7.359375 -4.359375 C 7.460938 -4.222656 7.535156 -4.066406 7.578125 -3.890625 C 7.628906 -3.722656 7.65625 -3.550781 7.65625 -3.375 L 7.65625 -1.796875 C 7.65625 -1.535156 7.660156 -1.304688 7.671875 -1.109375 C 7.679688 -0.921875 7.691406 -0.753906 7.703125 -0.609375 C 7.710938 -0.472656 7.722656 -0.351562 7.734375 -0.25 C 7.753906 -0.15625 7.773438 -0.078125 7.796875 -0.015625 L 7.796875 0 L 6.734375 0 L 6.734375 -0.015625 C 6.742188 -0.078125 6.757812 -0.15625 6.78125 -0.25 C 6.800781 -0.351562 6.816406 -0.472656 6.828125 -0.609375 C 6.835938 -0.753906 6.84375 -0.921875 6.84375 -1.109375 C 6.851562 -1.304688 6.859375 -1.535156 6.859375 -1.796875 L 6.859375 -3.109375 C 6.859375 -3.515625 6.773438 -3.8125 6.609375 -4 C 6.453125 -4.1875 6.238281 -4.28125 5.96875 -4.28125 C 5.863281 -4.28125 5.753906 -4.257812 5.640625 -4.21875 C 5.523438 -4.1875 5.40625 -4.140625 5.28125 -4.078125 C 5.164062 -4.015625 5.046875 -3.941406 4.921875 -3.859375 C 4.796875 -3.773438 4.679688 -3.679688 4.578125 -3.578125 C 4.578125 -3.546875 4.578125 -3.507812 4.578125 -3.46875 C 4.578125 -3.4375 4.578125 -3.40625 4.578125 -3.375 L 4.578125 -1.796875 C 4.578125 -1.535156 4.582031 -1.304688 4.59375 -1.109375 C 4.601562 -0.921875 4.613281 -0.753906 4.625 -0.609375 C 4.632812 -0.472656 4.644531 -0.351562 4.65625 -0.25 C 4.675781 -0.15625 4.695312 -0.078125 4.71875 -0.015625 L 4.71875 0 L 3.65625 0 L 3.65625 -0.015625 C 3.675781 -0.078125 3.691406 -0.15625 3.703125 -0.25 C 3.722656 -0.351562 3.738281 -0.472656 3.75 -0.609375 C 3.757812 -0.753906 3.765625 -0.921875 3.765625 -1.109375 C 3.773438 -1.304688 3.78125 -1.535156 3.78125 -1.796875 Z M 3.78125 -3.109375 "/></g></g></g><g fill="#984ae8" fill-opacity="1"><g transform="translate(22.673915, 9.153256)"><g><path d="M 0.34375 -1.359375 C 0.34375 -1.597656 0.390625 -1.804688 0.484375 -1.984375 C 0.585938 -2.171875 0.722656 -2.328125 0.890625 -2.453125 C 1.054688 -2.578125 1.242188 -2.675781 1.453125 -2.75 C 1.671875 -2.832031 1.890625 -2.894531 2.109375 -2.9375 C 2.335938 -2.976562 2.5625 -3.007812 2.78125 -3.03125 C 3.007812 -3.050781 3.210938 -3.0625 3.390625 -3.0625 L 3.390625 -3.296875 C 3.390625 -3.492188 3.363281 -3.664062 3.3125 -3.8125 C 3.257812 -3.96875 3.1875 -4.09375 3.09375 -4.1875 C 3 -4.28125 2.882812 -4.347656 2.75 -4.390625 C 2.613281 -4.441406 2.46875 -4.46875 2.3125 -4.46875 C 2.195312 -4.46875 2.085938 -4.457031 1.984375 -4.4375 C 1.878906 -4.425781 1.769531 -4.398438 1.65625 -4.359375 C 1.539062 -4.316406 1.414062 -4.253906 1.28125 -4.171875 C 1.15625 -4.097656 1.019531 -4.007812 0.875 -3.90625 L 0.828125 -3.921875 L 1.140625 -4.578125 C 1.242188 -4.617188 1.34375 -4.65625 1.4375 -4.6875 C 1.539062 -4.71875 1.640625 -4.738281 1.734375 -4.75 C 1.835938 -4.769531 1.941406 -4.785156 2.046875 -4.796875 C 2.160156 -4.804688 2.273438 -4.8125 2.390625 -4.8125 C 2.710938 -4.8125 2.988281 -4.769531 3.21875 -4.6875 C 3.445312 -4.613281 3.632812 -4.507812 3.78125 -4.375 C 3.925781 -4.238281 4.03125 -4.078125 4.09375 -3.890625 C 4.164062 -3.710938 4.203125 -3.515625 4.203125 -3.296875 L 4.203125 -1.796875 C 4.203125 -1.535156 4.203125 -1.304688 4.203125 -1.109375 C 4.210938 -0.921875 4.222656 -0.753906 4.234375 -0.609375 C 4.242188 -0.472656 4.253906 -0.351562 4.265625 -0.25 C 4.285156 -0.15625 4.304688 -0.078125 4.328125 -0.015625 L 4.328125 0 L 3.3125 0 L 3.3125 -0.015625 C 3.332031 -0.0664062 3.34375 -0.125 3.34375 -0.1875 C 3.351562 -0.25 3.363281 -0.320312 3.375 -0.40625 C 3.300781 -0.351562 3.222656 -0.296875 3.140625 -0.234375 C 3.054688 -0.171875 2.957031 -0.113281 2.84375 -0.0625 C 2.726562 -0.0195312 2.601562 0.0078125 2.46875 0.03125 C 2.332031 0.0625 2.179688 0.078125 2.015625 0.078125 C 1.484375 0.078125 1.070312 -0.046875 0.78125 -0.296875 C 0.488281 -0.546875 0.34375 -0.898438 0.34375 -1.359375 Z M 3.390625 -2.703125 C 3.117188 -2.703125 2.851562 -2.6875 2.59375 -2.65625 C 2.332031 -2.625 2.101562 -2.5625 1.90625 -2.46875 C 1.707031 -2.375 1.546875 -2.238281 1.421875 -2.0625 C 1.304688 -1.894531 1.25 -1.671875 1.25 -1.390625 C 1.25 -1.035156 1.335938 -0.757812 1.515625 -0.5625 C 1.703125 -0.375 1.957031 -0.28125 2.28125 -0.28125 C 2.425781 -0.28125 2.554688 -0.300781 2.671875 -0.34375 C 2.796875 -0.382812 2.90625 -0.4375 3 -0.5 C 3.09375 -0.5625 3.171875 -0.628906 3.234375 -0.703125 C 3.304688 -0.773438 3.359375 -0.847656 3.390625 -0.921875 C 3.390625 -1.035156 3.390625 -1.164062 3.390625 -1.3125 C 3.390625 -1.457031 3.390625 -1.617188 3.390625 -1.796875 Z M 3.390625 -2.703125 "/></g></g></g><g fill="#984ae8" fill-opacity="1"><g transform="translate(27.554618, 9.153256)"><g><path d="M 0.734375 -5.09375 C 0.734375 -5.351562 0.726562 -5.578125 0.71875 -5.765625 C 0.71875 -5.960938 0.710938 -6.128906 0.703125 -6.265625 C 0.691406 -6.410156 0.675781 -6.53125 0.65625 -6.625 C 0.632812 -6.726562 0.617188 -6.8125 0.609375 -6.875 L 0.609375 -6.890625 L 1.671875 -6.890625 L 1.671875 -6.875 C 1.648438 -6.8125 1.628906 -6.726562 1.609375 -6.625 C 1.597656 -6.53125 1.585938 -6.410156 1.578125 -6.265625 C 1.566406 -6.128906 1.554688 -5.960938 1.546875 -5.765625 C 1.546875 -5.578125 1.546875 -5.351562 1.546875 -5.09375 L 1.546875 -1.796875 C 1.546875 -1.535156 1.546875 -1.304688 1.546875 -1.109375 C 1.554688 -0.921875 1.566406 -0.753906 1.578125 -0.609375 C 1.585938 -0.472656 1.597656 -0.351562 1.609375 -0.25 C 1.628906 -0.15625 1.648438 -0.078125 1.671875 -0.015625 L 1.671875 0 L 0.609375 0 L 0.609375 -0.015625 C 0.617188 -0.078125 0.632812 -0.15625 0.65625 -0.25 C 0.675781 -0.351562 0.691406 -0.472656 0.703125 -0.609375 C 0.710938 -0.753906 0.71875 -0.921875 0.71875 -1.109375 C 0.726562 -1.304688 0.734375 -1.535156 0.734375 -1.796875 Z M 0.734375 -5.09375 "/></g></g></g><g fill="#984ae8" fill-opacity="1"><g transform="translate(29.831358, 9.153256)"><g/></g></g><g fill="#984ae8" fill-opacity="1"><g transform="translate(32.661152, 9.153256)"><g><path d="M 1.078125 -6.609375 L 1.078125 -6.59375 C 1.066406 -6.570312 1.0625 -6.546875 1.0625 -6.515625 C 1.0625 -6.484375 1.0625 -6.457031 1.0625 -6.4375 C 1.0625 -6.34375 1.070312 -6.238281 1.09375 -6.125 C 1.125 -6.007812 1.175781 -5.863281 1.25 -5.6875 L 3.28125 -1.09375 L 5.265625 -5.65625 C 5.304688 -5.769531 5.351562 -5.894531 5.40625 -6.03125 C 5.457031 -6.164062 5.484375 -6.300781 5.484375 -6.4375 C 5.484375 -6.476562 5.476562 -6.507812 5.46875 -6.53125 C 5.46875 -6.5625 5.460938 -6.582031 5.453125 -6.59375 L 5.453125 -6.609375 L 6.40625 -6.609375 L 6.40625 -6.59375 C 6.34375 -6.53125 6.269531 -6.421875 6.1875 -6.265625 C 6.101562 -6.117188 6.015625 -5.9375 5.921875 -5.71875 L 3.28125 0.140625 L 2.90625 0.140625 L 0.40625 -5.5 C 0.34375 -5.625 0.28125 -5.75 0.21875 -5.875 C 0.15625 -6 0.0976562 -6.109375 0.046875 -6.203125 C -0.00390625 -6.304688 -0.0507812 -6.390625 -0.09375 -6.453125 C -0.144531 -6.523438 -0.175781 -6.570312 -0.1875 -6.59375 L -0.1875 -6.609375 Z M 1.078125 -6.609375 "/></g></g></g><g fill="#984ae8" fill-opacity="1"><g transform="translate(38.495819, 9.153256)"><g><path d="M 2.78125 0.078125 C 2.4375 0.078125 2.113281 0.0234375 1.8125 -0.078125 C 1.519531 -0.179688 1.257812 -0.335938 1.03125 -0.546875 C 0.8125 -0.753906 0.640625 -1.007812 0.515625 -1.3125 C 0.390625 -1.625 0.328125 -1.976562 0.328125 -2.375 C 0.328125 -2.71875 0.382812 -3.035156 0.5 -3.328125 C 0.613281 -3.628906 0.773438 -3.890625 0.984375 -4.109375 C 1.191406 -4.328125 1.429688 -4.492188 1.703125 -4.609375 C 1.972656 -4.734375 2.269531 -4.796875 2.59375 -4.796875 C 2.90625 -4.796875 3.195312 -4.738281 3.46875 -4.625 C 3.738281 -4.519531 3.972656 -4.363281 4.171875 -4.15625 C 4.367188 -3.957031 4.523438 -3.703125 4.640625 -3.390625 C 4.753906 -3.085938 4.816406 -2.738281 4.828125 -2.34375 C 4.484375 -2.351562 4.132812 -2.359375 3.78125 -2.359375 C 3.4375 -2.367188 3.078125 -2.375 2.703125 -2.375 C 2.441406 -2.375 2.179688 -2.367188 1.921875 -2.359375 C 1.671875 -2.359375 1.445312 -2.351562 1.25 -2.34375 C 1.257812 -2.03125 1.304688 -1.742188 1.390625 -1.484375 C 1.472656 -1.222656 1.582031 -1 1.71875 -0.8125 C 1.863281 -0.632812 2.039062 -0.492188 2.25 -0.390625 C 2.457031 -0.296875 2.6875 -0.25 2.9375 -0.25 C 3.125 -0.25 3.296875 -0.269531 3.453125 -0.3125 C 3.609375 -0.351562 3.75 -0.410156 3.875 -0.484375 C 4.007812 -0.554688 4.125 -0.644531 4.21875 -0.75 C 4.320312 -0.851562 4.410156 -0.960938 4.484375 -1.078125 L 4.53125 -1.046875 L 4.203125 -0.21875 C 4.035156 -0.132812 3.835938 -0.0625 3.609375 0 C 3.378906 0.0507812 3.101562 0.078125 2.78125 0.078125 Z M 2.15625 -2.734375 C 2.46875 -2.734375 2.773438 -2.734375 3.078125 -2.734375 C 3.390625 -2.734375 3.671875 -2.738281 3.921875 -2.75 C 3.898438 -3.007812 3.847656 -3.242188 3.765625 -3.453125 C 3.691406 -3.671875 3.59375 -3.851562 3.46875 -4 C 3.351562 -4.144531 3.210938 -4.257812 3.046875 -4.34375 C 2.890625 -4.425781 2.710938 -4.46875 2.515625 -4.46875 C 2.335938 -4.46875 2.171875 -4.425781 2.015625 -4.34375 C 1.867188 -4.269531 1.738281 -4.15625 1.625 -4 C 1.519531 -3.851562 1.429688 -3.671875 1.359375 -3.453125 C 1.296875 -3.242188 1.257812 -3.003906 1.25 -2.734375 C 1.382812 -2.734375 1.523438 -2.734375 1.671875 -2.734375 C 1.828125 -2.734375 1.988281 -2.734375 2.15625 -2.734375 Z M 2.15625 -2.734375 "/></g></g></g><g fill="#984ae8" fill-opacity="1"><g transform="translate(43.611571, 9.153256)"><g><path d="M 0.703125 -2.921875 C 0.703125 -3.179688 0.695312 -3.40625 0.6875 -3.59375 C 0.6875 -3.789062 0.679688 -3.957031 0.671875 -4.09375 C 0.660156 -4.238281 0.644531 -4.359375 0.625 -4.453125 C 0.613281 -4.554688 0.597656 -4.640625 0.578125 -4.703125 L 0.578125 -4.71875 L 1.640625 -4.71875 L 1.640625 -4.703125 C 1.617188 -4.628906 1.597656 -4.539062 1.578125 -4.4375 C 1.554688 -4.34375 1.546875 -4.210938 1.546875 -4.046875 C 1.648438 -4.140625 1.765625 -4.234375 1.890625 -4.328125 C 2.015625 -4.421875 2.140625 -4.503906 2.265625 -4.578125 C 2.398438 -4.648438 2.53125 -4.707031 2.65625 -4.75 C 2.789062 -4.789062 2.925781 -4.8125 3.0625 -4.8125 C 3.144531 -4.8125 3.21875 -4.804688 3.28125 -4.796875 C 3.34375 -4.785156 3.398438 -4.773438 3.453125 -4.765625 C 3.503906 -4.753906 3.546875 -4.738281 3.578125 -4.71875 C 3.617188 -4.707031 3.660156 -4.691406 3.703125 -4.671875 L 3.46875 -3.796875 L 3.390625 -3.8125 C 3.359375 -3.945312 3.289062 -4.054688 3.1875 -4.140625 C 3.082031 -4.222656 2.945312 -4.265625 2.78125 -4.265625 C 2.675781 -4.265625 2.570312 -4.242188 2.46875 -4.203125 C 2.363281 -4.171875 2.257812 -4.125 2.15625 -4.0625 C 2.050781 -4.007812 1.941406 -3.941406 1.828125 -3.859375 C 1.722656 -3.773438 1.617188 -3.691406 1.515625 -3.609375 C 1.515625 -3.523438 1.515625 -3.429688 1.515625 -3.328125 C 1.515625 -3.222656 1.515625 -3.109375 1.515625 -2.984375 L 1.515625 -1.796875 C 1.515625 -1.535156 1.515625 -1.304688 1.515625 -1.109375 C 1.523438 -0.921875 1.535156 -0.753906 1.546875 -0.609375 C 1.554688 -0.472656 1.566406 -0.351562 1.578125 -0.25 C 1.597656 -0.15625 1.617188 -0.078125 1.640625 -0.015625 L 1.640625 0 L 0.578125 0 L 0.578125 -0.015625 C 0.597656 -0.078125 0.613281 -0.15625 0.625 -0.25 C 0.644531 -0.351562 0.660156 -0.472656 0.671875 -0.609375 C 0.679688 -0.753906 0.6875 -0.921875 0.6875 -1.109375 C 0.695312 -1.304688 0.703125 -1.535156 0.703125 -1.796875 Z M 0.703125 -2.921875 "/></g></g></g><g fill="#984ae8" fill-opacity="1"><g transform="translate(47.312425, 9.153256)"><g><path d="M 0.734375 -2.921875 C 0.734375 -3.179688 0.726562 -3.40625 0.71875 -3.59375 C 0.71875 -3.789062 0.710938 -3.957031 0.703125 -4.09375 C 0.691406 -4.238281 0.675781 -4.359375 0.65625 -4.453125 C 0.632812 -4.554688 0.617188 -4.640625 0.609375 -4.703125 L 0.609375 -4.71875 L 1.671875 -4.71875 L 1.671875 -4.703125 C 1.648438 -4.640625 1.628906 -4.554688 1.609375 -4.453125 C 1.597656 -4.359375 1.585938 -4.238281 1.578125 -4.09375 C 1.566406 -3.957031 1.554688 -3.789062 1.546875 -3.59375 C 1.546875 -3.40625 1.546875 -3.179688 1.546875 -2.921875 L 1.546875 -1.796875 C 1.546875 -1.535156 1.546875 -1.304688 1.546875 -1.109375 C 1.554688 -0.921875 1.566406 -0.753906 1.578125 -0.609375 C 1.585938 -0.472656 1.597656 -0.351562 1.609375 -0.25 C 1.628906 -0.15625 1.648438 -0.078125 1.671875 -0.015625 L 1.671875 0 L 0.609375 0 L 0.609375 -0.015625 C 0.617188 -0.078125 0.632812 -0.15625 0.65625 -0.25 C 0.675781 -0.351562 0.691406 -0.472656 0.703125 -0.609375 C 0.710938 -0.753906 0.71875 -0.921875 0.71875 -1.109375 C 0.726562 -1.304688 0.734375 -1.535156 0.734375 -1.796875 Z M 0.640625 -6.109375 C 0.640625 -6.179688 0.648438 -6.242188 0.671875 -6.296875 C 0.703125 -6.359375 0.738281 -6.410156 0.78125 -6.453125 C 0.820312 -6.503906 0.875 -6.539062 0.9375 -6.5625 C 1 -6.59375 1.066406 -6.609375 1.140625 -6.609375 C 1.203125 -6.609375 1.265625 -6.59375 1.328125 -6.5625 C 1.390625 -6.539062 1.441406 -6.503906 1.484375 -6.453125 C 1.523438 -6.410156 1.554688 -6.359375 1.578125 -6.296875 C 1.609375 -6.242188 1.625 -6.179688 1.625 -6.109375 C 1.625 -5.972656 1.578125 -5.859375 1.484375 -5.765625 C 1.390625 -5.671875 1.273438 -5.625 1.140625 -5.625 C 1.066406 -5.625 1 -5.632812 0.9375 -5.65625 C 0.875 -5.6875 0.820312 -5.722656 0.78125 -5.765625 C 0.738281 -5.804688 0.703125 -5.859375 0.671875 -5.921875 C 0.648438 -5.984375 0.640625 -6.046875 0.640625 -6.109375 Z M 0.640625 -6.109375 "/></g></g></g><g fill="#984ae8" fill-opacity="1"><g transform="translate(49.589164, 9.153256)"><g><path d="M 2.421875 -6.59375 C 2.335938 -6.59375 2.25 -6.578125 2.15625 -6.546875 C 2.070312 -6.523438 1.992188 -6.476562 1.921875 -6.40625 C 1.847656 -6.332031 1.785156 -6.226562 1.734375 -6.09375 C 1.691406 -5.96875 1.671875 -5.800781 1.671875 -5.59375 L 1.671875 -4.71875 C 1.828125 -4.71875 1.976562 -4.71875 2.125 -4.71875 C 2.269531 -4.726562 2.398438 -4.738281 2.515625 -4.75 C 2.628906 -4.757812 2.722656 -4.765625 2.796875 -4.765625 C 2.867188 -4.773438 2.925781 -4.785156 2.96875 -4.796875 L 2.875 -4.328125 C 2.769531 -4.328125 2.65625 -4.332031 2.53125 -4.34375 C 2.425781 -4.34375 2.296875 -4.34375 2.140625 -4.34375 C 1.992188 -4.351562 1.835938 -4.359375 1.671875 -4.359375 L 1.671875 -1.796875 C 1.671875 -1.535156 1.671875 -1.304688 1.671875 -1.109375 C 1.679688 -0.921875 1.691406 -0.753906 1.703125 -0.609375 C 1.710938 -0.472656 1.726562 -0.351562 1.75 -0.25 C 1.769531 -0.15625 1.785156 -0.078125 1.796875 -0.015625 L 1.796875 0 L 0.734375 0 L 0.734375 -0.015625 C 0.753906 -0.078125 0.769531 -0.15625 0.78125 -0.25 C 0.800781 -0.351562 0.816406 -0.472656 0.828125 -0.609375 C 0.835938 -0.753906 0.84375 -0.921875 0.84375 -1.109375 C 0.851562 -1.304688 0.859375 -1.535156 0.859375 -1.796875 L 0.859375 -4.359375 L 0.09375 -4.328125 L 0.09375 -4.734375 C 0.1875 -4.734375 0.296875 -4.726562 0.421875 -4.71875 C 0.554688 -4.71875 0.703125 -4.71875 0.859375 -4.71875 L 0.859375 -5.5 C 0.859375 -5.726562 0.894531 -5.929688 0.96875 -6.109375 C 1.039062 -6.296875 1.132812 -6.453125 1.25 -6.578125 C 1.375 -6.703125 1.519531 -6.796875 1.6875 -6.859375 C 1.863281 -6.929688 2.054688 -6.96875 2.265625 -6.96875 C 2.378906 -6.96875 2.484375 -6.957031 2.578125 -6.9375 C 2.679688 -6.925781 2.769531 -6.910156 2.84375 -6.890625 C 2.925781 -6.867188 2.992188 -6.84375 3.046875 -6.8125 C 3.109375 -6.789062 3.160156 -6.769531 3.203125 -6.75 L 3.390625 -5.96875 L 3.328125 -5.9375 C 3.285156 -6.007812 3.234375 -6.082031 3.171875 -6.15625 C 3.109375 -6.238281 3.039062 -6.3125 2.96875 -6.375 C 2.894531 -6.4375 2.8125 -6.488281 2.71875 -6.53125 C 2.632812 -6.570312 2.535156 -6.59375 2.421875 -6.59375 Z M 2.421875 -6.59375 "/></g></g></g><g fill="#984ae8" fill-opacity="1"><g transform="translate(52.607919, 9.153256)"><g><path d="M 0.734375 -2.921875 C 0.734375 -3.179688 0.726562 -3.40625 0.71875 -3.59375 C 0.71875 -3.789062 0.710938 -3.957031 0.703125 -4.09375 C 0.691406 -4.238281 0.675781 -4.359375 0.65625 -4.453125 C 0.632812 -4.554688 0.617188 -4.640625 0.609375 -4.703125 L 0.609375 -4.71875 L 1.671875 -4.71875 L 1.671875 -4.703125 C 1.648438 -4.640625 1.628906 -4.554688 1.609375 -4.453125 C 1.597656 -4.359375 1.585938 -4.238281 1.578125 -4.09375 C 1.566406 -3.957031 1.554688 -3.789062 1.546875 -3.59375 C 1.546875 -3.40625 1.546875 -3.179688 1.546875 -2.921875 L 1.546875 -1.796875 C 1.546875 -1.535156 1.546875 -1.304688 1.546875 -1.109375 C 1.554688 -0.921875 1.566406 -0.753906 1.578125 -0.609375 C 1.585938 -0.472656 1.597656 -0.351562 1.609375 -0.25 C 1.628906 -0.15625 1.648438 -0.078125 1.671875 -0.015625 L 1.671875 0 L 0.609375 0 L 0.609375 -0.015625 C 0.617188 -0.078125 0.632812 -0.15625 0.65625 -0.25 C 0.675781 -0.351562 0.691406 -0.472656 0.703125 -0.609375 C 0.710938 -0.753906 0.71875 -0.921875 0.71875 -1.109375 C 0.726562 -1.304688 0.734375 -1.535156 0.734375 -1.796875 Z M 0.640625 -6.109375 C 0.640625 -6.179688 0.648438 -6.242188 0.671875 -6.296875 C 0.703125 -6.359375 0.738281 -6.410156 0.78125 -6.453125 C 0.820312 -6.503906 0.875 -6.539062 0.9375 -6.5625 C 1 -6.59375 1.066406 -6.609375 1.140625 -6.609375 C 1.203125 -6.609375 1.265625 -6.59375 1.328125 -6.5625 C 1.390625 -6.539062 1.441406 -6.503906 1.484375 -6.453125 C 1.523438 -6.410156 1.554688 -6.359375 1.578125 -6.296875 C 1.609375 -6.242188 1.625 -6.179688 1.625 -6.109375 C 1.625 -5.972656 1.578125 -5.859375 1.484375 -5.765625 C 1.390625 -5.671875 1.273438 -5.625 1.140625 -5.625 C 1.066406 -5.625 1 -5.632812 0.9375 -5.65625 C 0.875 -5.6875 0.820312 -5.722656 0.78125 -5.765625 C 0.738281 -5.804688 0.703125 -5.859375 0.671875 -5.921875 C 0.648438 -5.984375 0.640625 -6.046875 0.640625 -6.109375 Z M 0.640625 -6.109375 "/></g></g></g><g fill="#984ae8" fill-opacity="1"><g transform="translate(54.884658, 9.153256)"><g><path d="M 4.53125 -0.984375 L 4.203125 -0.15625 C 4.117188 -0.125 4.019531 -0.09375 3.90625 -0.0625 C 3.800781 -0.03125 3.691406 -0.00390625 3.578125 0.015625 C 3.460938 0.0351562 3.347656 0.0507812 3.234375 0.0625 C 3.117188 0.0703125 3.007812 0.078125 2.90625 0.078125 C 2.53125 0.078125 2.179688 0.0234375 1.859375 -0.078125 C 1.546875 -0.191406 1.273438 -0.351562 1.046875 -0.5625 C 0.816406 -0.769531 0.640625 -1.023438 0.515625 -1.328125 C 0.390625 -1.628906 0.328125 -1.976562 0.328125 -2.375 C 0.328125 -2.71875 0.390625 -3.035156 0.515625 -3.328125 C 0.648438 -3.628906 0.835938 -3.890625 1.078125 -4.109375 C 1.316406 -4.328125 1.597656 -4.492188 1.921875 -4.609375 C 2.242188 -4.734375 2.59375 -4.796875 2.96875 -4.796875 C 3.144531 -4.796875 3.328125 -4.78125 3.515625 -4.75 C 3.710938 -4.726562 3.890625 -4.691406 4.046875 -4.640625 L 4.375 -3.859375 L 4.328125 -3.828125 C 4.242188 -3.921875 4.148438 -4.003906 4.046875 -4.078125 C 3.941406 -4.160156 3.820312 -4.226562 3.6875 -4.28125 C 3.5625 -4.34375 3.425781 -4.390625 3.28125 -4.421875 C 3.144531 -4.453125 3.003906 -4.46875 2.859375 -4.46875 C 2.617188 -4.46875 2.398438 -4.425781 2.203125 -4.34375 C 2.003906 -4.257812 1.832031 -4.132812 1.6875 -3.96875 C 1.550781 -3.8125 1.441406 -3.613281 1.359375 -3.375 C 1.285156 -3.144531 1.25 -2.882812 1.25 -2.59375 C 1.25 -2.257812 1.285156 -1.945312 1.359375 -1.65625 C 1.441406 -1.375 1.554688 -1.128906 1.703125 -0.921875 C 1.847656 -0.710938 2.035156 -0.546875 2.265625 -0.421875 C 2.492188 -0.304688 2.757812 -0.25 3.0625 -0.25 C 3.195312 -0.25 3.332031 -0.265625 3.46875 -0.296875 C 3.613281 -0.335938 3.75 -0.390625 3.875 -0.453125 C 4 -0.523438 4.113281 -0.601562 4.21875 -0.6875 C 4.320312 -0.78125 4.410156 -0.890625 4.484375 -1.015625 Z M 4.53125 -0.984375 "/></g></g></g><g fill="#984ae8" fill-opacity="1"><g transform="translate(59.650142, 9.153256)"><g><path d="M 0.34375 -1.359375 C 0.34375 -1.597656 0.390625 -1.804688 0.484375 -1.984375 C 0.585938 -2.171875 0.722656 -2.328125 0.890625 -2.453125 C 1.054688 -2.578125 1.242188 -2.675781 1.453125 -2.75 C 1.671875 -2.832031 1.890625 -2.894531 2.109375 -2.9375 C 2.335938 -2.976562 2.5625 -3.007812 2.78125 -3.03125 C 3.007812 -3.050781 3.210938 -3.0625 3.390625 -3.0625 L 3.390625 -3.296875 C 3.390625 -3.492188 3.363281 -3.664062 3.3125 -3.8125 C 3.257812 -3.96875 3.1875 -4.09375 3.09375 -4.1875 C 3 -4.28125 2.882812 -4.347656 2.75 -4.390625 C 2.613281 -4.441406 2.46875 -4.46875 2.3125 -4.46875 C 2.195312 -4.46875 2.085938 -4.457031 1.984375 -4.4375 C 1.878906 -4.425781 1.769531 -4.398438 1.65625 -4.359375 C 1.539062 -4.316406 1.414062 -4.253906 1.28125 -4.171875 C 1.15625 -4.097656 1.019531 -4.007812 0.875 -3.90625 L 0.828125 -3.921875 L 1.140625 -4.578125 C 1.242188 -4.617188 1.34375 -4.65625 1.4375 -4.6875 C 1.539062 -4.71875 1.640625 -4.738281 1.734375 -4.75 C 1.835938 -4.769531 1.941406 -4.785156 2.046875 -4.796875 C 2.160156 -4.804688 2.273438 -4.8125 2.390625 -4.8125 C 2.710938 -4.8125 2.988281 -4.769531 3.21875 -4.6875 C 3.445312 -4.613281 3.632812 -4.507812 3.78125 -4.375 C 3.925781 -4.238281 4.03125 -4.078125 4.09375 -3.890625 C 4.164062 -3.710938 4.203125 -3.515625 4.203125 -3.296875 L 4.203125 -1.796875 C 4.203125 -1.535156 4.203125 -1.304688 4.203125 -1.109375 C 4.210938 -0.921875 4.222656 -0.753906 4.234375 -0.609375 C 4.242188 -0.472656 4.253906 -0.351562 4.265625 -0.25 C 4.285156 -0.15625 4.304688 -0.078125 4.328125 -0.015625 L 4.328125 0 L 3.3125 0 L 3.3125 -0.015625 C 3.332031 -0.0664062 3.34375 -0.125 3.34375 -0.1875 C 3.351562 -0.25 3.363281 -0.320312 3.375 -0.40625 C 3.300781 -0.351562 3.222656 -0.296875 3.140625 -0.234375 C 3.054688 -0.171875 2.957031 -0.113281 2.84375 -0.0625 C 2.726562 -0.0195312 2.601562 0.0078125 2.46875 0.03125 C 2.332031 0.0625 2.179688 0.078125 2.015625 0.078125 C 1.484375 0.078125 1.070312 -0.046875 0.78125 -0.296875 C 0.488281 -0.546875 0.34375 -0.898438 0.34375 -1.359375 Z M 3.390625 -2.703125 C 3.117188 -2.703125 2.851562 -2.6875 2.59375 -2.65625 C 2.332031 -2.625 2.101562 -2.5625 1.90625 -2.46875 C 1.707031 -2.375 1.546875 -2.238281 1.421875 -2.0625 C 1.304688 -1.894531 1.25 -1.671875 1.25 -1.390625 C 1.25 -1.035156 1.335938 -0.757812 1.515625 -0.5625 C 1.703125 -0.375 1.957031 -0.28125 2.28125 -0.28125 C 2.425781 -0.28125 2.554688 -0.300781 2.671875 -0.34375 C 2.796875 -0.382812 2.90625 -0.4375 3 -0.5 C 3.09375 -0.5625 3.171875 -0.628906 3.234375 -0.703125 C 3.304688 -0.773438 3.359375 -0.847656 3.390625 -0.921875 C 3.390625 -1.035156 3.390625 -1.164062 3.390625 -1.3125 C 3.390625 -1.457031 3.390625 -1.617188 3.390625 -1.796875 Z M 3.390625 -2.703125 "/></g></g></g><g fill="#984ae8" fill-opacity="1"><g transform="translate(64.530845, 9.153256)"><g><path d="M 2.375 -0.265625 C 2.46875 -0.265625 2.554688 -0.28125 2.640625 -0.3125 C 2.734375 -0.351562 2.820312 -0.398438 2.90625 -0.453125 C 3 -0.515625 3.082031 -0.582031 3.15625 -0.65625 C 3.238281 -0.738281 3.3125 -0.820312 3.375 -0.90625 L 3.421875 -0.875 L 3.125 -0.140625 C 3.082031 -0.117188 3.035156 -0.09375 2.984375 -0.0625 C 2.929688 -0.0390625 2.867188 -0.0195312 2.796875 0 C 2.722656 0.03125 2.632812 0.0507812 2.53125 0.0625 C 2.425781 0.0820312 2.304688 0.09375 2.171875 0.09375 C 1.753906 0.09375 1.429688 -0.015625 1.203125 -0.234375 C 0.972656 -0.460938 0.859375 -0.8125 0.859375 -1.28125 L 0.859375 -4.359375 L 0.09375 -4.328125 L 0.09375 -4.734375 C 0.1875 -4.734375 0.296875 -4.726562 0.421875 -4.71875 C 0.554688 -4.71875 0.703125 -4.71875 0.859375 -4.71875 C 0.859375 -4.9375 0.851562 -5.128906 0.84375 -5.296875 C 0.84375 -5.460938 0.835938 -5.609375 0.828125 -5.734375 C 0.816406 -5.859375 0.800781 -5.960938 0.78125 -6.046875 C 0.769531 -6.128906 0.753906 -6.203125 0.734375 -6.265625 L 0.734375 -6.28125 L 1.796875 -6.28125 L 1.796875 -6.265625 C 1.785156 -6.203125 1.769531 -6.128906 1.75 -6.046875 C 1.738281 -5.960938 1.726562 -5.859375 1.71875 -5.734375 C 1.707031 -5.609375 1.695312 -5.460938 1.6875 -5.296875 C 1.675781 -5.128906 1.671875 -4.9375 1.671875 -4.71875 C 1.859375 -4.71875 2.046875 -4.71875 2.234375 -4.71875 C 2.421875 -4.726562 2.585938 -4.738281 2.734375 -4.75 C 2.890625 -4.757812 3.019531 -4.765625 3.125 -4.765625 C 3.238281 -4.773438 3.3125 -4.785156 3.34375 -4.796875 L 3.265625 -4.328125 C 3.097656 -4.328125 2.929688 -4.332031 2.765625 -4.34375 C 2.617188 -4.34375 2.445312 -4.34375 2.25 -4.34375 C 2.0625 -4.351562 1.867188 -4.359375 1.671875 -4.359375 L 1.671875 -1.1875 C 1.671875 -1 1.691406 -0.84375 1.734375 -0.71875 C 1.773438 -0.601562 1.828125 -0.507812 1.890625 -0.4375 C 1.953125 -0.375 2.023438 -0.328125 2.109375 -0.296875 C 2.203125 -0.273438 2.289062 -0.265625 2.375 -0.265625 Z M 2.375 -0.265625 "/></g></g></g><g fill="#984ae8" fill-opacity="1"><g transform="translate(68.15335, 9.153256)"><g><path d="M 0.734375 -2.921875 C 0.734375 -3.179688 0.726562 -3.40625 0.71875 -3.59375 C 0.71875 -3.789062 0.710938 -3.957031 0.703125 -4.09375 C 0.691406 -4.238281 0.675781 -4.359375 0.65625 -4.453125 C 0.632812 -4.554688 0.617188 -4.640625 0.609375 -4.703125 L 0.609375 -4.71875 L 1.671875 -4.71875 L 1.671875 -4.703125 C 1.648438 -4.640625 1.628906 -4.554688 1.609375 -4.453125 C 1.597656 -4.359375 1.585938 -4.238281 1.578125 -4.09375 C 1.566406 -3.957031 1.554688 -3.789062 1.546875 -3.59375 C 1.546875 -3.40625 1.546875 -3.179688 1.546875 -2.921875 L 1.546875 -1.796875 C 1.546875 -1.535156 1.546875 -1.304688 1.546875 -1.109375 C 1.554688 -0.921875 1.566406 -0.753906 1.578125 -0.609375 C 1.585938 -0.472656 1.597656 -0.351562 1.609375 -0.25 C 1.628906 -0.15625 1.648438 -0.078125 1.671875 -0.015625 L 1.671875 0 L 0.609375 0 L 0.609375 -0.015625 C 0.617188 -0.078125 0.632812 -0.15625 0.65625 -0.25 C 0.675781 -0.351562 0.691406 -0.472656 0.703125 -0.609375 C 0.710938 -0.753906 0.71875 -0.921875 0.71875 -1.109375 C 0.726562 -1.304688 0.734375 -1.535156 0.734375 -1.796875 Z M 0.640625 -6.109375 C 0.640625 -6.179688 0.648438 -6.242188 0.671875 -6.296875 C 0.703125 -6.359375 0.738281 -6.410156 0.78125 -6.453125 C 0.820312 -6.503906 0.875 -6.539062 0.9375 -6.5625 C 1 -6.59375 1.066406 -6.609375 1.140625 -6.609375 C 1.203125 -6.609375 1.265625 -6.59375 1.328125 -6.5625 C 1.390625 -6.539062 1.441406 -6.503906 1.484375 -6.453125 C 1.523438 -6.410156 1.554688 -6.359375 1.578125 -6.296875 C 1.609375 -6.242188 1.625 -6.179688 1.625 -6.109375 C 1.625 -5.972656 1.578125 -5.859375 1.484375 -5.765625 C 1.390625 -5.671875 1.273438 -5.625 1.140625 -5.625 C 1.066406 -5.625 1 -5.632812 0.9375 -5.65625 C 0.875 -5.6875 0.820312 -5.722656 0.78125 -5.765625 C 0.738281 -5.804688 0.703125 -5.859375 0.671875 -5.921875 C 0.648438 -5.984375 0.640625 -6.046875 0.640625 -6.109375 Z M 0.640625 -6.109375 "/></g></g></g><g fill="#984ae8" fill-opacity="1"><g transform="translate(70.43009, 9.153256)"><g><path d="M 0.328125 -2.375 C 0.328125 -2.71875 0.390625 -3.035156 0.515625 -3.328125 C 0.640625 -3.628906 0.816406 -3.890625 1.046875 -4.109375 C 1.273438 -4.328125 1.539062 -4.492188 1.84375 -4.609375 C 2.15625 -4.734375 2.488281 -4.796875 2.84375 -4.796875 C 3.1875 -4.796875 3.507812 -4.738281 3.8125 -4.625 C 4.125 -4.507812 4.390625 -4.34375 4.609375 -4.125 C 4.835938 -3.914062 5.015625 -3.660156 5.140625 -3.359375 C 5.273438 -3.054688 5.34375 -2.71875 5.34375 -2.34375 C 5.34375 -2.019531 5.285156 -1.710938 5.171875 -1.421875 C 5.066406 -1.128906 4.90625 -0.867188 4.6875 -0.640625 C 4.476562 -0.421875 4.21875 -0.242188 3.90625 -0.109375 C 3.59375 0.015625 3.234375 0.078125 2.828125 0.078125 C 2.484375 0.078125 2.160156 0.0195312 1.859375 -0.09375 C 1.554688 -0.207031 1.289062 -0.367188 1.0625 -0.578125 C 0.832031 -0.785156 0.648438 -1.039062 0.515625 -1.34375 C 0.390625 -1.644531 0.328125 -1.988281 0.328125 -2.375 Z M 2.9375 -0.25 C 3.15625 -0.25 3.351562 -0.289062 3.53125 -0.375 C 3.71875 -0.46875 3.875 -0.59375 4 -0.75 C 4.132812 -0.914062 4.238281 -1.113281 4.3125 -1.34375 C 4.382812 -1.582031 4.421875 -1.847656 4.421875 -2.140625 C 4.421875 -2.472656 4.382812 -2.78125 4.3125 -3.0625 C 4.25 -3.351562 4.144531 -3.597656 4 -3.796875 C 3.863281 -4.003906 3.6875 -4.164062 3.46875 -4.28125 C 3.257812 -4.40625 3.015625 -4.46875 2.734375 -4.46875 C 2.515625 -4.46875 2.3125 -4.425781 2.125 -4.34375 C 1.945312 -4.257812 1.789062 -4.132812 1.65625 -3.96875 C 1.53125 -3.8125 1.429688 -3.613281 1.359375 -3.375 C 1.285156 -3.144531 1.25 -2.882812 1.25 -2.59375 C 1.25 -2.257812 1.28125 -1.945312 1.34375 -1.65625 C 1.414062 -1.375 1.523438 -1.128906 1.671875 -0.921875 C 1.816406 -0.710938 1.992188 -0.546875 2.203125 -0.421875 C 2.410156 -0.304688 2.65625 -0.25 2.9375 -0.25 Z M 2.9375 -0.25 "/></g></g></g><g fill="#984ae8" fill-opacity="1"><g transform="translate(76.103504, 9.153256)"><g><path d="M 3.875 -3.109375 C 3.875 -3.515625 3.789062 -3.8125 3.625 -4 C 3.46875 -4.1875 3.253906 -4.28125 2.984375 -4.28125 C 2.878906 -4.28125 2.765625 -4.257812 2.640625 -4.21875 C 2.523438 -4.175781 2.398438 -4.117188 2.265625 -4.046875 C 2.140625 -3.984375 2.007812 -3.90625 1.875 -3.8125 C 1.75 -3.71875 1.628906 -3.617188 1.515625 -3.515625 L 1.515625 -1.796875 C 1.515625 -1.535156 1.515625 -1.304688 1.515625 -1.109375 C 1.523438 -0.921875 1.535156 -0.753906 1.546875 -0.609375 C 1.554688 -0.472656 1.566406 -0.351562 1.578125 -0.25 C 1.597656 -0.15625 1.617188 -0.078125 1.640625 -0.015625 L 1.640625 0 L 0.578125 0 L 0.578125 -0.015625 C 0.597656 -0.078125 0.613281 -0.15625 0.625 -0.25 C 0.644531 -0.351562 0.660156 -0.472656 0.671875 -0.609375 C 0.679688 -0.753906 0.6875 -0.921875 0.6875 -1.109375 C 0.695312 -1.304688 0.703125 -1.535156 0.703125 -1.796875 L 0.703125 -2.921875 C 0.703125 -3.179688 0.695312 -3.40625 0.6875 -3.59375 C 0.6875 -3.789062 0.679688 -3.957031 0.671875 -4.09375 C 0.660156 -4.238281 0.644531 -4.359375 0.625 -4.453125 C 0.613281 -4.554688 0.597656 -4.640625 0.578125 -4.703125 L 0.578125 -4.71875 L 1.640625 -4.71875 L 1.640625 -4.703125 C 1.617188 -4.617188 1.597656 -4.519531 1.578125 -4.40625 C 1.566406 -4.289062 1.554688 -4.132812 1.546875 -3.9375 C 1.671875 -4.039062 1.804688 -4.144531 1.953125 -4.25 C 2.097656 -4.363281 2.25 -4.457031 2.40625 -4.53125 C 2.5625 -4.613281 2.71875 -4.679688 2.875 -4.734375 C 3.039062 -4.785156 3.203125 -4.8125 3.359375 -4.8125 C 3.597656 -4.8125 3.800781 -4.769531 3.96875 -4.6875 C 4.132812 -4.601562 4.269531 -4.492188 4.375 -4.359375 C 4.476562 -4.222656 4.554688 -4.066406 4.609375 -3.890625 C 4.660156 -3.722656 4.6875 -3.550781 4.6875 -3.375 L 4.6875 -1.796875 C 4.6875 -1.535156 4.6875 -1.304688 4.6875 -1.109375 C 4.695312 -0.921875 4.707031 -0.753906 4.71875 -0.609375 C 4.726562 -0.472656 4.738281 -0.351562 4.75 -0.25 C 4.769531 -0.15625 4.789062 -0.078125 4.8125 -0.015625 L 4.8125 0 L 3.75 0 L 3.75 -0.015625 C 3.769531 -0.078125 3.785156 -0.15625 3.796875 -0.25 C 3.816406 -0.351562 3.832031 -0.472656 3.84375 -0.609375 C 3.851562 -0.753906 3.859375 -0.921875 3.859375 -1.109375 C 3.867188 -1.304688 3.875 -1.535156 3.875 -1.796875 Z M 3.875 -3.109375 "/></g></g></g><g fill="#984ae8" fill-opacity="1"><g transform="translate(81.46352, 9.153256)"><g/></g></g><g fill="#984ae8" fill-opacity="1"><g transform="translate(84.293314, 9.153256)"><g><path d="M 0.46875 -3.265625 C 0.46875 -3.328125 0.476562 -3.390625 0.5 -3.453125 C 0.53125 -3.515625 0.566406 -3.566406 0.609375 -3.609375 C 0.660156 -3.648438 0.710938 -3.679688 0.765625 -3.703125 C 0.828125 -3.734375 0.894531 -3.75 0.96875 -3.75 C 1.03125 -3.75 1.09375 -3.734375 1.15625 -3.703125 C 1.21875 -3.679688 1.269531 -3.648438 1.3125 -3.609375 C 1.351562 -3.566406 1.382812 -3.515625 1.40625 -3.453125 C 1.4375 -3.390625 1.453125 -3.328125 1.453125 -3.265625 C 1.453125 -3.117188 1.40625 -2.992188 1.3125 -2.890625 C 1.21875 -2.796875 1.101562 -2.75 0.96875 -2.75 C 0.894531 -2.75 0.828125 -2.757812 0.765625 -2.78125 C 0.710938 -2.8125 0.660156 -2.847656 0.609375 -2.890625 C 0.566406 -2.941406 0.53125 -3 0.5 -3.0625 C 0.476562 -3.125 0.46875 -3.191406 0.46875 -3.265625 Z M 0.46875 -3.265625 "/></g></g></g><g fill="#984ae8" fill-opacity="1"><g transform="translate(86.229004, 9.153256)"><g/></g></g><g fill="#984ae8" fill-opacity="1"><g transform="translate(89.058798, 9.153256)"><g><path d="M 3.421875 -5.5625 L 3.3125 -5.5625 C 3.289062 -5.625 3.25 -5.703125 3.1875 -5.796875 C 3.132812 -5.890625 3.066406 -5.972656 2.984375 -6.046875 C 2.898438 -6.128906 2.796875 -6.195312 2.671875 -6.25 C 2.546875 -6.300781 2.394531 -6.328125 2.21875 -6.328125 C 2.070312 -6.328125 1.941406 -6.300781 1.828125 -6.25 C 1.710938 -6.207031 1.613281 -6.144531 1.53125 -6.0625 C 1.457031 -5.976562 1.398438 -5.878906 1.359375 -5.765625 C 1.316406 -5.648438 1.296875 -5.523438 1.296875 -5.390625 C 1.296875 -5.171875 1.359375 -4.957031 1.484375 -4.75 C 1.609375 -4.550781 1.765625 -4.351562 1.953125 -4.15625 C 2.140625 -3.957031 2.34375 -3.757812 2.5625 -3.5625 C 2.78125 -3.363281 2.984375 -3.160156 3.171875 -2.953125 C 3.359375 -2.742188 3.507812 -2.519531 3.625 -2.28125 C 3.75 -2.050781 3.8125 -1.804688 3.8125 -1.546875 C 3.8125 -1.335938 3.773438 -1.132812 3.703125 -0.9375 C 3.640625 -0.738281 3.535156 -0.554688 3.390625 -0.390625 C 3.242188 -0.234375 3.054688 -0.101562 2.828125 0 C 2.609375 0.09375 2.34375 0.140625 2.03125 0.140625 C 1.851562 0.140625 1.6875 0.125 1.53125 0.09375 C 1.375 0.0625 1.226562 0.0234375 1.09375 -0.015625 C 0.957031 -0.0664062 0.835938 -0.117188 0.734375 -0.171875 C 0.628906 -0.234375 0.539062 -0.285156 0.46875 -0.328125 L 0.578125 -1.34375 L 0.6875 -1.34375 C 0.71875 -1.207031 0.769531 -1.070312 0.84375 -0.9375 C 0.925781 -0.800781 1.023438 -0.679688 1.140625 -0.578125 C 1.253906 -0.484375 1.378906 -0.40625 1.515625 -0.34375 C 1.660156 -0.289062 1.820312 -0.265625 2 -0.265625 C 2.15625 -0.265625 2.296875 -0.285156 2.421875 -0.328125 C 2.546875 -0.378906 2.648438 -0.445312 2.734375 -0.53125 C 2.828125 -0.613281 2.894531 -0.710938 2.9375 -0.828125 C 2.988281 -0.953125 3.015625 -1.082031 3.015625 -1.21875 C 3.015625 -1.40625 2.976562 -1.582031 2.90625 -1.75 C 2.84375 -1.914062 2.75 -2.070312 2.625 -2.21875 C 2.507812 -2.363281 2.378906 -2.503906 2.234375 -2.640625 C 2.085938 -2.785156 1.9375 -2.925781 1.78125 -3.0625 C 1.632812 -3.207031 1.488281 -3.351562 1.34375 -3.5 C 1.195312 -3.644531 1.066406 -3.800781 0.953125 -3.96875 C 0.835938 -4.132812 0.742188 -4.3125 0.671875 -4.5 C 0.597656 -4.695312 0.5625 -4.910156 0.5625 -5.140625 C 0.5625 -5.378906 0.609375 -5.597656 0.703125 -5.796875 C 0.796875 -5.992188 0.921875 -6.160156 1.078125 -6.296875 C 1.234375 -6.429688 1.410156 -6.535156 1.609375 -6.609375 C 1.804688 -6.691406 2.007812 -6.734375 2.21875 -6.734375 C 2.375 -6.734375 2.515625 -6.71875 2.640625 -6.6875 C 2.765625 -6.664062 2.878906 -6.632812 2.984375 -6.59375 C 3.085938 -6.5625 3.175781 -6.53125 3.25 -6.5 C 3.332031 -6.46875 3.398438 -6.441406 3.453125 -6.421875 Z M 3.421875 -5.5625 "/></g></g></g><g fill="#984ae8" fill-opacity="1"><g transform="translate(93.354185, 9.153256)"><g><path d="M 2.78125 0.078125 C 2.4375 0.078125 2.113281 0.0234375 1.8125 -0.078125 C 1.519531 -0.179688 1.257812 -0.335938 1.03125 -0.546875 C 0.8125 -0.753906 0.640625 -1.007812 0.515625 -1.3125 C 0.390625 -1.625 0.328125 -1.976562 0.328125 -2.375 C 0.328125 -2.71875 0.382812 -3.035156 0.5 -3.328125 C 0.613281 -3.628906 0.773438 -3.890625 0.984375 -4.109375 C 1.191406 -4.328125 1.429688 -4.492188 1.703125 -4.609375 C 1.972656 -4.734375 2.269531 -4.796875 2.59375 -4.796875 C 2.90625 -4.796875 3.195312 -4.738281 3.46875 -4.625 C 3.738281 -4.519531 3.972656 -4.363281 4.171875 -4.15625 C 4.367188 -3.957031 4.523438 -3.703125 4.640625 -3.390625 C 4.753906 -3.085938 4.816406 -2.738281 4.828125 -2.34375 C 4.484375 -2.351562 4.132812 -2.359375 3.78125 -2.359375 C 3.4375 -2.367188 3.078125 -2.375 2.703125 -2.375 C 2.441406 -2.375 2.179688 -2.367188 1.921875 -2.359375 C 1.671875 -2.359375 1.445312 -2.351562 1.25 -2.34375 C 1.257812 -2.03125 1.304688 -1.742188 1.390625 -1.484375 C 1.472656 -1.222656 1.582031 -1 1.71875 -0.8125 C 1.863281 -0.632812 2.039062 -0.492188 2.25 -0.390625 C 2.457031 -0.296875 2.6875 -0.25 2.9375 -0.25 C 3.125 -0.25 3.296875 -0.269531 3.453125 -0.3125 C 3.609375 -0.351562 3.75 -0.410156 3.875 -0.484375 C 4.007812 -0.554688 4.125 -0.644531 4.21875 -0.75 C 4.320312 -0.851562 4.410156 -0.960938 4.484375 -1.078125 L 4.53125 -1.046875 L 4.203125 -0.21875 C 4.035156 -0.132812 3.835938 -0.0625 3.609375 0 C 3.378906 0.0507812 3.101562 0.078125 2.78125 0.078125 Z M 2.15625 -2.734375 C 2.46875 -2.734375 2.773438 -2.734375 3.078125 -2.734375 C 3.390625 -2.734375 3.671875 -2.738281 3.921875 -2.75 C 3.898438 -3.007812 3.847656 -3.242188 3.765625 -3.453125 C 3.691406 -3.671875 3.59375 -3.851562 3.46875 -4 C 3.351562 -4.144531 3.210938 -4.257812 3.046875 -4.34375 C 2.890625 -4.425781 2.710938 -4.46875 2.515625 -4.46875 C 2.335938 -4.46875 2.171875 -4.425781 2.015625 -4.34375 C 1.867188 -4.269531 1.738281 -4.15625 1.625 -4 C 1.519531 -3.851562 1.429688 -3.671875 1.359375 -3.453125 C 1.296875 -3.242188 1.257812 -3.003906 1.25 -2.734375 C 1.382812 -2.734375 1.523438 -2.734375 1.671875 -2.734375 C 1.828125 -2.734375 1.988281 -2.734375 2.15625 -2.734375 Z M 2.15625 -2.734375 "/></g></g></g><g fill="#984ae8" fill-opacity="1"><g transform="translate(98.469937, 9.153256)"><g><path d="M 3.78125 -3.109375 C 3.78125 -3.304688 3.757812 -3.476562 3.71875 -3.625 C 3.675781 -3.78125 3.613281 -3.90625 3.53125 -4 C 3.457031 -4.09375 3.363281 -4.160156 3.25 -4.203125 C 3.144531 -4.253906 3.023438 -4.28125 2.890625 -4.28125 C 2.796875 -4.28125 2.691406 -4.257812 2.578125 -4.21875 C 2.460938 -4.1875 2.34375 -4.140625 2.21875 -4.078125 C 2.101562 -4.015625 1.984375 -3.941406 1.859375 -3.859375 C 1.742188 -3.773438 1.628906 -3.6875 1.515625 -3.59375 C 1.515625 -3.5 1.515625 -3.394531 1.515625 -3.28125 C 1.515625 -3.164062 1.515625 -3.046875 1.515625 -2.921875 L 1.515625 -1.796875 C 1.515625 -1.535156 1.515625 -1.304688 1.515625 -1.109375 C 1.523438 -0.921875 1.535156 -0.753906 1.546875 -0.609375 C 1.554688 -0.472656 1.566406 -0.351562 1.578125 -0.25 C 1.597656 -0.15625 1.617188 -0.078125 1.640625 -0.015625 L 1.640625 0 L 0.578125 0 L 0.578125 -0.015625 C 0.597656 -0.078125 0.613281 -0.15625 0.625 -0.25 C 0.644531 -0.351562 0.660156 -0.472656 0.671875 -0.609375 C 0.679688 -0.753906 0.6875 -0.921875 0.6875 -1.109375 C 0.695312 -1.304688 0.703125 -1.535156 0.703125 -1.796875 L 0.703125 -2.921875 C 0.703125 -3.179688 0.695312 -3.40625 0.6875 -3.59375 C 0.6875 -3.789062 0.679688 -3.957031 0.671875 -4.09375 C 0.660156 -4.238281 0.644531 -4.359375 0.625 -4.453125 C 0.613281 -4.554688 0.597656 -4.640625 0.578125 -4.703125 L 0.578125 -4.71875 L 1.640625 -4.71875 L 1.640625 -4.703125 C 1.617188 -4.628906 1.597656 -4.535156 1.578125 -4.421875 C 1.566406 -4.316406 1.554688 -4.179688 1.546875 -4.015625 C 1.660156 -4.117188 1.785156 -4.21875 1.921875 -4.3125 C 2.066406 -4.40625 2.210938 -4.488281 2.359375 -4.5625 C 2.515625 -4.632812 2.664062 -4.691406 2.8125 -4.734375 C 2.96875 -4.785156 3.117188 -4.8125 3.265625 -4.8125 C 3.441406 -4.8125 3.597656 -4.785156 3.734375 -4.734375 C 3.867188 -4.691406 3.984375 -4.628906 4.078125 -4.546875 C 4.179688 -4.472656 4.269531 -4.378906 4.34375 -4.265625 C 4.414062 -4.160156 4.46875 -4.046875 4.5 -3.921875 C 4.625 -4.035156 4.757812 -4.144531 4.90625 -4.25 C 5.0625 -4.351562 5.21875 -4.445312 5.375 -4.53125 C 5.53125 -4.613281 5.691406 -4.679688 5.859375 -4.734375 C 6.023438 -4.785156 6.1875 -4.8125 6.34375 -4.8125 C 6.582031 -4.8125 6.785156 -4.769531 6.953125 -4.6875 C 7.117188 -4.601562 7.253906 -4.492188 7.359375 -4.359375 C 7.460938 -4.222656 7.535156 -4.066406 7.578125 -3.890625 C 7.628906 -3.722656 7.65625 -3.550781 7.65625 -3.375 L 7.65625 -1.796875 C 7.65625 -1.535156 7.660156 -1.304688 7.671875 -1.109375 C 7.679688 -0.921875 7.691406 -0.753906 7.703125 -0.609375 C 7.710938 -0.472656 7.722656 -0.351562 7.734375 -0.25 C 7.753906 -0.15625 7.773438 -0.078125 7.796875 -0.015625 L 7.796875 0 L 6.734375 0 L 6.734375 -0.015625 C 6.742188 -0.078125 6.757812 -0.15625 6.78125 -0.25 C 6.800781 -0.351562 6.816406 -0.472656 6.828125 -0.609375 C 6.835938 -0.753906 6.84375 -0.921875 6.84375 -1.109375 C 6.851562 -1.304688 6.859375 -1.535156 6.859375 -1.796875 L 6.859375 -3.109375 C 6.859375 -3.515625 6.773438 -3.8125 6.609375 -4 C 6.453125 -4.1875 6.238281 -4.28125 5.96875 -4.28125 C 5.863281 -4.28125 5.753906 -4.257812 5.640625 -4.21875 C 5.523438 -4.1875 5.40625 -4.140625 5.28125 -4.078125 C 5.164062 -4.015625 5.046875 -3.941406 4.921875 -3.859375 C 4.796875 -3.773438 4.679688 -3.679688 4.578125 -3.578125 C 4.578125 -3.546875 4.578125 -3.507812 4.578125 -3.46875 C 4.578125 -3.4375 4.578125 -3.40625 4.578125 -3.375 L 4.578125 -1.796875 C 4.578125 -1.535156 4.582031 -1.304688 4.59375 -1.109375 C 4.601562 -0.921875 4.613281 -0.753906 4.625 -0.609375 C 4.632812 -0.472656 4.644531 -0.351562 4.65625 -0.25 C 4.675781 -0.15625 4.695312 -0.078125 4.71875 -0.015625 L 4.71875 0 L 3.65625 0 L 3.65625 -0.015625 C 3.675781 -0.078125 3.691406 -0.15625 3.703125 -0.25 C 3.722656 -0.351562 3.738281 -0.472656 3.75 -0.609375 C 3.757812 -0.753906 3.765625 -0.921875 3.765625 -1.109375 C 3.773438 -1.304688 3.78125 -1.535156 3.78125 -1.796875 Z M 3.78125 -3.109375 "/></g></g></g><g fill="#984ae8" fill-opacity="1"><g transform="translate(106.811837, 9.153256)"><g><path d="M 0.34375 -1.359375 C 0.34375 -1.597656 0.390625 -1.804688 0.484375 -1.984375 C 0.585938 -2.171875 0.722656 -2.328125 0.890625 -2.453125 C 1.054688 -2.578125 1.242188 -2.675781 1.453125 -2.75 C 1.671875 -2.832031 1.890625 -2.894531 2.109375 -2.9375 C 2.335938 -2.976562 2.5625 -3.007812 2.78125 -3.03125 C 3.007812 -3.050781 3.210938 -3.0625 3.390625 -3.0625 L 3.390625 -3.296875 C 3.390625 -3.492188 3.363281 -3.664062 3.3125 -3.8125 C 3.257812 -3.96875 3.1875 -4.09375 3.09375 -4.1875 C 3 -4.28125 2.882812 -4.347656 2.75 -4.390625 C 2.613281 -4.441406 2.46875 -4.46875 2.3125 -4.46875 C 2.195312 -4.46875 2.085938 -4.457031 1.984375 -4.4375 C 1.878906 -4.425781 1.769531 -4.398438 1.65625 -4.359375 C 1.539062 -4.316406 1.414062 -4.253906 1.28125 -4.171875 C 1.15625 -4.097656 1.019531 -4.007812 0.875 -3.90625 L 0.828125 -3.921875 L 1.140625 -4.578125 C 1.242188 -4.617188 1.34375 -4.65625 1.4375 -4.6875 C 1.539062 -4.71875 1.640625 -4.738281 1.734375 -4.75 C 1.835938 -4.769531 1.941406 -4.785156 2.046875 -4.796875 C 2.160156 -4.804688 2.273438 -4.8125 2.390625 -4.8125 C 2.710938 -4.8125 2.988281 -4.769531 3.21875 -4.6875 C 3.445312 -4.613281 3.632812 -4.507812 3.78125 -4.375 C 3.925781 -4.238281 4.03125 -4.078125 4.09375 -3.890625 C 4.164062 -3.710938 4.203125 -3.515625 4.203125 -3.296875 L 4.203125 -1.796875 C 4.203125 -1.535156 4.203125 -1.304688 4.203125 -1.109375 C 4.210938 -0.921875 4.222656 -0.753906 4.234375 -0.609375 C 4.242188 -0.472656 4.253906 -0.351562 4.265625 -0.25 C 4.285156 -0.15625 4.304688 -0.078125 4.328125 -0.015625 L 4.328125 0 L 3.3125 0 L 3.3125 -0.015625 C 3.332031 -0.0664062 3.34375 -0.125 3.34375 -0.1875 C 3.351562 -0.25 3.363281 -0.320312 3.375 -0.40625 C 3.300781 -0.351562 3.222656 -0.296875 3.140625 -0.234375 C 3.054688 -0.171875 2.957031 -0.113281 2.84375 -0.0625 C 2.726562 -0.0195312 2.601562 0.0078125 2.46875 0.03125 C 2.332031 0.0625 2.179688 0.078125 2.015625 0.078125 C 1.484375 0.078125 1.070312 -0.046875 0.78125 -0.296875 C 0.488281 -0.546875 0.34375 -0.898438 0.34375 -1.359375 Z M 3.390625 -2.703125 C 3.117188 -2.703125 2.851562 -2.6875 2.59375 -2.65625 C 2.332031 -2.625 2.101562 -2.5625 1.90625 -2.46875 C 1.707031 -2.375 1.546875 -2.238281 1.421875 -2.0625 C 1.304688 -1.894531 1.25 -1.671875 1.25 -1.390625 C 1.25 -1.035156 1.335938 -0.757812 1.515625 -0.5625 C 1.703125 -0.375 1.957031 -0.28125 2.28125 -0.28125 C 2.425781 -0.28125 2.554688 -0.300781 2.671875 -0.34375 C 2.796875 -0.382812 2.90625 -0.4375 3 -0.5 C 3.09375 -0.5625 3.171875 -0.628906 3.234375 -0.703125 C 3.304688 -0.773438 3.359375 -0.847656 3.390625 -0.921875 C 3.390625 -1.035156 3.390625 -1.164062 3.390625 -1.3125 C 3.390625 -1.457031 3.390625 -1.617188 3.390625 -1.796875 Z M 3.390625 -2.703125 "/></g></g></g><g fill="#984ae8" fill-opacity="1"><g transform="translate(111.692546, 9.153256)"><g><path d="M 3.875 -3.109375 C 3.875 -3.515625 3.789062 -3.8125 3.625 -4 C 3.46875 -4.1875 3.253906 -4.28125 2.984375 -4.28125 C 2.878906 -4.28125 2.765625 -4.257812 2.640625 -4.21875 C 2.523438 -4.175781 2.398438 -4.117188 2.265625 -4.046875 C 2.140625 -3.984375 2.007812 -3.90625 1.875 -3.8125 C 1.75 -3.71875 1.628906 -3.617188 1.515625 -3.515625 L 1.515625 -1.796875 C 1.515625 -1.535156 1.515625 -1.304688 1.515625 -1.109375 C 1.523438 -0.921875 1.535156 -0.753906 1.546875 -0.609375 C 1.554688 -0.472656 1.566406 -0.351562 1.578125 -0.25 C 1.597656 -0.15625 1.617188 -0.078125 1.640625 -0.015625 L 1.640625 0 L 0.578125 0 L 0.578125 -0.015625 C 0.597656 -0.078125 0.613281 -0.15625 0.625 -0.25 C 0.644531 -0.351562 0.660156 -0.472656 0.671875 -0.609375 C 0.679688 -0.753906 0.6875 -0.921875 0.6875 -1.109375 C 0.695312 -1.304688 0.703125 -1.535156 0.703125 -1.796875 L 0.703125 -2.921875 C 0.703125 -3.179688 0.695312 -3.40625 0.6875 -3.59375 C 0.6875 -3.789062 0.679688 -3.957031 0.671875 -4.09375 C 0.660156 -4.238281 0.644531 -4.359375 0.625 -4.453125 C 0.613281 -4.554688 0.597656 -4.640625 0.578125 -4.703125 L 0.578125 -4.71875 L 1.640625 -4.71875 L 1.640625 -4.703125 C 1.617188 -4.617188 1.597656 -4.519531 1.578125 -4.40625 C 1.566406 -4.289062 1.554688 -4.132812 1.546875 -3.9375 C 1.671875 -4.039062 1.804688 -4.144531 1.953125 -4.25 C 2.097656 -4.363281 2.25 -4.457031 2.40625 -4.53125 C 2.5625 -4.613281 2.71875 -4.679688 2.875 -4.734375 C 3.039062 -4.785156 3.203125 -4.8125 3.359375 -4.8125 C 3.597656 -4.8125 3.800781 -4.769531 3.96875 -4.6875 C 4.132812 -4.601562 4.269531 -4.492188 4.375 -4.359375 C 4.476562 -4.222656 4.554688 -4.066406 4.609375 -3.890625 C 4.660156 -3.722656 4.6875 -3.550781 4.6875 -3.375 L 4.6875 -1.796875 C 4.6875 -1.535156 4.6875 -1.304688 4.6875 -1.109375 C 4.695312 -0.921875 4.707031 -0.753906 4.71875 -0.609375 C 4.726562 -0.472656 4.738281 -0.351562 4.75 -0.25 C 4.769531 -0.15625 4.789062 -0.078125 4.8125 -0.015625 L 4.8125 0 L 3.75 0 L 3.75 -0.015625 C 3.769531 -0.078125 3.785156 -0.15625 3.796875 -0.25 C 3.816406 -0.351562 3.832031 -0.472656 3.84375 -0.609375 C 3.851562 -0.753906 3.859375 -0.921875 3.859375 -1.109375 C 3.867188 -1.304688 3.875 -1.535156 3.875 -1.796875 Z M 3.875 -3.109375 "/></g></g></g><g fill="#984ae8" fill-opacity="1"><g transform="translate(117.052557, 9.153256)"><g><path d="M 2.375 -0.265625 C 2.46875 -0.265625 2.554688 -0.28125 2.640625 -0.3125 C 2.734375 -0.351562 2.820312 -0.398438 2.90625 -0.453125 C 3 -0.515625 3.082031 -0.582031 3.15625 -0.65625 C 3.238281 -0.738281 3.3125 -0.820312 3.375 -0.90625 L 3.421875 -0.875 L 3.125 -0.140625 C 3.082031 -0.117188 3.035156 -0.09375 2.984375 -0.0625 C 2.929688 -0.0390625 2.867188 -0.0195312 2.796875 0 C 2.722656 0.03125 2.632812 0.0507812 2.53125 0.0625 C 2.425781 0.0820312 2.304688 0.09375 2.171875 0.09375 C 1.753906 0.09375 1.429688 -0.015625 1.203125 -0.234375 C 0.972656 -0.460938 0.859375 -0.8125 0.859375 -1.28125 L 0.859375 -4.359375 L 0.09375 -4.328125 L 0.09375 -4.734375 C 0.1875 -4.734375 0.296875 -4.726562 0.421875 -4.71875 C 0.554688 -4.71875 0.703125 -4.71875 0.859375 -4.71875 C 0.859375 -4.9375 0.851562 -5.128906 0.84375 -5.296875 C 0.84375 -5.460938 0.835938 -5.609375 0.828125 -5.734375 C 0.816406 -5.859375 0.800781 -5.960938 0.78125 -6.046875 C 0.769531 -6.128906 0.753906 -6.203125 0.734375 -6.265625 L 0.734375 -6.28125 L 1.796875 -6.28125 L 1.796875 -6.265625 C 1.785156 -6.203125 1.769531 -6.128906 1.75 -6.046875 C 1.738281 -5.960938 1.726562 -5.859375 1.71875 -5.734375 C 1.707031 -5.609375 1.695312 -5.460938 1.6875 -5.296875 C 1.675781 -5.128906 1.671875 -4.9375 1.671875 -4.71875 C 1.859375 -4.71875 2.046875 -4.71875 2.234375 -4.71875 C 2.421875 -4.726562 2.585938 -4.738281 2.734375 -4.75 C 2.890625 -4.757812 3.019531 -4.765625 3.125 -4.765625 C 3.238281 -4.773438 3.3125 -4.785156 3.34375 -4.796875 L 3.265625 -4.328125 C 3.097656 -4.328125 2.929688 -4.332031 2.765625 -4.34375 C 2.617188 -4.34375 2.445312 -4.34375 2.25 -4.34375 C 2.0625 -4.351562 1.867188 -4.359375 1.671875 -4.359375 L 1.671875 -1.1875 C 1.671875 -1 1.691406 -0.84375 1.734375 -0.71875 C 1.773438 -0.601562 1.828125 -0.507812 1.890625 -0.4375 C 1.953125 -0.375 2.023438 -0.328125 2.109375 -0.296875 C 2.203125 -0.273438 2.289062 -0.265625 2.375 -0.265625 Z M 2.375 -0.265625 "/></g></g></g><g fill="#984ae8" fill-opacity="1"><g transform="translate(120.675062, 9.153256)"><g><path d="M 0.734375 -2.921875 C 0.734375 -3.179688 0.726562 -3.40625 0.71875 -3.59375 C 0.71875 -3.789062 0.710938 -3.957031 0.703125 -4.09375 C 0.691406 -4.238281 0.675781 -4.359375 0.65625 -4.453125 C 0.632812 -4.554688 0.617188 -4.640625 0.609375 -4.703125 L 0.609375 -4.71875 L 1.671875 -4.71875 L 1.671875 -4.703125 C 1.648438 -4.640625 1.628906 -4.554688 1.609375 -4.453125 C 1.597656 -4.359375 1.585938 -4.238281 1.578125 -4.09375 C 1.566406 -3.957031 1.554688 -3.789062 1.546875 -3.59375 C 1.546875 -3.40625 1.546875 -3.179688 1.546875 -2.921875 L 1.546875 -1.796875 C 1.546875 -1.535156 1.546875 -1.304688 1.546875 -1.109375 C 1.554688 -0.921875 1.566406 -0.753906 1.578125 -0.609375 C 1.585938 -0.472656 1.597656 -0.351562 1.609375 -0.25 C 1.628906 -0.15625 1.648438 -0.078125 1.671875 -0.015625 L 1.671875 0 L 0.609375 0 L 0.609375 -0.015625 C 0.617188 -0.078125 0.632812 -0.15625 0.65625 -0.25 C 0.675781 -0.351562 0.691406 -0.472656 0.703125 -0.609375 C 0.710938 -0.753906 0.71875 -0.921875 0.71875 -1.109375 C 0.726562 -1.304688 0.734375 -1.535156 0.734375 -1.796875 Z M 0.640625 -6.109375 C 0.640625 -6.179688 0.648438 -6.242188 0.671875 -6.296875 C 0.703125 -6.359375 0.738281 -6.410156 0.78125 -6.453125 C 0.820312 -6.503906 0.875 -6.539062 0.9375 -6.5625 C 1 -6.59375 1.066406 -6.609375 1.140625 -6.609375 C 1.203125 -6.609375 1.265625 -6.59375 1.328125 -6.5625 C 1.390625 -6.539062 1.441406 -6.503906 1.484375 -6.453125 C 1.523438 -6.410156 1.554688 -6.359375 1.578125 -6.296875 C 1.609375 -6.242188 1.625 -6.179688 1.625 -6.109375 C 1.625 -5.972656 1.578125 -5.859375 1.484375 -5.765625 C 1.390625 -5.671875 1.273438 -5.625 1.140625 -5.625 C 1.066406 -5.625 1 -5.632812 0.9375 -5.65625 C 0.875 -5.6875 0.820312 -5.722656 0.78125 -5.765625 C 0.738281 -5.804688 0.703125 -5.859375 0.671875 -5.921875 C 0.648438 -5.984375 0.640625 -6.046875 0.640625 -6.109375 Z M 0.640625 -6.109375 "/></g></g></g><g fill="#984ae8" fill-opacity="1"><g transform="translate(122.951802, 9.153256)"><g><path d="M 4.53125 -0.984375 L 4.203125 -0.15625 C 4.117188 -0.125 4.019531 -0.09375 3.90625 -0.0625 C 3.800781 -0.03125 3.691406 -0.00390625 3.578125 0.015625 C 3.460938 0.0351562 3.347656 0.0507812 3.234375 0.0625 C 3.117188 0.0703125 3.007812 0.078125 2.90625 0.078125 C 2.53125 0.078125 2.179688 0.0234375 1.859375 -0.078125 C 1.546875 -0.191406 1.273438 -0.351562 1.046875 -0.5625 C 0.816406 -0.769531 0.640625 -1.023438 0.515625 -1.328125 C 0.390625 -1.628906 0.328125 -1.976562 0.328125 -2.375 C 0.328125 -2.71875 0.390625 -3.035156 0.515625 -3.328125 C 0.648438 -3.628906 0.835938 -3.890625 1.078125 -4.109375 C 1.316406 -4.328125 1.597656 -4.492188 1.921875 -4.609375 C 2.242188 -4.734375 2.59375 -4.796875 2.96875 -4.796875 C 3.144531 -4.796875 3.328125 -4.78125 3.515625 -4.75 C 3.710938 -4.726562 3.890625 -4.691406 4.046875 -4.640625 L 4.375 -3.859375 L 4.328125 -3.828125 C 4.242188 -3.921875 4.148438 -4.003906 4.046875 -4.078125 C 3.941406 -4.160156 3.820312 -4.226562 3.6875 -4.28125 C 3.5625 -4.34375 3.425781 -4.390625 3.28125 -4.421875 C 3.144531 -4.453125 3.003906 -4.46875 2.859375 -4.46875 C 2.617188 -4.46875 2.398438 -4.425781 2.203125 -4.34375 C 2.003906 -4.257812 1.832031 -4.132812 1.6875 -3.96875 C 1.550781 -3.8125 1.441406 -3.613281 1.359375 -3.375 C 1.285156 -3.144531 1.25 -2.882812 1.25 -2.59375 C 1.25 -2.257812 1.285156 -1.945312 1.359375 -1.65625 C 1.441406 -1.375 1.554688 -1.128906 1.703125 -0.921875 C 1.847656 -0.710938 2.035156 -0.546875 2.265625 -0.421875 C 2.492188 -0.304688 2.757812 -0.25 3.0625 -0.25 C 3.195312 -0.25 3.332031 -0.265625 3.46875 -0.296875 C 3.613281 -0.335938 3.75 -0.390625 3.875 -0.453125 C 4 -0.523438 4.113281 -0.601562 4.21875 -0.6875 C 4.320312 -0.78125 4.410156 -0.890625 4.484375 -1.015625 Z M 4.53125 -0.984375 "/></g></g></g><g fill="#984ae8" fill-opacity="1"><g transform="translate(127.717285, 9.153256)"><g/></g></g><g fill="#984ae8" fill-opacity="1"><g transform="translate(130.547079, 9.153256)"><g><path d="M 3.421875 -5.5625 L 3.3125 -5.5625 C 3.289062 -5.625 3.25 -5.703125 3.1875 -5.796875 C 3.132812 -5.890625 3.066406 -5.972656 2.984375 -6.046875 C 2.898438 -6.128906 2.796875 -6.195312 2.671875 -6.25 C 2.546875 -6.300781 2.394531 -6.328125 2.21875 -6.328125 C 2.070312 -6.328125 1.941406 -6.300781 1.828125 -6.25 C 1.710938 -6.207031 1.613281 -6.144531 1.53125 -6.0625 C 1.457031 -5.976562 1.398438 -5.878906 1.359375 -5.765625 C 1.316406 -5.648438 1.296875 -5.523438 1.296875 -5.390625 C 1.296875 -5.171875 1.359375 -4.957031 1.484375 -4.75 C 1.609375 -4.550781 1.765625 -4.351562 1.953125 -4.15625 C 2.140625 -3.957031 2.34375 -3.757812 2.5625 -3.5625 C 2.78125 -3.363281 2.984375 -3.160156 3.171875 -2.953125 C 3.359375 -2.742188 3.507812 -2.519531 3.625 -2.28125 C 3.75 -2.050781 3.8125 -1.804688 3.8125 -1.546875 C 3.8125 -1.335938 3.773438 -1.132812 3.703125 -0.9375 C 3.640625 -0.738281 3.535156 -0.554688 3.390625 -0.390625 C 3.242188 -0.234375 3.054688 -0.101562 2.828125 0 C 2.609375 0.09375 2.34375 0.140625 2.03125 0.140625 C 1.851562 0.140625 1.6875 0.125 1.53125 0.09375 C 1.375 0.0625 1.226562 0.0234375 1.09375 -0.015625 C 0.957031 -0.0664062 0.835938 -0.117188 0.734375 -0.171875 C 0.628906 -0.234375 0.539062 -0.285156 0.46875 -0.328125 L 0.578125 -1.34375 L 0.6875 -1.34375 C 0.71875 -1.207031 0.769531 -1.070312 0.84375 -0.9375 C 0.925781 -0.800781 1.023438 -0.679688 1.140625 -0.578125 C 1.253906 -0.484375 1.378906 -0.40625 1.515625 -0.34375 C 1.660156 -0.289062 1.820312 -0.265625 2 -0.265625 C 2.15625 -0.265625 2.296875 -0.285156 2.421875 -0.328125 C 2.546875 -0.378906 2.648438 -0.445312 2.734375 -0.53125 C 2.828125 -0.613281 2.894531 -0.710938 2.9375 -0.828125 C 2.988281 -0.953125 3.015625 -1.082031 3.015625 -1.21875 C 3.015625 -1.40625 2.976562 -1.582031 2.90625 -1.75 C 2.84375 -1.914062 2.75 -2.070312 2.625 -2.21875 C 2.507812 -2.363281 2.378906 -2.503906 2.234375 -2.640625 C 2.085938 -2.785156 1.9375 -2.925781 1.78125 -3.0625 C 1.632812 -3.207031 1.488281 -3.351562 1.34375 -3.5 C 1.195312 -3.644531 1.066406 -3.800781 0.953125 -3.96875 C 0.835938 -4.132812 0.742188 -4.3125 0.671875 -4.5 C 0.597656 -4.695312 0.5625 -4.910156 0.5625 -5.140625 C 0.5625 -5.378906 0.609375 -5.597656 0.703125 -5.796875 C 0.796875 -5.992188 0.921875 -6.160156 1.078125 -6.296875 C 1.234375 -6.429688 1.410156 -6.535156 1.609375 -6.609375 C 1.804688 -6.691406 2.007812 -6.734375 2.21875 -6.734375 C 2.375 -6.734375 2.515625 -6.71875 2.640625 -6.6875 C 2.765625 -6.664062 2.878906 -6.632812 2.984375 -6.59375 C 3.085938 -6.5625 3.175781 -6.53125 3.25 -6.5 C 3.332031 -6.46875 3.398438 -6.441406 3.453125 -6.421875 Z M 3.421875 -5.5625 "/></g></g></g><g fill="#984ae8" fill-opacity="1"><g transform="translate(134.842467, 9.153256)"><g><path d="M 2.375 -0.265625 C 2.46875 -0.265625 2.554688 -0.28125 2.640625 -0.3125 C 2.734375 -0.351562 2.820312 -0.398438 2.90625 -0.453125 C 3 -0.515625 3.082031 -0.582031 3.15625 -0.65625 C 3.238281 -0.738281 3.3125 -0.820312 3.375 -0.90625 L 3.421875 -0.875 L 3.125 -0.140625 C 3.082031 -0.117188 3.035156 -0.09375 2.984375 -0.0625 C 2.929688 -0.0390625 2.867188 -0.0195312 2.796875 0 C 2.722656 0.03125 2.632812 0.0507812 2.53125 0.0625 C 2.425781 0.0820312 2.304688 0.09375 2.171875 0.09375 C 1.753906 0.09375 1.429688 -0.015625 1.203125 -0.234375 C 0.972656 -0.460938 0.859375 -0.8125 0.859375 -1.28125 L 0.859375 -4.359375 L 0.09375 -4.328125 L 0.09375 -4.734375 C 0.1875 -4.734375 0.296875 -4.726562 0.421875 -4.71875 C 0.554688 -4.71875 0.703125 -4.71875 0.859375 -4.71875 C 0.859375 -4.9375 0.851562 -5.128906 0.84375 -5.296875 C 0.84375 -5.460938 0.835938 -5.609375 0.828125 -5.734375 C 0.816406 -5.859375 0.800781 -5.960938 0.78125 -6.046875 C 0.769531 -6.128906 0.753906 -6.203125 0.734375 -6.265625 L 0.734375 -6.28125 L 1.796875 -6.28125 L 1.796875 -6.265625 C 1.785156 -6.203125 1.769531 -6.128906 1.75 -6.046875 C 1.738281 -5.960938 1.726562 -5.859375 1.71875 -5.734375 C 1.707031 -5.609375 1.695312 -5.460938 1.6875 -5.296875 C 1.675781 -5.128906 1.671875 -4.9375 1.671875 -4.71875 C 1.859375 -4.71875 2.046875 -4.71875 2.234375 -4.71875 C 2.421875 -4.726562 2.585938 -4.738281 2.734375 -4.75 C 2.890625 -4.757812 3.019531 -4.765625 3.125 -4.765625 C 3.238281 -4.773438 3.3125 -4.785156 3.34375 -4.796875 L 3.265625 -4.328125 C 3.097656 -4.328125 2.929688 -4.332031 2.765625 -4.34375 C 2.617188 -4.34375 2.445312 -4.34375 2.25 -4.34375 C 2.0625 -4.351562 1.867188 -4.359375 1.671875 -4.359375 L 1.671875 -1.1875 C 1.671875 -1 1.691406 -0.84375 1.734375 -0.71875 C 1.773438 -0.601562 1.828125 -0.507812 1.890625 -0.4375 C 1.953125 -0.375 2.023438 -0.328125 2.109375 -0.296875 C 2.203125 -0.273438 2.289062 -0.265625 2.375 -0.265625 Z M 2.375 -0.265625 "/></g></g></g><g fill="#984ae8" fill-opacity="1"><g transform="translate(138.464971, 9.153256)"><g><path d="M 0.34375 -1.359375 C 0.34375 -1.597656 0.390625 -1.804688 0.484375 -1.984375 C 0.585938 -2.171875 0.722656 -2.328125 0.890625 -2.453125 C 1.054688 -2.578125 1.242188 -2.675781 1.453125 -2.75 C 1.671875 -2.832031 1.890625 -2.894531 2.109375 -2.9375 C 2.335938 -2.976562 2.5625 -3.007812 2.78125 -3.03125 C 3.007812 -3.050781 3.210938 -3.0625 3.390625 -3.0625 L 3.390625 -3.296875 C 3.390625 -3.492188 3.363281 -3.664062 3.3125 -3.8125 C 3.257812 -3.96875 3.1875 -4.09375 3.09375 -4.1875 C 3 -4.28125 2.882812 -4.347656 2.75 -4.390625 C 2.613281 -4.441406 2.46875 -4.46875 2.3125 -4.46875 C 2.195312 -4.46875 2.085938 -4.457031 1.984375 -4.4375 C 1.878906 -4.425781 1.769531 -4.398438 1.65625 -4.359375 C 1.539062 -4.316406 1.414062 -4.253906 1.28125 -4.171875 C 1.15625 -4.097656 1.019531 -4.007812 0.875 -3.90625 L 0.828125 -3.921875 L 1.140625 -4.578125 C 1.242188 -4.617188 1.34375 -4.65625 1.4375 -4.6875 C 1.539062 -4.71875 1.640625 -4.738281 1.734375 -4.75 C 1.835938 -4.769531 1.941406 -4.785156 2.046875 -4.796875 C 2.160156 -4.804688 2.273438 -4.8125 2.390625 -4.8125 C 2.710938 -4.8125 2.988281 -4.769531 3.21875 -4.6875 C 3.445312 -4.613281 3.632812 -4.507812 3.78125 -4.375 C 3.925781 -4.238281 4.03125 -4.078125 4.09375 -3.890625 C 4.164062 -3.710938 4.203125 -3.515625 4.203125 -3.296875 L 4.203125 -1.796875 C 4.203125 -1.535156 4.203125 -1.304688 4.203125 -1.109375 C 4.210938 -0.921875 4.222656 -0.753906 4.234375 -0.609375 C 4.242188 -0.472656 4.253906 -0.351562 4.265625 -0.25 C 4.285156 -0.15625 4.304688 -0.078125 4.328125 -0.015625 L 4.328125 0 L 3.3125 0 L 3.3125 -0.015625 C 3.332031 -0.0664062 3.34375 -0.125 3.34375 -0.1875 C 3.351562 -0.25 3.363281 -0.320312 3.375 -0.40625 C 3.300781 -0.351562 3.222656 -0.296875 3.140625 -0.234375 C 3.054688 -0.171875 2.957031 -0.113281 2.84375 -0.0625 C 2.726562 -0.0195312 2.601562 0.0078125 2.46875 0.03125 C 2.332031 0.0625 2.179688 0.078125 2.015625 0.078125 C 1.484375 0.078125 1.070312 -0.046875 0.78125 -0.296875 C 0.488281 -0.546875 0.34375 -0.898438 0.34375 -1.359375 Z M 3.390625 -2.703125 C 3.117188 -2.703125 2.851562 -2.6875 2.59375 -2.65625 C 2.332031 -2.625 2.101562 -2.5625 1.90625 -2.46875 C 1.707031 -2.375 1.546875 -2.238281 1.421875 -2.0625 C 1.304688 -1.894531 1.25 -1.671875 1.25 -1.390625 C 1.25 -1.035156 1.335938 -0.757812 1.515625 -0.5625 C 1.703125 -0.375 1.957031 -0.28125 2.28125 -0.28125 C 2.425781 -0.28125 2.554688 -0.300781 2.671875 -0.34375 C 2.796875 -0.382812 2.90625 -0.4375 3 -0.5 C 3.09375 -0.5625 3.171875 -0.628906 3.234375 -0.703125 C 3.304688 -0.773438 3.359375 -0.847656 3.390625 -0.921875 C 3.390625 -1.035156 3.390625 -1.164062 3.390625 -1.3125 C 3.390625 -1.457031 3.390625 -1.617188 3.390625 -1.796875 Z M 3.390625 -2.703125 "/></g></g></g><g fill="#984ae8" fill-opacity="1"><g transform="translate(143.34568, 9.153256)"><g><path d="M 1.515625 -4.484375 C 1.703125 -4.585938 1.90625 -4.664062 2.125 -4.71875 C 2.351562 -4.769531 2.582031 -4.796875 2.8125 -4.796875 C 3.15625 -4.796875 3.46875 -4.738281 3.75 -4.625 C 4.039062 -4.507812 4.289062 -4.34375 4.5 -4.125 C 4.71875 -3.914062 4.882812 -3.660156 5 -3.359375 C 5.125 -3.054688 5.1875 -2.71875 5.1875 -2.34375 C 5.1875 -2.019531 5.128906 -1.710938 5.015625 -1.421875 C 4.910156 -1.128906 4.75 -0.867188 4.53125 -0.640625 C 4.320312 -0.421875 4.054688 -0.242188 3.734375 -0.109375 C 3.410156 0.015625 3.035156 0.078125 2.609375 0.078125 C 2.566406 0.078125 2.503906 0.078125 2.421875 0.078125 C 2.335938 0.078125 2.242188 0.0703125 2.140625 0.0625 C 2.046875 0.0507812 1.941406 0.0351562 1.828125 0.015625 C 1.722656 0.00390625 1.617188 -0.0078125 1.515625 -0.03125 C 1.367188 -0.0703125 1.21875 -0.113281 1.0625 -0.15625 C 0.914062 -0.195312 0.773438 -0.242188 0.640625 -0.296875 C 0.648438 -0.335938 0.660156 -0.410156 0.671875 -0.515625 C 0.679688 -0.628906 0.6875 -0.75 0.6875 -0.875 C 0.695312 -1 0.703125 -1.117188 0.703125 -1.234375 C 0.703125 -1.359375 0.703125 -1.460938 0.703125 -1.546875 L 0.703125 -5.09375 C 0.703125 -5.351562 0.695312 -5.578125 0.6875 -5.765625 C 0.6875 -5.960938 0.679688 -6.128906 0.671875 -6.265625 C 0.660156 -6.410156 0.644531 -6.53125 0.625 -6.625 C 0.613281 -6.726562 0.597656 -6.8125 0.578125 -6.875 L 0.578125 -6.890625 L 1.640625 -6.890625 L 1.640625 -6.875 C 1.617188 -6.8125 1.597656 -6.726562 1.578125 -6.625 C 1.566406 -6.53125 1.554688 -6.410156 1.546875 -6.265625 C 1.535156 -6.128906 1.523438 -5.960938 1.515625 -5.765625 C 1.515625 -5.578125 1.515625 -5.351562 1.515625 -5.09375 Z M 1.515625 -1.609375 C 1.515625 -1.359375 1.515625 -1.148438 1.515625 -0.984375 C 1.523438 -0.828125 1.535156 -0.703125 1.546875 -0.609375 C 1.671875 -0.503906 1.84375 -0.414062 2.0625 -0.34375 C 2.28125 -0.28125 2.523438 -0.25 2.796875 -0.25 C 3.015625 -0.25 3.210938 -0.289062 3.390625 -0.375 C 3.566406 -0.46875 3.71875 -0.59375 3.84375 -0.75 C 3.976562 -0.914062 4.082031 -1.113281 4.15625 -1.34375 C 4.226562 -1.582031 4.265625 -1.847656 4.265625 -2.140625 C 4.265625 -2.472656 4.234375 -2.78125 4.171875 -3.0625 C 4.109375 -3.351562 4.015625 -3.597656 3.890625 -3.796875 C 3.765625 -4.003906 3.597656 -4.164062 3.390625 -4.28125 C 3.191406 -4.40625 2.957031 -4.46875 2.6875 -4.46875 C 2.445312 -4.46875 2.222656 -4.414062 2.015625 -4.3125 C 1.816406 -4.21875 1.648438 -4.082031 1.515625 -3.90625 Z M 1.515625 -1.609375 "/></g></g></g><g fill="#984ae8" fill-opacity="1"><g transform="translate(148.857787, 9.153256)"><g><path d="M 0.734375 -2.921875 C 0.734375 -3.179688 0.726562 -3.40625 0.71875 -3.59375 C 0.71875 -3.789062 0.710938 -3.957031 0.703125 -4.09375 C 0.691406 -4.238281 0.675781 -4.359375 0.65625 -4.453125 C 0.632812 -4.554688 0.617188 -4.640625 0.609375 -4.703125 L 0.609375 -4.71875 L 1.671875 -4.71875 L 1.671875 -4.703125 C 1.648438 -4.640625 1.628906 -4.554688 1.609375 -4.453125 C 1.597656 -4.359375 1.585938 -4.238281 1.578125 -4.09375 C 1.566406 -3.957031 1.554688 -3.789062 1.546875 -3.59375 C 1.546875 -3.40625 1.546875 -3.179688 1.546875 -2.921875 L 1.546875 -1.796875 C 1.546875 -1.535156 1.546875 -1.304688 1.546875 -1.109375 C 1.554688 -0.921875 1.566406 -0.753906 1.578125 -0.609375 C 1.585938 -0.472656 1.597656 -0.351562 1.609375 -0.25 C 1.628906 -0.15625 1.648438 -0.078125 1.671875 -0.015625 L 1.671875 0 L 0.609375 0 L 0.609375 -0.015625 C 0.617188 -0.078125 0.632812 -0.15625 0.65625 -0.25 C 0.675781 -0.351562 0.691406 -0.472656 0.703125 -0.609375 C 0.710938 -0.753906 0.71875 -0.921875 0.71875 -1.109375 C 0.726562 -1.304688 0.734375 -1.535156 0.734375 -1.796875 Z M 0.640625 -6.109375 C 0.640625 -6.179688 0.648438 -6.242188 0.671875 -6.296875 C 0.703125 -6.359375 0.738281 -6.410156 0.78125 -6.453125 C 0.820312 -6.503906 0.875 -6.539062 0.9375 -6.5625 C 1 -6.59375 1.066406 -6.609375 1.140625 -6.609375 C 1.203125 -6.609375 1.265625 -6.59375 1.328125 -6.5625 C 1.390625 -6.539062 1.441406 -6.503906 1.484375 -6.453125 C 1.523438 -6.410156 1.554688 -6.359375 1.578125 -6.296875 C 1.609375 -6.242188 1.625 -6.179688 1.625 -6.109375 C 1.625 -5.972656 1.578125 -5.859375 1.484375 -5.765625 C 1.390625 -5.671875 1.273438 -5.625 1.140625 -5.625 C 1.066406 -5.625 1 -5.632812 0.9375 -5.65625 C 0.875 -5.6875 0.820312 -5.722656 0.78125 -5.765625 C 0.738281 -5.804688 0.703125 -5.859375 0.671875 -5.921875 C 0.648438 -5.984375 0.640625 -6.046875 0.640625 -6.109375 Z M 0.640625 -6.109375 "/></g></g></g><g fill="#984ae8" fill-opacity="1"><g transform="translate(151.134516, 9.153256)"><g><path d="M 0.734375 -5.09375 C 0.734375 -5.351562 0.726562 -5.578125 0.71875 -5.765625 C 0.71875 -5.960938 0.710938 -6.128906 0.703125 -6.265625 C 0.691406 -6.410156 0.675781 -6.53125 0.65625 -6.625 C 0.632812 -6.726562 0.617188 -6.8125 0.609375 -6.875 L 0.609375 -6.890625 L 1.671875 -6.890625 L 1.671875 -6.875 C 1.648438 -6.8125 1.628906 -6.726562 1.609375 -6.625 C 1.597656 -6.53125 1.585938 -6.410156 1.578125 -6.265625 C 1.566406 -6.128906 1.554688 -5.960938 1.546875 -5.765625 C 1.546875 -5.578125 1.546875 -5.351562 1.546875 -5.09375 L 1.546875 -1.796875 C 1.546875 -1.535156 1.546875 -1.304688 1.546875 -1.109375 C 1.554688 -0.921875 1.566406 -0.753906 1.578125 -0.609375 C 1.585938 -0.472656 1.597656 -0.351562 1.609375 -0.25 C 1.628906 -0.15625 1.648438 -0.078125 1.671875 -0.015625 L 1.671875 0 L 0.609375 0 L 0.609375 -0.015625 C 0.617188 -0.078125 0.632812 -0.15625 0.65625 -0.25 C 0.675781 -0.351562 0.691406 -0.472656 0.703125 -0.609375 C 0.710938 -0.753906 0.71875 -0.921875 0.71875 -1.109375 C 0.726562 -1.304688 0.734375 -1.535156 0.734375 -1.796875 Z M 0.734375 -5.09375 "/></g></g></g><g fill="#984ae8" fill-opacity="1"><g transform="translate(153.411266, 9.153256)"><g><path d="M 0.734375 -2.921875 C 0.734375 -3.179688 0.726562 -3.40625 0.71875 -3.59375 C 0.71875 -3.789062 0.710938 -3.957031 0.703125 -4.09375 C 0.691406 -4.238281 0.675781 -4.359375 0.65625 -4.453125 C 0.632812 -4.554688 0.617188 -4.640625 0.609375 -4.703125 L 0.609375 -4.71875 L 1.671875 -4.71875 L 1.671875 -4.703125 C 1.648438 -4.640625 1.628906 -4.554688 1.609375 -4.453125 C 1.597656 -4.359375 1.585938 -4.238281 1.578125 -4.09375 C 1.566406 -3.957031 1.554688 -3.789062 1.546875 -3.59375 C 1.546875 -3.40625 1.546875 -3.179688 1.546875 -2.921875 L 1.546875 -1.796875 C 1.546875 -1.535156 1.546875 -1.304688 1.546875 -1.109375 C 1.554688 -0.921875 1.566406 -0.753906 1.578125 -0.609375 C 1.585938 -0.472656 1.597656 -0.351562 1.609375 -0.25 C 1.628906 -0.15625 1.648438 -0.078125 1.671875 -0.015625 L 1.671875 0 L 0.609375 0 L 0.609375 -0.015625 C 0.617188 -0.078125 0.632812 -0.15625 0.65625 -0.25 C 0.675781 -0.351562 0.691406 -0.472656 0.703125 -0.609375 C 0.710938 -0.753906 0.71875 -0.921875 0.71875 -1.109375 C 0.726562 -1.304688 0.734375 -1.535156 0.734375 -1.796875 Z M 0.640625 -6.109375 C 0.640625 -6.179688 0.648438 -6.242188 0.671875 -6.296875 C 0.703125 -6.359375 0.738281 -6.410156 0.78125 -6.453125 C 0.820312 -6.503906 0.875 -6.539062 0.9375 -6.5625 C 1 -6.59375 1.066406 -6.609375 1.140625 -6.609375 C 1.203125 -6.609375 1.265625 -6.59375 1.328125 -6.5625 C 1.390625 -6.539062 1.441406 -6.503906 1.484375 -6.453125 C 1.523438 -6.410156 1.554688 -6.359375 1.578125 -6.296875 C 1.609375 -6.242188 1.625 -6.179688 1.625 -6.109375 C 1.625 -5.972656 1.578125 -5.859375 1.484375 -5.765625 C 1.390625 -5.671875 1.273438 -5.625 1.140625 -5.625 C 1.066406 -5.625 1 -5.632812 0.9375 -5.65625 C 0.875 -5.6875 0.820312 -5.722656 0.78125 -5.765625 C 0.738281 -5.804688 0.703125 -5.859375 0.671875 -5.921875 C 0.648438 -5.984375 0.640625 -6.046875 0.640625 -6.109375 Z M 0.640625 -6.109375 "/></g></g></g><g fill="#984ae8" fill-opacity="1"><g transform="translate(155.687995, 9.153256)"><g><path d="M 2.375 -0.265625 C 2.46875 -0.265625 2.554688 -0.28125 2.640625 -0.3125 C 2.734375 -0.351562 2.820312 -0.398438 2.90625 -0.453125 C 3 -0.515625 3.082031 -0.582031 3.15625 -0.65625 C 3.238281 -0.738281 3.3125 -0.820312 3.375 -0.90625 L 3.421875 -0.875 L 3.125 -0.140625 C 3.082031 -0.117188 3.035156 -0.09375 2.984375 -0.0625 C 2.929688 -0.0390625 2.867188 -0.0195312 2.796875 0 C 2.722656 0.03125 2.632812 0.0507812 2.53125 0.0625 C 2.425781 0.0820312 2.304688 0.09375 2.171875 0.09375 C 1.753906 0.09375 1.429688 -0.015625 1.203125 -0.234375 C 0.972656 -0.460938 0.859375 -0.8125 0.859375 -1.28125 L 0.859375 -4.359375 L 0.09375 -4.328125 L 0.09375 -4.734375 C 0.1875 -4.734375 0.296875 -4.726562 0.421875 -4.71875 C 0.554688 -4.71875 0.703125 -4.71875 0.859375 -4.71875 C 0.859375 -4.9375 0.851562 -5.128906 0.84375 -5.296875 C 0.84375 -5.460938 0.835938 -5.609375 0.828125 -5.734375 C 0.816406 -5.859375 0.800781 -5.960938 0.78125 -6.046875 C 0.769531 -6.128906 0.753906 -6.203125 0.734375 -6.265625 L 0.734375 -6.28125 L 1.796875 -6.28125 L 1.796875 -6.265625 C 1.785156 -6.203125 1.769531 -6.128906 1.75 -6.046875 C 1.738281 -5.960938 1.726562 -5.859375 1.71875 -5.734375 C 1.707031 -5.609375 1.695312 -5.460938 1.6875 -5.296875 C 1.675781 -5.128906 1.671875 -4.9375 1.671875 -4.71875 C 1.859375 -4.71875 2.046875 -4.71875 2.234375 -4.71875 C 2.421875 -4.726562 2.585938 -4.738281 2.734375 -4.75 C 2.890625 -4.757812 3.019531 -4.765625 3.125 -4.765625 C 3.238281 -4.773438 3.3125 -4.785156 3.34375 -4.796875 L 3.265625 -4.328125 C 3.097656 -4.328125 2.929688 -4.332031 2.765625 -4.34375 C 2.617188 -4.34375 2.445312 -4.34375 2.25 -4.34375 C 2.0625 -4.351562 1.867188 -4.359375 1.671875 -4.359375 L 1.671875 -1.1875 C 1.671875 -1 1.691406 -0.84375 1.734375 -0.71875 C 1.773438 -0.601562 1.828125 -0.507812 1.890625 -0.4375 C 1.953125 -0.375 2.023438 -0.328125 2.109375 -0.296875 C 2.203125 -0.273438 2.289062 -0.265625 2.375 -0.265625 Z M 2.375 -0.265625 "/></g></g></g><g clip-path="url(#e4eb5e3f71)"><g fill="#984ae8" fill-opacity="1"><g transform="translate(159.310511, 9.153256)"><g><path d="M 2.1875 -0.0625 L 0.5625 -3.609375 C 0.507812 -3.742188 0.445312 -3.867188 0.375 -3.984375 C 0.3125 -4.109375 0.25 -4.21875 0.1875 -4.3125 C 0.125 -4.414062 0.0664062 -4.5 0.015625 -4.5625 C -0.0234375 -4.632812 -0.0507812 -4.679688 -0.0625 -4.703125 L -0.0625 -4.71875 L 1.140625 -4.71875 L 1.140625 -4.703125 C 1.140625 -4.679688 1.132812 -4.65625 1.125 -4.625 C 1.125 -4.59375 1.125 -4.566406 1.125 -4.546875 C 1.125 -4.453125 1.140625 -4.347656 1.171875 -4.234375 C 1.203125 -4.117188 1.253906 -3.972656 1.328125 -3.796875 L 2.609375 -1.03125 L 3.765625 -3.765625 C 3.816406 -3.878906 3.863281 -4.003906 3.90625 -4.140625 C 3.957031 -4.273438 3.984375 -4.410156 3.984375 -4.546875 C 3.984375 -4.585938 3.976562 -4.617188 3.96875 -4.640625 C 3.96875 -4.671875 3.96875 -4.691406 3.96875 -4.703125 L 3.96875 -4.71875 L 4.796875 -4.71875 L 4.796875 -4.703125 C 4.734375 -4.640625 4.660156 -4.535156 4.578125 -4.390625 C 4.492188 -4.242188 4.40625 -4.054688 4.3125 -3.828125 L 2.109375 1.40625 C 2.066406 1.519531 2.019531 1.644531 1.96875 1.78125 C 1.914062 1.914062 1.890625 2.050781 1.890625 2.1875 C 1.890625 2.226562 1.890625 2.257812 1.890625 2.28125 C 1.898438 2.3125 1.910156 2.332031 1.921875 2.34375 L 1.921875 2.359375 L 1.0625 2.359375 L 1.0625 2.34375 C 1.113281 2.28125 1.179688 2.175781 1.265625 2.03125 C 1.347656 1.882812 1.441406 1.703125 1.546875 1.484375 Z M 2.1875 -0.0625 "/></g></g></g></g></g></g><g clip-path="url(#4a7c348b92)"><g clip-path="url(#bdfb43e972)"><path stroke-linecap="butt" transform="matrix(0, 0.740132, -0.740132, 0, 16.287131, 3.704992)" fill="none" stroke-linejoin="miter" d="M 31.152201 -0.00260992 C 35.617201 -0.00260992 39.232479 4.040168 39.232479 9.02239 C 39.232479 14.004613 35.617201 18.042113 31.152201 18.042113 L 8.083034 18.042113 C 3.618033 18.042113 -0.00252229 14.004613 -0.00252229 9.02239 C -0.00252229 4.040168 3.618033 -0.00260992 8.083034 -0.00260992 Z M 31.152201 -0.00260992 " stroke="#984ae8" stroke-width="6" stroke-opacity="1" stroke-miterlimit="4"/></g></g><g clip-path="url(#4716d8cafb)"><path stroke-linecap="butt" transform="matrix(0.740132, 0, 0, 0.740132, 18.056354, 6.212178)" fill="none" stroke-linejoin="miter" d="M -0.00225202 1.502491 L 11.434693 1.502491 C 14.749137 1.502491 17.435526 4.18888 17.435526 7.498047 L 17.435526 24.962214 C 17.435526 28.276659 14.749137 30.963048 11.434693 30.963048 L -0.00225202 30.963048 " stroke="#984ae8" stroke-width="3" stroke-opacity="1" stroke-miterlimit="4"/></g></svg>