<svg xmlns="http://www.w3.org/2000/svg" xmlns:xlink="http://www.w3.org/1999/xlink" width="256" zoomAndPan="magnify" viewBox="0 0 192 37.5" height="50" preserveAspectRatio="xMidYMid meet" version="1.0"><defs><g/><clipPath id="42f374274f"><path d="M 32.875 4.261719 L 46.199219 4.261719 L 46.199219 33.125 L 32.875 33.125 Z M 32.875 4.261719 " clip-rule="nonzero"/></clipPath><clipPath id="72e430abcc"><path d="M 46.199219 27.316406 C 46.199219 30.621094 43.207031 33.300781 39.519531 33.300781 C 35.832031 33.300781 32.84375 30.621094 32.84375 27.316406 L 32.84375 10.242188 C 32.84375 6.941406 35.832031 4.261719 39.519531 4.261719 C 43.207031 4.261719 46.199219 6.941406 46.199219 10.242188 Z M 46.199219 27.316406 " clip-rule="nonzero"/></clipPath><clipPath id="eefe0fd50f"><path d="M 35 0 L 74 0 L 74 37.007812 L 35 37.007812 Z M 35 0 " clip-rule="nonzero"/></clipPath></defs><g fill="#ffffff" fill-opacity="1"><g transform="translate(67.487085, 17.549419)"><g><path d="M 4.5625 -10.484375 C 5.675781 -10.484375 6.648438 -10.269531 7.484375 -9.84375 C 8.328125 -9.414062 8.976562 -8.800781 9.4375 -8 C 9.894531 -7.207031 10.125 -6.273438 10.125 -5.203125 C 10.125 -4.140625 9.894531 -3.210938 9.4375 -2.421875 C 8.976562 -1.640625 8.328125 -1.039062 7.484375 -0.625 C 6.648438 -0.207031 5.675781 0 4.5625 0 L 1.125 0 L 1.125 -10.484375 Z M 4.5625 -1.40625 C 5.789062 -1.40625 6.726562 -1.734375 7.375 -2.390625 C 8.03125 -3.054688 8.359375 -3.992188 8.359375 -5.203125 C 8.359375 -6.421875 8.03125 -7.375 7.375 -8.0625 C 6.726562 -8.75 5.789062 -9.09375 4.5625 -9.09375 L 2.859375 -9.09375 L 2.859375 -1.40625 Z M 4.5625 -1.40625 "/></g></g></g><g fill="#ffffff" fill-opacity="1"><g transform="translate(78.187077, 17.549419)"><g><path d="M 2.859375 -7.109375 C 3.109375 -7.535156 3.441406 -7.863281 3.859375 -8.09375 C 4.273438 -8.332031 4.769531 -8.453125 5.34375 -8.453125 L 5.34375 -6.671875 L 4.90625 -6.671875 C 4.226562 -6.671875 3.71875 -6.5 3.375 -6.15625 C 3.03125 -5.8125 2.859375 -5.21875 2.859375 -4.375 L 2.859375 0 L 1.125 0 L 1.125 -8.3125 L 2.859375 -8.3125 Z M 2.859375 -7.109375 "/></g></g></g><g fill="#ffffff" fill-opacity="1"><g transform="translate(83.982274, 17.549419)"><g><path d="M 2 -9.421875 C 1.695312 -9.421875 1.4375 -9.523438 1.21875 -9.734375 C 1.007812 -9.941406 0.90625 -10.203125 0.90625 -10.515625 C 0.90625 -10.828125 1.007812 -11.085938 1.21875 -11.296875 C 1.4375 -11.515625 1.695312 -11.625 2 -11.625 C 2.300781 -11.625 2.554688 -11.515625 2.765625 -11.296875 C 2.984375 -11.085938 3.09375 -10.828125 3.09375 -10.515625 C 3.09375 -10.203125 2.984375 -9.941406 2.765625 -9.734375 C 2.554688 -9.523438 2.300781 -9.421875 2 -9.421875 Z M 2.859375 -8.3125 L 2.859375 0 L 1.125 0 L 1.125 -8.3125 Z M 2.859375 -8.3125 "/></g></g></g><g fill="#ffffff" fill-opacity="1"><g transform="translate(87.966478, 17.549419)"><g><path d="M 4.625 -6.90625 L 3.078125 -6.90625 L 3.078125 0 L 1.34375 0 L 1.34375 -6.90625 L 0.359375 -6.90625 L 0.359375 -8.3125 L 1.34375 -8.3125 L 1.34375 -8.90625 C 1.34375 -9.863281 1.597656 -10.5625 2.109375 -11 C 2.617188 -11.4375 3.414062 -11.65625 4.5 -11.65625 L 4.5 -10.21875 C 3.976562 -10.21875 3.609375 -10.117188 3.390625 -9.921875 C 3.179688 -9.722656 3.078125 -9.382812 3.078125 -8.90625 L 3.078125 -8.3125 L 4.625 -8.3125 Z M 4.625 -6.90625 "/></g></g></g><g fill="#ffffff" fill-opacity="1"><g transform="translate(92.976912, 17.549419)"><g><path d="M 3.140625 -6.90625 L 3.140625 -2.3125 C 3.140625 -2 3.210938 -1.773438 3.359375 -1.640625 C 3.503906 -1.503906 3.753906 -1.4375 4.109375 -1.4375 L 5.15625 -1.4375 L 5.15625 0 L 3.796875 0 C 3.023438 0 2.429688 -0.179688 2.015625 -0.546875 C 1.609375 -0.910156 1.40625 -1.5 1.40625 -2.3125 L 1.40625 -6.90625 L 0.421875 -6.90625 L 0.421875 -8.3125 L 1.40625 -8.3125 L 1.40625 -10.390625 L 3.140625 -10.390625 L 3.140625 -8.3125 L 5.15625 -8.3125 L 5.15625 -6.90625 Z M 3.140625 -6.90625 "/></g></g></g><g fill="#ffffff" fill-opacity="1"><g transform="translate(98.591007, 17.549419)"><g><path d="M 2.859375 -11.171875 L 2.859375 0 L 1.125 0 L 1.125 -11.171875 Z M 2.859375 -11.171875 "/></g></g></g><g fill="#ffffff" fill-opacity="1"><g transform="translate(102.575211, 17.549419)"><g><path d="M 4.734375 0.140625 C 3.953125 0.140625 3.242188 -0.0351562 2.609375 -0.390625 C 1.972656 -0.753906 1.472656 -1.257812 1.109375 -1.90625 C 0.753906 -2.5625 0.578125 -3.316406 0.578125 -4.171875 C 0.578125 -5.015625 0.757812 -5.757812 1.125 -6.40625 C 1.5 -7.0625 2.007812 -7.566406 2.65625 -7.921875 C 3.300781 -8.273438 4.019531 -8.453125 4.8125 -8.453125 C 5.601562 -8.453125 6.320312 -8.273438 6.96875 -7.921875 C 7.613281 -7.566406 8.125 -7.0625 8.5 -6.40625 C 8.875 -5.757812 9.0625 -5.015625 9.0625 -4.171875 C 9.0625 -3.316406 8.867188 -2.5625 8.484375 -1.90625 C 8.097656 -1.257812 7.578125 -0.753906 6.921875 -0.390625 C 6.265625 -0.0351562 5.535156 0.140625 4.734375 0.140625 Z M 4.734375 -1.359375 C 5.179688 -1.359375 5.597656 -1.460938 5.984375 -1.671875 C 6.367188 -1.890625 6.679688 -2.207031 6.921875 -2.625 C 7.171875 -3.050781 7.296875 -3.566406 7.296875 -4.171875 C 7.296875 -4.773438 7.175781 -5.285156 6.9375 -5.703125 C 6.707031 -6.117188 6.398438 -6.429688 6.015625 -6.640625 C 5.640625 -6.847656 5.226562 -6.953125 4.78125 -6.953125 C 4.34375 -6.953125 3.929688 -6.847656 3.546875 -6.640625 C 3.171875 -6.429688 2.875 -6.117188 2.65625 -5.703125 C 2.4375 -5.285156 2.328125 -4.773438 2.328125 -4.171875 C 2.328125 -3.273438 2.554688 -2.582031 3.015625 -2.09375 C 3.472656 -1.601562 4.046875 -1.359375 4.734375 -1.359375 Z M 4.734375 -1.359375 "/></g></g></g><g fill="#ffffff" fill-opacity="1"><g transform="translate(112.203686, 17.549419)"><g><path d="M 0.5625 -4.171875 C 0.5625 -5.023438 0.734375 -5.773438 1.078125 -6.421875 C 1.421875 -7.066406 1.898438 -7.566406 2.515625 -7.921875 C 3.128906 -8.273438 3.835938 -8.453125 4.640625 -8.453125 C 5.640625 -8.453125 6.46875 -8.210938 7.125 -7.734375 C 7.789062 -7.253906 8.238281 -6.570312 8.46875 -5.6875 L 6.609375 -5.6875 C 6.460938 -6.101562 6.222656 -6.425781 5.890625 -6.65625 C 5.554688 -6.882812 5.140625 -7 4.640625 -7 C 3.929688 -7 3.367188 -6.75 2.953125 -6.25 C 2.535156 -5.757812 2.328125 -5.066406 2.328125 -4.171875 C 2.328125 -3.273438 2.535156 -2.570312 2.953125 -2.0625 C 3.367188 -1.5625 3.929688 -1.3125 4.640625 -1.3125 C 5.628906 -1.3125 6.285156 -1.75 6.609375 -2.625 L 8.46875 -2.625 C 8.226562 -1.78125 7.773438 -1.109375 7.109375 -0.609375 C 6.441406 -0.109375 5.617188 0.140625 4.640625 0.140625 C 3.835938 0.140625 3.128906 -0.0351562 2.515625 -0.390625 C 1.898438 -0.753906 1.421875 -1.257812 1.078125 -1.90625 C 0.734375 -2.5625 0.5625 -3.316406 0.5625 -4.171875 Z M 0.5625 -4.171875 "/></g></g></g><g fill="#ffffff" fill-opacity="1"><g transform="translate(121.258688, 17.549419)"><g><path d="M 4.421875 -4.15625 L 8.25 0 L 5.9375 0 L 2.859375 -3.578125 L 2.859375 0 L 1.125 0 L 1.125 -11.171875 L 2.859375 -11.171875 L 2.859375 -4.671875 L 5.875 -8.3125 L 8.25 -8.3125 Z M 4.421875 -4.15625 "/></g></g></g><g fill="#ffffff" fill-opacity="1"><g transform="translate(129.619466, 17.549419)"><g><path d="M 1.828125 0.109375 C 1.515625 0.109375 1.25 0.00390625 1.03125 -0.203125 C 0.820312 -0.421875 0.71875 -0.6875 0.71875 -1 C 0.71875 -1.3125 0.820312 -1.570312 1.03125 -1.78125 C 1.25 -1.988281 1.515625 -2.09375 1.828125 -2.09375 C 2.128906 -2.09375 2.382812 -1.988281 2.59375 -1.78125 C 2.800781 -1.570312 2.90625 -1.3125 2.90625 -1 C 2.90625 -0.6875 2.800781 -0.421875 2.59375 -0.203125 C 2.382812 0.00390625 2.128906 0.109375 1.828125 0.109375 Z M 1.828125 0.109375 "/></g></g></g><g fill="#ffffff" fill-opacity="1"><g transform="translate(133.256553, 17.549419)"><g><path d="M 0.5625 -4.203125 C 0.5625 -5.035156 0.734375 -5.769531 1.078125 -6.40625 C 1.421875 -7.050781 1.890625 -7.550781 2.484375 -7.90625 C 3.085938 -8.269531 3.753906 -8.453125 4.484375 -8.453125 C 5.140625 -8.453125 5.707031 -8.320312 6.1875 -8.0625 C 6.675781 -7.8125 7.066406 -7.492188 7.359375 -7.109375 L 7.359375 -8.3125 L 9.109375 -8.3125 L 9.109375 0 L 7.359375 0 L 7.359375 -1.234375 C 7.066406 -0.847656 6.671875 -0.519531 6.171875 -0.25 C 5.671875 0.0078125 5.097656 0.140625 4.453125 0.140625 C 3.734375 0.140625 3.078125 -0.0390625 2.484375 -0.40625 C 1.890625 -0.78125 1.421875 -1.296875 1.078125 -1.953125 C 0.734375 -2.609375 0.5625 -3.359375 0.5625 -4.203125 Z M 7.359375 -4.171875 C 7.359375 -4.742188 7.238281 -5.238281 7 -5.65625 C 6.769531 -6.082031 6.460938 -6.40625 6.078125 -6.625 C 5.703125 -6.84375 5.289062 -6.953125 4.84375 -6.953125 C 4.40625 -6.953125 3.992188 -6.84375 3.609375 -6.625 C 3.222656 -6.414062 2.910156 -6.101562 2.671875 -5.6875 C 2.441406 -5.269531 2.328125 -4.773438 2.328125 -4.203125 C 2.328125 -3.617188 2.441406 -3.109375 2.671875 -2.671875 C 2.910156 -2.242188 3.222656 -1.914062 3.609375 -1.6875 C 4.003906 -1.46875 4.414062 -1.359375 4.84375 -1.359375 C 5.289062 -1.359375 5.703125 -1.46875 6.078125 -1.6875 C 6.460938 -1.90625 6.769531 -2.226562 7 -2.65625 C 7.238281 -3.09375 7.359375 -3.597656 7.359375 -4.171875 Z M 7.359375 -4.171875 "/></g></g></g><g fill="#ffffff" fill-opacity="1"><g transform="translate(143.4887, 17.549419)"><g><path d="M 2 -9.421875 C 1.695312 -9.421875 1.4375 -9.523438 1.21875 -9.734375 C 1.007812 -9.941406 0.90625 -10.203125 0.90625 -10.515625 C 0.90625 -10.828125 1.007812 -11.085938 1.21875 -11.296875 C 1.4375 -11.515625 1.695312 -11.625 2 -11.625 C 2.300781 -11.625 2.554688 -11.515625 2.765625 -11.296875 C 2.984375 -11.085938 3.09375 -10.828125 3.09375 -10.515625 C 3.09375 -10.203125 2.984375 -9.941406 2.765625 -9.734375 C 2.554688 -9.523438 2.300781 -9.421875 2 -9.421875 Z M 2.859375 -8.3125 L 2.859375 0 L 1.125 0 L 1.125 -8.3125 Z M 2.859375 -8.3125 "/></g></g></g><g fill="#984ae8" fill-opacity="1"><g transform="translate(67.47552, 30.552631)"><g><path d="M 1.640625 -0.40625 C 2.003906 -0.40625 2.335938 -0.421875 2.640625 -0.453125 C 2.941406 -0.484375 3.207031 -0.519531 3.4375 -0.5625 C 3.707031 -0.601562 3.953125 -0.65625 4.171875 -0.71875 L 4.03125 0.03125 C 3.988281 0.03125 3.929688 0.0234375 3.859375 0.015625 C 3.785156 0.015625 3.703125 0.015625 3.609375 0.015625 C 3.523438 0.015625 3.429688 0.015625 3.328125 0.015625 C 3.234375 0.015625 3.140625 0.0078125 3.046875 0 C 2.953125 0 2.867188 0 2.796875 0 C 2.734375 0 2.6875 0 2.65625 0 L 0.65625 0 L 0.65625 -0.015625 C 0.675781 -0.078125 0.691406 -0.15625 0.703125 -0.25 C 0.722656 -0.351562 0.738281 -0.472656 0.75 -0.609375 C 0.769531 -0.753906 0.78125 -0.925781 0.78125 -1.125 C 0.789062 -1.320312 0.796875 -1.550781 0.796875 -1.8125 L 0.796875 -4.8125 C 0.796875 -5.070312 0.789062 -5.300781 0.78125 -5.5 C 0.78125 -5.695312 0.769531 -5.867188 0.75 -6.015625 C 0.738281 -6.160156 0.722656 -6.28125 0.703125 -6.375 C 0.691406 -6.46875 0.675781 -6.546875 0.65625 -6.609375 L 0.65625 -6.625 L 1.765625 -6.625 L 1.765625 -6.609375 C 1.753906 -6.546875 1.738281 -6.46875 1.71875 -6.375 C 1.695312 -6.28125 1.679688 -6.160156 1.671875 -6.015625 C 1.660156 -5.867188 1.648438 -5.695312 1.640625 -5.5 C 1.640625 -5.300781 1.640625 -5.070312 1.640625 -4.8125 Z M 1.640625 -0.40625 "/></g></g></g><g fill="#984ae8" fill-opacity="1"><g transform="translate(71.831981, 30.552631)"><g><path d="M 2.78125 0.078125 C 2.4375 0.078125 2.113281 0.0234375 1.8125 -0.078125 C 1.519531 -0.179688 1.257812 -0.335938 1.03125 -0.546875 C 0.8125 -0.753906 0.640625 -1.007812 0.515625 -1.3125 C 0.390625 -1.625 0.328125 -1.976562 0.328125 -2.375 C 0.328125 -2.726562 0.382812 -3.050781 0.5 -3.34375 C 0.613281 -3.644531 0.773438 -3.90625 0.984375 -4.125 C 1.191406 -4.34375 1.429688 -4.507812 1.703125 -4.625 C 1.984375 -4.75 2.285156 -4.8125 2.609375 -4.8125 C 2.921875 -4.8125 3.210938 -4.753906 3.484375 -4.640625 C 3.753906 -4.535156 3.988281 -4.378906 4.1875 -4.171875 C 4.382812 -3.960938 4.539062 -3.703125 4.65625 -3.390625 C 4.78125 -3.085938 4.84375 -2.742188 4.84375 -2.359375 C 4.5 -2.367188 4.148438 -2.375 3.796875 -2.375 C 3.453125 -2.375 3.09375 -2.375 2.71875 -2.375 C 2.445312 -2.375 2.179688 -2.375 1.921875 -2.375 C 1.671875 -2.375 1.445312 -2.367188 1.25 -2.359375 C 1.269531 -2.035156 1.316406 -1.742188 1.390625 -1.484375 C 1.472656 -1.222656 1.585938 -1 1.734375 -0.8125 C 1.878906 -0.632812 2.050781 -0.492188 2.25 -0.390625 C 2.457031 -0.296875 2.691406 -0.25 2.953125 -0.25 C 3.128906 -0.25 3.296875 -0.269531 3.453125 -0.3125 C 3.617188 -0.351562 3.765625 -0.410156 3.890625 -0.484375 C 4.023438 -0.554688 4.140625 -0.644531 4.234375 -0.75 C 4.335938 -0.851562 4.425781 -0.960938 4.5 -1.078125 L 4.546875 -1.046875 L 4.21875 -0.21875 C 4.050781 -0.132812 3.847656 -0.0625 3.609375 0 C 3.378906 0.0507812 3.101562 0.078125 2.78125 0.078125 Z M 2.171875 -2.734375 C 2.472656 -2.734375 2.78125 -2.734375 3.09375 -2.734375 C 3.40625 -2.734375 3.6875 -2.738281 3.9375 -2.75 C 3.90625 -3.019531 3.851562 -3.257812 3.78125 -3.46875 C 3.707031 -3.6875 3.609375 -3.867188 3.484375 -4.015625 C 3.367188 -4.160156 3.226562 -4.273438 3.0625 -4.359375 C 2.894531 -4.441406 2.710938 -4.484375 2.515625 -4.484375 C 2.335938 -4.484375 2.171875 -4.441406 2.015625 -4.359375 C 1.867188 -4.285156 1.738281 -4.171875 1.625 -4.015625 C 1.519531 -3.867188 1.429688 -3.6875 1.359375 -3.46875 C 1.296875 -3.257812 1.257812 -3.019531 1.25 -2.75 C 1.382812 -2.738281 1.53125 -2.734375 1.6875 -2.734375 C 1.84375 -2.734375 2.003906 -2.734375 2.171875 -2.734375 Z M 2.171875 -2.734375 "/></g></g></g><g fill="#984ae8" fill-opacity="1"><g transform="translate(76.96539, 30.552631)"><g><path d="M 2.5 2.109375 C 2.75 2.109375 2.957031 2.082031 3.125 2.03125 C 3.300781 1.976562 3.445312 1.90625 3.5625 1.8125 C 3.675781 1.71875 3.757812 1.601562 3.8125 1.46875 C 3.875 1.332031 3.921875 1.179688 3.953125 1.015625 C 3.984375 0.859375 4 0.6875 4 0.5 C 4.007812 0.320312 4.015625 0.132812 4.015625 -0.0625 L 4.015625 -0.203125 C 3.859375 -0.128906 3.675781 -0.0625 3.46875 0 C 3.257812 0.0507812 3.019531 0.078125 2.75 0.078125 C 2.382812 0.078125 2.050781 0.0195312 1.75 -0.09375 C 1.445312 -0.207031 1.191406 -0.367188 0.984375 -0.578125 C 0.773438 -0.785156 0.613281 -1.039062 0.5 -1.34375 C 0.382812 -1.65625 0.328125 -2 0.328125 -2.375 C 0.328125 -2.726562 0.378906 -3.050781 0.484375 -3.34375 C 0.597656 -3.644531 0.757812 -3.90625 0.96875 -4.125 C 1.175781 -4.34375 1.421875 -4.515625 1.703125 -4.640625 C 1.984375 -4.765625 2.300781 -4.828125 2.65625 -4.828125 C 2.800781 -4.828125 2.929688 -4.8125 3.046875 -4.78125 C 3.171875 -4.757812 3.285156 -4.726562 3.390625 -4.6875 C 3.503906 -4.644531 3.609375 -4.597656 3.703125 -4.546875 C 3.796875 -4.492188 3.882812 -4.4375 3.96875 -4.375 L 3.9375 -4.71875 L 3.9375 -4.734375 L 4.953125 -4.734375 L 4.953125 -4.71875 C 4.929688 -4.65625 4.910156 -4.570312 4.890625 -4.46875 C 4.878906 -4.375 4.867188 -4.253906 4.859375 -4.109375 C 4.847656 -3.972656 4.835938 -3.804688 4.828125 -3.609375 C 4.816406 -3.410156 4.8125 -3.179688 4.8125 -2.921875 L 4.8125 0.21875 C 4.8125 0.5 4.773438 0.773438 4.703125 1.046875 C 4.628906 1.316406 4.5 1.554688 4.3125 1.765625 C 4.132812 1.972656 3.894531 2.140625 3.59375 2.265625 C 3.300781 2.390625 2.9375 2.453125 2.5 2.453125 C 2.34375 2.453125 2.1875 2.4375 2.03125 2.40625 C 1.875 2.382812 1.722656 2.351562 1.578125 2.3125 C 1.441406 2.269531 1.316406 2.222656 1.203125 2.171875 C 1.085938 2.117188 0.992188 2.078125 0.921875 2.046875 L 0.78125 1.15625 L 0.859375 1.140625 C 0.929688 1.296875 1.03125 1.4375 1.15625 1.5625 C 1.289062 1.6875 1.429688 1.785156 1.578125 1.859375 C 1.734375 1.941406 1.890625 2.003906 2.046875 2.046875 C 2.210938 2.085938 2.363281 2.109375 2.5 2.109375 Z M 2.953125 -0.25 C 3.171875 -0.25 3.367188 -0.285156 3.546875 -0.359375 C 3.734375 -0.429688 3.890625 -0.519531 4.015625 -0.625 L 4.015625 -2.921875 C 4.015625 -3.097656 4.007812 -3.253906 4 -3.390625 C 4 -3.535156 4 -3.664062 4 -3.78125 C 3.925781 -3.894531 3.84375 -3.992188 3.75 -4.078125 C 3.65625 -4.171875 3.550781 -4.242188 3.4375 -4.296875 C 3.320312 -4.359375 3.207031 -4.40625 3.09375 -4.4375 C 2.988281 -4.46875 2.878906 -4.484375 2.765625 -4.484375 C 2.523438 -4.484375 2.3125 -4.441406 2.125 -4.359375 C 1.9375 -4.273438 1.773438 -4.148438 1.640625 -3.984375 C 1.515625 -3.828125 1.414062 -3.628906 1.34375 -3.390625 C 1.28125 -3.160156 1.25 -2.898438 1.25 -2.609375 C 1.25 -2.273438 1.285156 -1.960938 1.359375 -1.671875 C 1.429688 -1.390625 1.539062 -1.140625 1.6875 -0.921875 C 1.832031 -0.710938 2.007812 -0.546875 2.21875 -0.421875 C 2.425781 -0.304688 2.671875 -0.25 2.953125 -0.25 Z M 2.953125 -0.25 "/></g></g></g><g fill="#984ae8" fill-opacity="1"><g transform="translate(82.496523, 30.552631)"><g><path d="M 0.34375 -1.359375 C 0.34375 -1.609375 0.390625 -1.820312 0.484375 -2 C 0.585938 -2.175781 0.722656 -2.328125 0.890625 -2.453125 C 1.054688 -2.578125 1.242188 -2.675781 1.453125 -2.75 C 1.671875 -2.832031 1.894531 -2.894531 2.125 -2.9375 C 2.351562 -2.988281 2.578125 -3.019531 2.796875 -3.03125 C 3.015625 -3.050781 3.21875 -3.0625 3.40625 -3.0625 L 3.40625 -3.3125 C 3.40625 -3.507812 3.378906 -3.679688 3.328125 -3.828125 C 3.273438 -3.984375 3.203125 -4.109375 3.109375 -4.203125 C 3.015625 -4.296875 2.898438 -4.363281 2.765625 -4.40625 C 2.628906 -4.457031 2.484375 -4.484375 2.328125 -4.484375 C 2.210938 -4.484375 2.097656 -4.472656 1.984375 -4.453125 C 1.878906 -4.441406 1.769531 -4.410156 1.65625 -4.359375 C 1.539062 -4.316406 1.414062 -4.257812 1.28125 -4.1875 C 1.15625 -4.113281 1.019531 -4.019531 0.875 -3.90625 L 0.828125 -3.9375 L 1.140625 -4.59375 C 1.242188 -4.632812 1.34375 -4.671875 1.4375 -4.703125 C 1.539062 -4.734375 1.644531 -4.753906 1.75 -4.765625 C 1.851562 -4.785156 1.957031 -4.800781 2.0625 -4.8125 C 2.164062 -4.820312 2.273438 -4.828125 2.390625 -4.828125 C 2.710938 -4.828125 2.988281 -4.785156 3.21875 -4.703125 C 3.445312 -4.628906 3.632812 -4.519531 3.78125 -4.375 C 3.9375 -4.238281 4.046875 -4.078125 4.109375 -3.890625 C 4.179688 -3.710938 4.21875 -3.519531 4.21875 -3.3125 L 4.21875 -1.8125 C 4.21875 -1.550781 4.21875 -1.320312 4.21875 -1.125 C 4.226562 -0.925781 4.238281 -0.753906 4.25 -0.609375 C 4.257812 -0.472656 4.269531 -0.351562 4.28125 -0.25 C 4.300781 -0.15625 4.320312 -0.078125 4.34375 -0.015625 L 4.34375 0 L 3.328125 0 L 3.328125 -0.015625 C 3.335938 -0.0664062 3.347656 -0.125 3.359375 -0.1875 C 3.367188 -0.25 3.375 -0.320312 3.375 -0.40625 C 3.3125 -0.351562 3.234375 -0.296875 3.140625 -0.234375 C 3.054688 -0.171875 2.957031 -0.113281 2.84375 -0.0625 C 2.738281 -0.0195312 2.613281 0.0078125 2.46875 0.03125 C 2.332031 0.0625 2.1875 0.078125 2.03125 0.078125 C 1.488281 0.078125 1.070312 -0.046875 0.78125 -0.296875 C 0.488281 -0.546875 0.34375 -0.898438 0.34375 -1.359375 Z M 3.40625 -2.703125 C 3.125 -2.703125 2.851562 -2.6875 2.59375 -2.65625 C 2.332031 -2.625 2.101562 -2.5625 1.90625 -2.46875 C 1.707031 -2.382812 1.546875 -2.253906 1.421875 -2.078125 C 1.304688 -1.910156 1.25 -1.6875 1.25 -1.40625 C 1.25 -1.039062 1.335938 -0.757812 1.515625 -0.5625 C 1.703125 -0.375 1.957031 -0.28125 2.28125 -0.28125 C 2.425781 -0.28125 2.5625 -0.300781 2.6875 -0.34375 C 2.8125 -0.382812 2.921875 -0.4375 3.015625 -0.5 C 3.109375 -0.5625 3.1875 -0.628906 3.25 -0.703125 C 3.3125 -0.785156 3.359375 -0.859375 3.390625 -0.921875 C 3.398438 -1.046875 3.40625 -1.175781 3.40625 -1.3125 C 3.40625 -1.457031 3.40625 -1.625 3.40625 -1.8125 Z M 3.40625 -2.703125 "/></g></g></g><g fill="#984ae8" fill-opacity="1"><g transform="translate(87.394078, 30.552631)"><g><path d="M 0.734375 -5.109375 C 0.734375 -5.367188 0.726562 -5.59375 0.71875 -5.78125 C 0.71875 -5.976562 0.710938 -6.148438 0.703125 -6.296875 C 0.691406 -6.441406 0.675781 -6.5625 0.65625 -6.65625 C 0.644531 -6.75 0.628906 -6.828125 0.609375 -6.890625 L 0.609375 -6.90625 L 1.671875 -6.90625 L 1.671875 -6.890625 C 1.648438 -6.828125 1.628906 -6.75 1.609375 -6.65625 C 1.597656 -6.5625 1.585938 -6.441406 1.578125 -6.296875 C 1.566406 -6.148438 1.554688 -5.976562 1.546875 -5.78125 C 1.546875 -5.59375 1.546875 -5.367188 1.546875 -5.109375 L 1.546875 -1.8125 C 1.546875 -1.550781 1.546875 -1.320312 1.546875 -1.125 C 1.554688 -0.925781 1.566406 -0.753906 1.578125 -0.609375 C 1.585938 -0.472656 1.597656 -0.351562 1.609375 -0.25 C 1.628906 -0.15625 1.648438 -0.078125 1.671875 -0.015625 L 1.671875 0 L 0.609375 0 L 0.609375 -0.015625 C 0.628906 -0.078125 0.644531 -0.15625 0.65625 -0.25 C 0.675781 -0.351562 0.691406 -0.472656 0.703125 -0.609375 C 0.710938 -0.753906 0.71875 -0.925781 0.71875 -1.125 C 0.726562 -1.320312 0.734375 -1.550781 0.734375 -1.8125 Z M 0.734375 -5.109375 "/></g></g></g><g fill="#984ae8" fill-opacity="1"><g transform="translate(89.678676, 30.552631)"><g><path d="M 0.734375 -5.109375 C 0.734375 -5.367188 0.726562 -5.59375 0.71875 -5.78125 C 0.71875 -5.976562 0.710938 -6.148438 0.703125 -6.296875 C 0.691406 -6.441406 0.675781 -6.5625 0.65625 -6.65625 C 0.644531 -6.75 0.628906 -6.828125 0.609375 -6.890625 L 0.609375 -6.90625 L 1.671875 -6.90625 L 1.671875 -6.890625 C 1.648438 -6.828125 1.628906 -6.75 1.609375 -6.65625 C 1.597656 -6.5625 1.585938 -6.441406 1.578125 -6.296875 C 1.566406 -6.148438 1.554688 -5.976562 1.546875 -5.78125 C 1.546875 -5.59375 1.546875 -5.367188 1.546875 -5.109375 L 1.546875 -1.8125 C 1.546875 -1.550781 1.546875 -1.320312 1.546875 -1.125 C 1.554688 -0.925781 1.566406 -0.753906 1.578125 -0.609375 C 1.585938 -0.472656 1.597656 -0.351562 1.609375 -0.25 C 1.628906 -0.15625 1.648438 -0.078125 1.671875 -0.015625 L 1.671875 0 L 0.609375 0 L 0.609375 -0.015625 C 0.628906 -0.078125 0.644531 -0.15625 0.65625 -0.25 C 0.675781 -0.351562 0.691406 -0.472656 0.703125 -0.609375 C 0.710938 -0.753906 0.71875 -0.925781 0.71875 -1.125 C 0.726562 -1.320312 0.734375 -1.550781 0.734375 -1.8125 Z M 0.734375 -5.109375 "/></g></g></g><g fill="#984ae8" fill-opacity="1"><g transform="translate(91.963274, 30.552631)"><g><path d="M 2.203125 -0.0625 L 0.5625 -3.609375 C 0.507812 -3.742188 0.445312 -3.875 0.375 -4 C 0.3125 -4.125 0.25 -4.234375 0.1875 -4.328125 C 0.125 -4.429688 0.0664062 -4.515625 0.015625 -4.578125 C -0.0234375 -4.648438 -0.0507812 -4.695312 -0.0625 -4.71875 L -0.0625 -4.734375 L 1.140625 -4.734375 L 1.140625 -4.71875 C 1.140625 -4.695312 1.132812 -4.671875 1.125 -4.640625 C 1.125 -4.609375 1.125 -4.582031 1.125 -4.5625 C 1.125 -4.46875 1.140625 -4.363281 1.171875 -4.25 C 1.203125 -4.132812 1.257812 -3.988281 1.34375 -3.8125 L 2.609375 -1.046875 L 3.78125 -3.78125 C 3.820312 -3.894531 3.867188 -4.019531 3.921875 -4.15625 C 3.972656 -4.289062 4 -4.425781 4 -4.5625 C 4 -4.601562 3.992188 -4.632812 3.984375 -4.65625 C 3.984375 -4.6875 3.976562 -4.707031 3.96875 -4.71875 L 3.96875 -4.734375 L 4.8125 -4.734375 L 4.8125 -4.71875 C 4.75 -4.65625 4.675781 -4.546875 4.59375 -4.390625 C 4.507812 -4.242188 4.421875 -4.0625 4.328125 -3.84375 L 2.125 1.40625 C 2.070312 1.519531 2.019531 1.644531 1.96875 1.78125 C 1.914062 1.914062 1.890625 2.054688 1.890625 2.203125 C 1.890625 2.234375 1.894531 2.257812 1.90625 2.28125 C 1.914062 2.3125 1.921875 2.332031 1.921875 2.34375 L 1.921875 2.375 L 1.0625 2.375 L 1.0625 2.34375 C 1.113281 2.289062 1.179688 2.191406 1.265625 2.046875 C 1.359375 1.898438 1.453125 1.710938 1.546875 1.484375 Z M 2.203125 -0.0625 "/></g></g></g><g fill="#984ae8" fill-opacity="1"><g transform="translate(96.708209, 30.552631)"><g/></g></g><g fill="#984ae8" fill-opacity="1"><g transform="translate(99.547771, 30.552631)"><g><path d="M 1.671875 -6.234375 C 1.671875 -5.890625 1.664062 -5.554688 1.65625 -5.234375 C 1.65625 -5.085938 1.648438 -4.941406 1.640625 -4.796875 C 1.640625 -4.660156 1.640625 -4.519531 1.640625 -4.375 C 1.640625 -4.238281 1.640625 -4.101562 1.640625 -3.96875 C 1.640625 -3.84375 1.640625 -3.734375 1.640625 -3.640625 C 1.640625 -3.429688 1.640625 -3.179688 1.640625 -2.890625 C 1.640625 -2.597656 1.640625 -2.296875 1.640625 -1.984375 C 1.648438 -1.671875 1.660156 -1.375 1.671875 -1.09375 C 1.679688 -0.8125 1.691406 -0.578125 1.703125 -0.390625 C 1.742188 -0.378906 1.800781 -0.367188 1.875 -0.359375 C 1.945312 -0.359375 2.023438 -0.351562 2.109375 -0.34375 C 2.191406 -0.34375 2.269531 -0.335938 2.34375 -0.328125 C 2.414062 -0.328125 2.476562 -0.328125 2.53125 -0.328125 C 2.75 -0.328125 2.972656 -0.34375 3.203125 -0.375 C 3.429688 -0.40625 3.648438 -0.457031 3.859375 -0.53125 C 4.066406 -0.613281 4.265625 -0.722656 4.453125 -0.859375 C 4.640625 -1.003906 4.800781 -1.1875 4.9375 -1.40625 C 5.082031 -1.632812 5.191406 -1.90625 5.265625 -2.21875 C 5.347656 -2.53125 5.390625 -2.898438 5.390625 -3.328125 C 5.390625 -3.796875 5.332031 -4.210938 5.21875 -4.578125 C 5.101562 -4.953125 4.9375 -5.265625 4.71875 -5.515625 C 4.5 -5.765625 4.226562 -5.953125 3.90625 -6.078125 C 3.582031 -6.210938 3.207031 -6.28125 2.78125 -6.28125 C 2.695312 -6.28125 2.601562 -6.28125 2.5 -6.28125 C 2.394531 -6.28125 2.289062 -6.273438 2.1875 -6.265625 C 2.082031 -6.265625 1.984375 -6.257812 1.890625 -6.25 C 1.804688 -6.238281 1.734375 -6.234375 1.671875 -6.234375 Z M 0.65625 -6.65625 C 0.726562 -6.644531 0.796875 -6.640625 0.859375 -6.640625 C 0.910156 -6.640625 0.960938 -6.632812 1.015625 -6.625 C 1.078125 -6.625 1.125 -6.625 1.15625 -6.625 C 1.21875 -6.625 1.316406 -6.628906 1.453125 -6.640625 C 1.585938 -6.648438 1.742188 -6.65625 1.921875 -6.65625 C 2.097656 -6.664062 2.28125 -6.671875 2.46875 -6.671875 C 2.65625 -6.679688 2.832031 -6.6875 3 -6.6875 C 3.445312 -6.6875 3.867188 -6.628906 4.265625 -6.515625 C 4.671875 -6.410156 5.023438 -6.226562 5.328125 -5.96875 C 5.640625 -5.71875 5.882812 -5.382812 6.0625 -4.96875 C 6.238281 -4.5625 6.328125 -4.0625 6.328125 -3.46875 C 6.328125 -3.039062 6.28125 -2.65625 6.1875 -2.3125 C 6.09375 -1.96875 5.960938 -1.664062 5.796875 -1.40625 C 5.628906 -1.144531 5.425781 -0.921875 5.1875 -0.734375 C 4.957031 -0.546875 4.695312 -0.390625 4.40625 -0.265625 C 4.125 -0.148438 3.820312 -0.0625 3.5 0 C 3.175781 0.0507812 2.835938 0.078125 2.484375 0.078125 C 2.367188 0.078125 2.222656 0.0703125 2.046875 0.0625 C 1.867188 0.0507812 1.691406 0.0390625 1.515625 0.03125 C 1.335938 0.0195312 1.171875 0.0078125 1.015625 0 C 0.867188 0 0.75 0 0.65625 0 L 0.65625 -0.015625 C 0.675781 -0.078125 0.691406 -0.15625 0.703125 -0.25 C 0.722656 -0.351562 0.738281 -0.472656 0.75 -0.609375 C 0.769531 -0.753906 0.78125 -0.925781 0.78125 -1.125 C 0.789062 -1.320312 0.796875 -1.550781 0.796875 -1.8125 L 0.796875 -4.8125 C 0.796875 -5.070312 0.789062 -5.300781 0.78125 -5.5 C 0.78125 -5.707031 0.769531 -5.878906 0.75 -6.015625 C 0.738281 -6.160156 0.722656 -6.28125 0.703125 -6.375 C 0.691406 -6.476562 0.675781 -6.5625 0.65625 -6.625 Z M 0.65625 -6.65625 "/></g></g></g><g fill="#984ae8" fill-opacity="1"><g transform="translate(106.309072, 30.552631)"><g><path d="M 2.78125 0.078125 C 2.4375 0.078125 2.113281 0.0234375 1.8125 -0.078125 C 1.519531 -0.179688 1.257812 -0.335938 1.03125 -0.546875 C 0.8125 -0.753906 0.640625 -1.007812 0.515625 -1.3125 C 0.390625 -1.625 0.328125 -1.976562 0.328125 -2.375 C 0.328125 -2.726562 0.382812 -3.050781 0.5 -3.34375 C 0.613281 -3.644531 0.773438 -3.90625 0.984375 -4.125 C 1.191406 -4.34375 1.429688 -4.507812 1.703125 -4.625 C 1.984375 -4.75 2.285156 -4.8125 2.609375 -4.8125 C 2.921875 -4.8125 3.210938 -4.753906 3.484375 -4.640625 C 3.753906 -4.535156 3.988281 -4.378906 4.1875 -4.171875 C 4.382812 -3.960938 4.539062 -3.703125 4.65625 -3.390625 C 4.78125 -3.085938 4.84375 -2.742188 4.84375 -2.359375 C 4.5 -2.367188 4.148438 -2.375 3.796875 -2.375 C 3.453125 -2.375 3.09375 -2.375 2.71875 -2.375 C 2.445312 -2.375 2.179688 -2.375 1.921875 -2.375 C 1.671875 -2.375 1.445312 -2.367188 1.25 -2.359375 C 1.269531 -2.035156 1.316406 -1.742188 1.390625 -1.484375 C 1.472656 -1.222656 1.585938 -1 1.734375 -0.8125 C 1.878906 -0.632812 2.050781 -0.492188 2.25 -0.390625 C 2.457031 -0.296875 2.691406 -0.25 2.953125 -0.25 C 3.128906 -0.25 3.296875 -0.269531 3.453125 -0.3125 C 3.617188 -0.351562 3.765625 -0.410156 3.890625 -0.484375 C 4.023438 -0.554688 4.140625 -0.644531 4.234375 -0.75 C 4.335938 -0.851562 4.425781 -0.960938 4.5 -1.078125 L 4.546875 -1.046875 L 4.21875 -0.21875 C 4.050781 -0.132812 3.847656 -0.0625 3.609375 0 C 3.378906 0.0507812 3.101562 0.078125 2.78125 0.078125 Z M 2.171875 -2.734375 C 2.472656 -2.734375 2.78125 -2.734375 3.09375 -2.734375 C 3.40625 -2.734375 3.6875 -2.738281 3.9375 -2.75 C 3.90625 -3.019531 3.851562 -3.257812 3.78125 -3.46875 C 3.707031 -3.6875 3.609375 -3.867188 3.484375 -4.015625 C 3.367188 -4.160156 3.226562 -4.273438 3.0625 -4.359375 C 2.894531 -4.441406 2.710938 -4.484375 2.515625 -4.484375 C 2.335938 -4.484375 2.171875 -4.441406 2.015625 -4.359375 C 1.867188 -4.285156 1.738281 -4.171875 1.625 -4.015625 C 1.519531 -3.867188 1.429688 -3.6875 1.359375 -3.46875 C 1.296875 -3.257812 1.257812 -3.019531 1.25 -2.75 C 1.382812 -2.738281 1.53125 -2.734375 1.6875 -2.734375 C 1.84375 -2.734375 2.003906 -2.734375 2.171875 -2.734375 Z M 2.171875 -2.734375 "/></g></g></g><g fill="#984ae8" fill-opacity="1"><g transform="translate(111.442481, 30.552631)"><g><path d="M 0.71875 -3.015625 C 0.71875 -3.273438 0.710938 -3.503906 0.703125 -3.703125 C 0.691406 -3.898438 0.679688 -4.066406 0.671875 -4.203125 C 0.660156 -4.347656 0.644531 -4.46875 0.625 -4.5625 C 0.613281 -4.664062 0.597656 -4.75 0.578125 -4.8125 L 0.578125 -4.828125 L 1.640625 -4.828125 L 1.640625 -4.8125 C 1.628906 -4.757812 1.613281 -4.703125 1.59375 -4.640625 C 1.582031 -4.585938 1.578125 -4.523438 1.578125 -4.453125 C 1.753906 -4.554688 1.953125 -4.644531 2.171875 -4.71875 C 2.390625 -4.789062 2.632812 -4.828125 2.90625 -4.828125 C 3.25 -4.828125 3.5625 -4.769531 3.84375 -4.65625 C 4.125 -4.539062 4.363281 -4.375 4.5625 -4.15625 C 4.769531 -3.9375 4.925781 -3.675781 5.03125 -3.375 C 5.144531 -3.070312 5.203125 -2.726562 5.203125 -2.34375 C 5.203125 -2.03125 5.144531 -1.726562 5.03125 -1.4375 C 4.925781 -1.144531 4.769531 -0.882812 4.5625 -0.65625 C 4.351562 -0.425781 4.09375 -0.242188 3.78125 -0.109375 C 3.46875 0.015625 3.113281 0.078125 2.71875 0.078125 C 2.476562 0.078125 2.257812 0.0546875 2.0625 0.015625 C 1.863281 -0.015625 1.679688 -0.0546875 1.515625 -0.109375 L 1.515625 0.5625 C 1.515625 0.820312 1.515625 1.050781 1.515625 1.25 C 1.523438 1.445312 1.535156 1.613281 1.546875 1.75 C 1.566406 1.894531 1.582031 2.015625 1.59375 2.109375 C 1.613281 2.203125 1.628906 2.28125 1.640625 2.34375 L 1.640625 2.375 L 0.578125 2.375 L 0.578125 2.34375 C 0.597656 2.28125 0.613281 2.203125 0.625 2.109375 C 0.644531 2.015625 0.660156 1.894531 0.671875 1.75 C 0.679688 1.613281 0.691406 1.445312 0.703125 1.25 C 0.710938 1.050781 0.71875 0.820312 0.71875 0.5625 Z M 2.75 -4.484375 C 2.644531 -4.484375 2.535156 -4.46875 2.421875 -4.4375 C 2.316406 -4.414062 2.207031 -4.378906 2.09375 -4.328125 C 1.988281 -4.285156 1.890625 -4.226562 1.796875 -4.15625 C 1.703125 -4.082031 1.613281 -4 1.53125 -3.90625 C 1.53125 -3.78125 1.523438 -3.644531 1.515625 -3.5 C 1.515625 -3.351562 1.515625 -3.191406 1.515625 -3.015625 L 1.515625 -0.59375 C 1.578125 -0.550781 1.644531 -0.507812 1.71875 -0.46875 C 1.800781 -0.425781 1.890625 -0.390625 1.984375 -0.359375 C 2.078125 -0.328125 2.1875 -0.300781 2.3125 -0.28125 C 2.4375 -0.257812 2.570312 -0.25 2.71875 -0.25 C 2.957031 -0.25 3.171875 -0.289062 3.359375 -0.375 C 3.554688 -0.46875 3.722656 -0.59375 3.859375 -0.75 C 3.992188 -0.914062 4.097656 -1.113281 4.171875 -1.34375 C 4.242188 -1.582031 4.28125 -1.851562 4.28125 -2.15625 C 4.28125 -2.488281 4.25 -2.796875 4.1875 -3.078125 C 4.132812 -3.359375 4.046875 -3.601562 3.921875 -3.8125 C 3.804688 -4.019531 3.648438 -4.179688 3.453125 -4.296875 C 3.265625 -4.421875 3.03125 -4.484375 2.75 -4.484375 Z M 2.75 -4.484375 "/></g></g></g><g fill="#984ae8" fill-opacity="1"><g transform="translate(116.973613, 30.552631)"><g><path d="M 0.734375 -5.109375 C 0.734375 -5.367188 0.726562 -5.59375 0.71875 -5.78125 C 0.71875 -5.976562 0.710938 -6.148438 0.703125 -6.296875 C 0.691406 -6.441406 0.675781 -6.5625 0.65625 -6.65625 C 0.644531 -6.75 0.628906 -6.828125 0.609375 -6.890625 L 0.609375 -6.90625 L 1.671875 -6.90625 L 1.671875 -6.890625 C 1.648438 -6.828125 1.628906 -6.75 1.609375 -6.65625 C 1.597656 -6.5625 1.585938 -6.441406 1.578125 -6.296875 C 1.566406 -6.148438 1.554688 -5.976562 1.546875 -5.78125 C 1.546875 -5.59375 1.546875 -5.367188 1.546875 -5.109375 L 1.546875 -1.8125 C 1.546875 -1.550781 1.546875 -1.320312 1.546875 -1.125 C 1.554688 -0.925781 1.566406 -0.753906 1.578125 -0.609375 C 1.585938 -0.472656 1.597656 -0.351562 1.609375 -0.25 C 1.628906 -0.15625 1.648438 -0.078125 1.671875 -0.015625 L 1.671875 0 L 0.609375 0 L 0.609375 -0.015625 C 0.628906 -0.078125 0.644531 -0.15625 0.65625 -0.25 C 0.675781 -0.351562 0.691406 -0.472656 0.703125 -0.609375 C 0.710938 -0.753906 0.71875 -0.925781 0.71875 -1.125 C 0.726562 -1.320312 0.734375 -1.550781 0.734375 -1.8125 Z M 0.734375 -5.109375 "/></g></g></g><g fill="#984ae8" fill-opacity="1"><g transform="translate(119.258211, 30.552631)"><g><path d="M 0.328125 -2.375 C 0.328125 -2.726562 0.390625 -3.050781 0.515625 -3.34375 C 0.648438 -3.644531 0.828125 -3.90625 1.046875 -4.125 C 1.273438 -4.34375 1.539062 -4.507812 1.84375 -4.625 C 2.15625 -4.75 2.488281 -4.8125 2.84375 -4.8125 C 3.195312 -4.8125 3.523438 -4.753906 3.828125 -4.640625 C 4.140625 -4.523438 4.40625 -4.359375 4.625 -4.140625 C 4.851562 -3.929688 5.035156 -3.675781 5.171875 -3.375 C 5.304688 -3.070312 5.375 -2.726562 5.375 -2.34375 C 5.375 -2.03125 5.316406 -1.726562 5.203125 -1.4375 C 5.085938 -1.144531 4.921875 -0.882812 4.703125 -0.65625 C 4.492188 -0.425781 4.234375 -0.242188 3.921875 -0.109375 C 3.609375 0.015625 3.25 0.078125 2.84375 0.078125 C 2.5 0.078125 2.171875 0.0195312 1.859375 -0.09375 C 1.554688 -0.207031 1.289062 -0.367188 1.0625 -0.578125 C 0.832031 -0.785156 0.648438 -1.039062 0.515625 -1.34375 C 0.390625 -1.65625 0.328125 -2 0.328125 -2.375 Z M 2.9375 -0.25 C 3.15625 -0.25 3.359375 -0.289062 3.546875 -0.375 C 3.734375 -0.46875 3.890625 -0.59375 4.015625 -0.75 C 4.148438 -0.914062 4.253906 -1.113281 4.328125 -1.34375 C 4.398438 -1.582031 4.4375 -1.851562 4.4375 -2.15625 C 4.4375 -2.488281 4.398438 -2.796875 4.328125 -3.078125 C 4.265625 -3.359375 4.160156 -3.601562 4.015625 -3.8125 C 3.878906 -4.019531 3.703125 -4.179688 3.484375 -4.296875 C 3.273438 -4.421875 3.03125 -4.484375 2.75 -4.484375 C 2.53125 -4.484375 2.328125 -4.4375 2.140625 -4.34375 C 1.960938 -4.257812 1.804688 -4.140625 1.671875 -3.984375 C 1.535156 -3.828125 1.429688 -3.628906 1.359375 -3.390625 C 1.285156 -3.160156 1.25 -2.898438 1.25 -2.609375 C 1.25 -2.273438 1.285156 -1.960938 1.359375 -1.671875 C 1.429688 -1.390625 1.535156 -1.140625 1.671875 -0.921875 C 1.816406 -0.710938 1.992188 -0.546875 2.203125 -0.421875 C 2.421875 -0.304688 2.664062 -0.25 2.9375 -0.25 Z M 2.9375 -0.25 "/></g></g></g><g fill="#984ae8" fill-opacity="1"><g transform="translate(124.951214, 30.552631)"><g><path d="M 2.203125 -0.0625 L 0.5625 -3.609375 C 0.507812 -3.742188 0.445312 -3.875 0.375 -4 C 0.3125 -4.125 0.25 -4.234375 0.1875 -4.328125 C 0.125 -4.429688 0.0664062 -4.515625 0.015625 -4.578125 C -0.0234375 -4.648438 -0.0507812 -4.695312 -0.0625 -4.71875 L -0.0625 -4.734375 L 1.140625 -4.734375 L 1.140625 -4.71875 C 1.140625 -4.695312 1.132812 -4.671875 1.125 -4.640625 C 1.125 -4.609375 1.125 -4.582031 1.125 -4.5625 C 1.125 -4.46875 1.140625 -4.363281 1.171875 -4.25 C 1.203125 -4.132812 1.257812 -3.988281 1.34375 -3.8125 L 2.609375 -1.046875 L 3.78125 -3.78125 C 3.820312 -3.894531 3.867188 -4.019531 3.921875 -4.15625 C 3.972656 -4.289062 4 -4.425781 4 -4.5625 C 4 -4.601562 3.992188 -4.632812 3.984375 -4.65625 C 3.984375 -4.6875 3.976562 -4.707031 3.96875 -4.71875 L 3.96875 -4.734375 L 4.8125 -4.734375 L 4.8125 -4.71875 C 4.75 -4.65625 4.675781 -4.546875 4.59375 -4.390625 C 4.507812 -4.242188 4.421875 -4.0625 4.328125 -3.84375 L 2.125 1.40625 C 2.070312 1.519531 2.019531 1.644531 1.96875 1.78125 C 1.914062 1.914062 1.890625 2.054688 1.890625 2.203125 C 1.890625 2.234375 1.894531 2.257812 1.90625 2.28125 C 1.914062 2.3125 1.921875 2.332031 1.921875 2.34375 L 1.921875 2.375 L 1.0625 2.375 L 1.0625 2.34375 C 1.113281 2.289062 1.179688 2.191406 1.265625 2.046875 C 1.359375 1.898438 1.453125 1.710938 1.546875 1.484375 Z M 2.203125 -0.0625 "/></g></g></g><g fill="#984ae8" fill-opacity="1"><g transform="translate(129.506486, 30.552631)"><g><path d="M 0.34375 -1.359375 C 0.34375 -1.609375 0.390625 -1.820312 0.484375 -2 C 0.585938 -2.175781 0.722656 -2.328125 0.890625 -2.453125 C 1.054688 -2.578125 1.242188 -2.675781 1.453125 -2.75 C 1.671875 -2.832031 1.894531 -2.894531 2.125 -2.9375 C 2.351562 -2.988281 2.578125 -3.019531 2.796875 -3.03125 C 3.015625 -3.050781 3.21875 -3.0625 3.40625 -3.0625 L 3.40625 -3.3125 C 3.40625 -3.507812 3.378906 -3.679688 3.328125 -3.828125 C 3.273438 -3.984375 3.203125 -4.109375 3.109375 -4.203125 C 3.015625 -4.296875 2.898438 -4.363281 2.765625 -4.40625 C 2.628906 -4.457031 2.484375 -4.484375 2.328125 -4.484375 C 2.210938 -4.484375 2.097656 -4.472656 1.984375 -4.453125 C 1.878906 -4.441406 1.769531 -4.410156 1.65625 -4.359375 C 1.539062 -4.316406 1.414062 -4.257812 1.28125 -4.1875 C 1.15625 -4.113281 1.019531 -4.019531 0.875 -3.90625 L 0.828125 -3.9375 L 1.140625 -4.59375 C 1.242188 -4.632812 1.34375 -4.671875 1.4375 -4.703125 C 1.539062 -4.734375 1.644531 -4.753906 1.75 -4.765625 C 1.851562 -4.785156 1.957031 -4.800781 2.0625 -4.8125 C 2.164062 -4.820312 2.273438 -4.828125 2.390625 -4.828125 C 2.710938 -4.828125 2.988281 -4.785156 3.21875 -4.703125 C 3.445312 -4.628906 3.632812 -4.519531 3.78125 -4.375 C 3.9375 -4.238281 4.046875 -4.078125 4.109375 -3.890625 C 4.179688 -3.710938 4.21875 -3.519531 4.21875 -3.3125 L 4.21875 -1.8125 C 4.21875 -1.550781 4.21875 -1.320312 4.21875 -1.125 C 4.226562 -0.925781 4.238281 -0.753906 4.25 -0.609375 C 4.257812 -0.472656 4.269531 -0.351562 4.28125 -0.25 C 4.300781 -0.15625 4.320312 -0.078125 4.34375 -0.015625 L 4.34375 0 L 3.328125 0 L 3.328125 -0.015625 C 3.335938 -0.0664062 3.347656 -0.125 3.359375 -0.1875 C 3.367188 -0.25 3.375 -0.320312 3.375 -0.40625 C 3.3125 -0.351562 3.234375 -0.296875 3.140625 -0.234375 C 3.054688 -0.171875 2.957031 -0.113281 2.84375 -0.0625 C 2.738281 -0.0195312 2.613281 0.0078125 2.46875 0.03125 C 2.332031 0.0625 2.1875 0.078125 2.03125 0.078125 C 1.488281 0.078125 1.070312 -0.046875 0.78125 -0.296875 C 0.488281 -0.546875 0.34375 -0.898438 0.34375 -1.359375 Z M 3.40625 -2.703125 C 3.125 -2.703125 2.851562 -2.6875 2.59375 -2.65625 C 2.332031 -2.625 2.101562 -2.5625 1.90625 -2.46875 C 1.707031 -2.382812 1.546875 -2.253906 1.421875 -2.078125 C 1.304688 -1.910156 1.25 -1.6875 1.25 -1.40625 C 1.25 -1.039062 1.335938 -0.757812 1.515625 -0.5625 C 1.703125 -0.375 1.957031 -0.28125 2.28125 -0.28125 C 2.425781 -0.28125 2.5625 -0.300781 2.6875 -0.34375 C 2.8125 -0.382812 2.921875 -0.4375 3.015625 -0.5 C 3.109375 -0.5625 3.1875 -0.628906 3.25 -0.703125 C 3.3125 -0.785156 3.359375 -0.859375 3.390625 -0.921875 C 3.398438 -1.046875 3.40625 -1.175781 3.40625 -1.3125 C 3.40625 -1.457031 3.40625 -1.625 3.40625 -1.8125 Z M 3.40625 -2.703125 "/></g></g></g><g fill="#984ae8" fill-opacity="1"><g transform="translate(134.404041, 30.552631)"><g><path d="M 1.515625 -4.5 C 1.710938 -4.601562 1.921875 -4.679688 2.140625 -4.734375 C 2.359375 -4.785156 2.582031 -4.8125 2.8125 -4.8125 C 3.15625 -4.8125 3.472656 -4.753906 3.765625 -4.640625 C 4.054688 -4.523438 4.304688 -4.359375 4.515625 -4.140625 C 4.734375 -3.929688 4.898438 -3.675781 5.015625 -3.375 C 5.140625 -3.070312 5.203125 -2.726562 5.203125 -2.34375 C 5.203125 -2.03125 5.144531 -1.726562 5.03125 -1.4375 C 4.925781 -1.144531 4.765625 -0.882812 4.546875 -0.65625 C 4.328125 -0.425781 4.054688 -0.242188 3.734375 -0.109375 C 3.421875 0.015625 3.050781 0.078125 2.625 0.078125 C 2.570312 0.078125 2.503906 0.078125 2.421875 0.078125 C 2.335938 0.078125 2.242188 0.0703125 2.140625 0.0625 C 2.046875 0.0507812 1.941406 0.0351562 1.828125 0.015625 C 1.722656 0.00390625 1.617188 -0.0078125 1.515625 -0.03125 C 1.367188 -0.0703125 1.21875 -0.113281 1.0625 -0.15625 C 0.914062 -0.195312 0.773438 -0.242188 0.640625 -0.296875 C 0.648438 -0.335938 0.660156 -0.410156 0.671875 -0.515625 C 0.679688 -0.628906 0.6875 -0.75 0.6875 -0.875 C 0.695312 -1 0.703125 -1.125 0.703125 -1.25 C 0.710938 -1.375 0.71875 -1.472656 0.71875 -1.546875 L 0.71875 -5.109375 C 0.71875 -5.367188 0.710938 -5.59375 0.703125 -5.78125 C 0.691406 -5.976562 0.679688 -6.148438 0.671875 -6.296875 C 0.660156 -6.441406 0.644531 -6.5625 0.625 -6.65625 C 0.613281 -6.75 0.597656 -6.828125 0.578125 -6.890625 L 0.578125 -6.90625 L 1.640625 -6.90625 L 1.640625 -6.890625 C 1.628906 -6.828125 1.613281 -6.75 1.59375 -6.65625 C 1.582031 -6.5625 1.566406 -6.441406 1.546875 -6.296875 C 1.535156 -6.148438 1.523438 -5.976562 1.515625 -5.78125 C 1.515625 -5.59375 1.515625 -5.367188 1.515625 -5.109375 Z M 1.515625 -1.625 C 1.515625 -1.375 1.515625 -1.164062 1.515625 -1 C 1.523438 -0.832031 1.535156 -0.703125 1.546875 -0.609375 C 1.671875 -0.503906 1.84375 -0.414062 2.0625 -0.34375 C 2.289062 -0.28125 2.535156 -0.25 2.796875 -0.25 C 3.015625 -0.25 3.210938 -0.289062 3.390625 -0.375 C 3.578125 -0.46875 3.734375 -0.59375 3.859375 -0.75 C 3.992188 -0.914062 4.097656 -1.113281 4.171875 -1.34375 C 4.242188 -1.582031 4.28125 -1.851562 4.28125 -2.15625 C 4.28125 -2.488281 4.25 -2.796875 4.1875 -3.078125 C 4.125 -3.359375 4.023438 -3.601562 3.890625 -3.8125 C 3.765625 -4.019531 3.601562 -4.179688 3.40625 -4.296875 C 3.207031 -4.421875 2.96875 -4.484375 2.6875 -4.484375 C 2.457031 -4.484375 2.238281 -4.429688 2.03125 -4.328125 C 1.832031 -4.234375 1.660156 -4.097656 1.515625 -3.921875 Z M 1.515625 -1.625 "/></g></g></g><g fill="#984ae8" fill-opacity="1"><g transform="translate(139.935174, 30.552631)"><g><path d="M 0.734375 -5.109375 C 0.734375 -5.367188 0.726562 -5.59375 0.71875 -5.78125 C 0.71875 -5.976562 0.710938 -6.148438 0.703125 -6.296875 C 0.691406 -6.441406 0.675781 -6.5625 0.65625 -6.65625 C 0.644531 -6.75 0.628906 -6.828125 0.609375 -6.890625 L 0.609375 -6.90625 L 1.671875 -6.90625 L 1.671875 -6.890625 C 1.648438 -6.828125 1.628906 -6.75 1.609375 -6.65625 C 1.597656 -6.5625 1.585938 -6.441406 1.578125 -6.296875 C 1.566406 -6.148438 1.554688 -5.976562 1.546875 -5.78125 C 1.546875 -5.59375 1.546875 -5.367188 1.546875 -5.109375 L 1.546875 -1.8125 C 1.546875 -1.550781 1.546875 -1.320312 1.546875 -1.125 C 1.554688 -0.925781 1.566406 -0.753906 1.578125 -0.609375 C 1.585938 -0.472656 1.597656 -0.351562 1.609375 -0.25 C 1.628906 -0.15625 1.648438 -0.078125 1.671875 -0.015625 L 1.671875 0 L 0.609375 0 L 0.609375 -0.015625 C 0.628906 -0.078125 0.644531 -0.15625 0.65625 -0.25 C 0.675781 -0.351562 0.691406 -0.472656 0.703125 -0.609375 C 0.710938 -0.753906 0.71875 -0.925781 0.71875 -1.125 C 0.726562 -1.320312 0.734375 -1.550781 0.734375 -1.8125 Z M 0.734375 -5.109375 "/></g></g></g><g fill="#984ae8" fill-opacity="1"><g transform="translate(142.219772, 30.552631)"><g><path d="M 2.78125 0.078125 C 2.4375 0.078125 2.113281 0.0234375 1.8125 -0.078125 C 1.519531 -0.179688 1.257812 -0.335938 1.03125 -0.546875 C 0.8125 -0.753906 0.640625 -1.007812 0.515625 -1.3125 C 0.390625 -1.625 0.328125 -1.976562 0.328125 -2.375 C 0.328125 -2.726562 0.382812 -3.050781 0.5 -3.34375 C 0.613281 -3.644531 0.773438 -3.90625 0.984375 -4.125 C 1.191406 -4.34375 1.429688 -4.507812 1.703125 -4.625 C 1.984375 -4.75 2.285156 -4.8125 2.609375 -4.8125 C 2.921875 -4.8125 3.210938 -4.753906 3.484375 -4.640625 C 3.753906 -4.535156 3.988281 -4.378906 4.1875 -4.171875 C 4.382812 -3.960938 4.539062 -3.703125 4.65625 -3.390625 C 4.78125 -3.085938 4.84375 -2.742188 4.84375 -2.359375 C 4.5 -2.367188 4.148438 -2.375 3.796875 -2.375 C 3.453125 -2.375 3.09375 -2.375 2.71875 -2.375 C 2.445312 -2.375 2.179688 -2.375 1.921875 -2.375 C 1.671875 -2.375 1.445312 -2.367188 1.25 -2.359375 C 1.269531 -2.035156 1.316406 -1.742188 1.390625 -1.484375 C 1.472656 -1.222656 1.585938 -1 1.734375 -0.8125 C 1.878906 -0.632812 2.050781 -0.492188 2.25 -0.390625 C 2.457031 -0.296875 2.691406 -0.25 2.953125 -0.25 C 3.128906 -0.25 3.296875 -0.269531 3.453125 -0.3125 C 3.617188 -0.351562 3.765625 -0.410156 3.890625 -0.484375 C 4.023438 -0.554688 4.140625 -0.644531 4.234375 -0.75 C 4.335938 -0.851562 4.425781 -0.960938 4.5 -1.078125 L 4.546875 -1.046875 L 4.21875 -0.21875 C 4.050781 -0.132812 3.847656 -0.0625 3.609375 0 C 3.378906 0.0507812 3.101562 0.078125 2.78125 0.078125 Z M 2.171875 -2.734375 C 2.472656 -2.734375 2.78125 -2.734375 3.09375 -2.734375 C 3.40625 -2.734375 3.6875 -2.738281 3.9375 -2.75 C 3.90625 -3.019531 3.851562 -3.257812 3.78125 -3.46875 C 3.707031 -3.6875 3.609375 -3.867188 3.484375 -4.015625 C 3.367188 -4.160156 3.226562 -4.273438 3.0625 -4.359375 C 2.894531 -4.441406 2.710938 -4.484375 2.515625 -4.484375 C 2.335938 -4.484375 2.171875 -4.441406 2.015625 -4.359375 C 1.867188 -4.285156 1.738281 -4.171875 1.625 -4.015625 C 1.519531 -3.867188 1.429688 -3.6875 1.359375 -3.46875 C 1.296875 -3.257812 1.257812 -3.019531 1.25 -2.75 C 1.382812 -2.738281 1.53125 -2.734375 1.6875 -2.734375 C 1.84375 -2.734375 2.003906 -2.734375 2.171875 -2.734375 Z M 2.171875 -2.734375 "/></g></g></g><g fill="#984ae8" fill-opacity="1"><g transform="translate(147.353181, 30.552631)"><g/></g></g><g fill="#984ae8" fill-opacity="1"><g transform="translate(150.192742, 30.552631)"><g><path d="M 5.25 0 L 5.25 -0.015625 C 5.25 -0.0351562 5.25 -0.0625 5.25 -0.09375 C 5.257812 -0.125 5.265625 -0.148438 5.265625 -0.171875 C 5.265625 -0.265625 5.25 -0.367188 5.21875 -0.484375 C 5.195312 -0.597656 5.148438 -0.742188 5.078125 -0.921875 L 4.515625 -2.171875 C 4.347656 -2.179688 4.117188 -2.1875 3.828125 -2.1875 C 3.535156 -2.1875 3.226562 -2.1875 2.90625 -2.1875 C 2.65625 -2.1875 2.414062 -2.1875 2.1875 -2.1875 C 1.96875 -2.1875 1.765625 -2.179688 1.578125 -2.171875 L 1.046875 -0.953125 C 1.003906 -0.835938 0.957031 -0.710938 0.90625 -0.578125 C 0.851562 -0.441406 0.828125 -0.304688 0.828125 -0.171875 C 0.828125 -0.128906 0.828125 -0.09375 0.828125 -0.0625 C 0.835938 -0.0390625 0.84375 -0.0234375 0.84375 -0.015625 L 0.84375 0 L -0.09375 0 L -0.09375 -0.015625 C -0.0390625 -0.078125 0.0234375 -0.179688 0.109375 -0.328125 C 0.191406 -0.484375 0.285156 -0.671875 0.390625 -0.890625 L 3.03125 -6.765625 L 3.40625 -6.765625 L 5.921875 -1.125 C 5.972656 -0.988281 6.03125 -0.859375 6.09375 -0.734375 C 6.164062 -0.609375 6.226562 -0.492188 6.28125 -0.390625 C 6.332031 -0.296875 6.378906 -0.210938 6.421875 -0.140625 C 6.460938 -0.078125 6.492188 -0.0351562 6.515625 -0.015625 L 6.515625 0 Z M 2.25 -2.578125 C 2.425781 -2.578125 2.609375 -2.578125 2.796875 -2.578125 C 2.984375 -2.585938 3.164062 -2.59375 3.34375 -2.59375 C 3.53125 -2.59375 3.707031 -2.59375 3.875 -2.59375 C 4.039062 -2.59375 4.191406 -2.597656 4.328125 -2.609375 L 3.03125 -5.53125 L 1.75 -2.578125 Z M 2.25 -2.578125 "/></g></g></g><g fill="#984ae8" fill-opacity="1"><g transform="translate(156.616446, 30.552631)"><g><path d="M 0.703125 -0.015625 C 0.722656 -0.078125 0.738281 -0.15625 0.75 -0.25 C 0.769531 -0.351562 0.785156 -0.472656 0.796875 -0.609375 C 0.804688 -0.753906 0.8125 -0.925781 0.8125 -1.125 C 0.820312 -1.320312 0.828125 -1.550781 0.828125 -1.8125 L 0.828125 -4.8125 C 0.828125 -5.070312 0.820312 -5.300781 0.8125 -5.5 C 0.8125 -5.695312 0.804688 -5.867188 0.796875 -6.015625 C 0.785156 -6.160156 0.769531 -6.28125 0.75 -6.375 C 0.738281 -6.46875 0.722656 -6.546875 0.703125 -6.609375 L 0.703125 -6.625 L 1.8125 -6.625 L 1.8125 -6.609375 C 1.789062 -6.546875 1.769531 -6.46875 1.75 -6.375 C 1.738281 -6.28125 1.726562 -6.160156 1.71875 -6.015625 C 1.707031 -5.867188 1.695312 -5.695312 1.6875 -5.5 C 1.675781 -5.300781 1.671875 -5.070312 1.671875 -4.8125 L 1.671875 -1.8125 C 1.671875 -1.550781 1.675781 -1.320312 1.6875 -1.125 C 1.695312 -0.925781 1.707031 -0.753906 1.71875 -0.609375 C 1.726562 -0.472656 1.738281 -0.351562 1.75 -0.25 C 1.769531 -0.15625 1.789062 -0.078125 1.8125 -0.015625 L 1.8125 0 L 0.703125 0 Z M 0.703125 -0.015625 "/></g></g></g><g clip-path="url(#42f374274f)"><g clip-path="url(#72e430abcc)"><path stroke-linecap="butt" transform="matrix(0, 0.740132, -0.740132, 0, 46.197728, 4.260989)" fill="none" stroke-linejoin="miter" d="M 31.150432 -0.00201364 C 35.615432 -0.00201364 39.235988 4.040764 39.235988 9.022987 C 39.235988 14.005209 35.615432 18.042709 31.150432 18.042709 L 8.081264 18.042709 C 3.621542 18.042709 0.000985982 14.005209 0.000985982 9.022987 C 0.000985982 4.040764 3.621542 -0.00201364 8.081264 -0.00201364 Z M 31.150432 -0.00201364 " stroke="#ffffff" stroke-width="6" stroke-opacity="1" stroke-miterlimit="4"/></g></g><g clip-path="url(#eefe0fd50f)"><path stroke-linecap="butt" transform="matrix(0.740132, 0, 0, 0.740132, 47.966951, 6.768175)" fill="none" stroke-linejoin="miter" d="M 0.00243107 1.500722 L 11.434098 1.500722 C 14.748543 1.500722 17.434932 4.187111 17.434932 7.501555 L 17.434932 24.960445 C 17.434932 28.274889 14.748543 30.961278 11.434098 30.961278 L 0.00243107 30.961278 " stroke="#ffffff" stroke-width="3" stroke-opacity="1" stroke-miterlimit="4"/></g></svg>