<svg xmlns="http://www.w3.org/2000/svg" xmlns:xlink="http://www.w3.org/1999/xlink" width="500" zoomAndPan="magnify" viewBox="0 0 375 374.999991" height="500" preserveAspectRatio="xMidYMid meet" version="1.0"><defs><clipPath id="5eef5c7f8c"><path d="M 32.410156 32.894531 L 174.910156 32.894531 L 174.910156 341.882812 L 32.410156 341.882812 Z M 32.410156 32.894531 " clip-rule="nonzero"/></clipPath><clipPath id="22d3370cd4"><path d="M 174.910156 278.390625 C 174.910156 313.574219 143.078125 342.097656 103.8125 342.097656 C 64.546875 342.097656 32.714844 313.574219 32.714844 278.390625 L 32.714844 96.601562 C 32.714844 61.417969 64.546875 32.894531 103.8125 32.894531 C 143.078125 32.894531 174.910156 61.417969 174.910156 96.601562 Z M 174.910156 278.390625 " clip-rule="nonzero"/></clipPath></defs><g clip-path="url(#5eef5c7f8c)"><g clip-path="url(#22d3370cd4)"><path stroke-linecap="butt" transform="matrix(0, 0.75, -0.75, 0, 174.910159, 32.893614)" fill="none" stroke-linejoin="miter" d="M 327.32937 0.00000421898 C 374.240832 0.00000421898 412.272084 42.442715 412.272084 94.796885 C 412.272084 147.151056 374.240832 189.593767 327.32937 189.593767 L 84.943938 189.593767 C 38.032476 189.593767 0.00122364 147.151056 0.00122364 94.796885 C 0.00122364 42.442715 38.032476 0.00000421898 84.943938 0.00000421898 Z M 327.32937 0.00000421898 " stroke="#1c1678" stroke-width="60" stroke-opacity="1" stroke-miterlimit="4"/></g></g><path stroke-linecap="butt" transform="matrix(0.75, 0, 0, 0.75, 193.665388, 60.190652)" fill="none" stroke-linejoin="miter" d="M -0.00176704 15.001007 L 121.164908 15.001007 C 155.404493 15.001007 183.164912 42.756217 183.164912 77.001011 L 183.164912 262.490606 C 183.164912 296.7354 155.404493 324.49061 121.164908 324.49061 L -0.00176704 324.49061 " stroke="#1c1678" stroke-width="30" stroke-opacity="1" stroke-miterlimit="4"/></svg>