<svg xmlns="http://www.w3.org/2000/svg" xmlns:xlink="http://www.w3.org/1999/xlink" width="500" zoomAndPan="magnify" viewBox="0 0 375 187.499995" height="250" preserveAspectRatio="xMidYMid meet" version="1.0"><defs><g/><clipPath id="ad312e2ea3"><rect x="0" width="188" y="0" height="49"/></clipPath><clipPath id="6416587842"><path d="M 57.015625 61.953125 L 83.941406 61.953125 L 83.941406 116.550781 L 57.015625 116.550781 Z M 57.015625 61.953125 " clip-rule="nonzero"/></clipPath><clipPath id="790137d45f"><path d="M 83.941406 102.417969 C 83.941406 110.109375 77.871094 116.347656 70.378906 116.347656 C 62.886719 116.347656 56.816406 110.109375 56.816406 102.417969 L 56.816406 75.878906 C 56.816406 68.191406 62.886719 61.953125 70.378906 61.953125 C 77.871094 61.953125 83.941406 68.191406 83.941406 75.878906 Z M 83.941406 102.417969 " clip-rule="nonzero"/></clipPath></defs><g transform="matrix(1, 0, 0, 1, 132, 65)"><g clip-path="url(#ad312e2ea3)"><g fill="#ffffff" fill-opacity="1"><g transform="translate(0.236539, 34.624315)"><g><path d="M 10.59375 -24.390625 C 13.195312 -24.390625 15.472656 -23.890625 17.421875 -22.890625 C 19.378906 -21.898438 20.890625 -20.472656 21.953125 -18.609375 C 23.015625 -16.753906 23.546875 -14.585938 23.546875 -12.109375 C 23.546875 -9.628906 23.015625 -7.472656 21.953125 -5.640625 C 20.890625 -3.816406 19.378906 -2.421875 17.421875 -1.453125 C 15.472656 -0.484375 13.195312 0 10.59375 0 L 2.625 0 L 2.625 -24.390625 Z M 10.59375 -3.265625 C 13.445312 -3.265625 15.632812 -4.035156 17.15625 -5.578125 C 18.675781 -7.117188 19.4375 -9.296875 19.4375 -12.109375 C 19.4375 -14.941406 18.675781 -17.148438 17.15625 -18.734375 C 15.632812 -20.328125 13.445312 -21.125 10.59375 -21.125 L 6.625 -21.125 L 6.625 -3.265625 Z M 10.59375 -3.265625 "/></g></g></g><g fill="#ffffff" fill-opacity="1"><g transform="translate(25.10253, 34.624315)"><g><path d="M 6.625 -16.53125 C 7.21875 -17.507812 8 -18.273438 8.96875 -18.828125 C 9.9375 -19.378906 11.085938 -19.65625 12.421875 -19.65625 L 12.421875 -15.515625 L 11.40625 -15.515625 C 9.832031 -15.515625 8.640625 -15.113281 7.828125 -14.3125 C 7.023438 -13.519531 6.625 -12.140625 6.625 -10.171875 L 6.625 0 L 2.625 0 L 2.625 -19.34375 L 6.625 -19.34375 Z M 6.625 -16.53125 "/></g></g></g><g fill="#ffffff" fill-opacity="1"><g transform="translate(38.570141, 34.624315)"><g><path d="M 4.671875 -21.90625 C 3.941406 -21.90625 3.332031 -22.148438 2.84375 -22.640625 C 2.351562 -23.128906 2.109375 -23.734375 2.109375 -24.453125 C 2.109375 -25.179688 2.351562 -25.789062 2.84375 -26.28125 C 3.332031 -26.769531 3.941406 -27.015625 4.671875 -27.015625 C 5.367188 -27.015625 5.960938 -26.769531 6.453125 -26.28125 C 6.941406 -25.789062 7.1875 -25.179688 7.1875 -24.453125 C 7.1875 -23.734375 6.941406 -23.128906 6.453125 -22.640625 C 5.960938 -22.148438 5.367188 -21.90625 4.671875 -21.90625 Z M 6.625 -19.34375 L 6.625 0 L 2.625 0 L 2.625 -19.34375 Z M 6.625 -19.34375 "/></g></g></g><g fill="#ffffff" fill-opacity="1"><g transform="translate(47.829136, 34.624315)"><g><path d="M 10.734375 -16.078125 L 7.15625 -16.078125 L 7.15625 0 L 3.125 0 L 3.125 -16.078125 L 0.84375 -16.078125 L 0.84375 -19.34375 L 3.125 -19.34375 L 3.125 -20.703125 C 3.125 -22.929688 3.710938 -24.550781 4.890625 -25.5625 C 6.078125 -26.582031 7.929688 -27.09375 10.453125 -27.09375 L 10.453125 -23.765625 C 9.242188 -23.765625 8.390625 -23.535156 7.890625 -23.078125 C 7.398438 -22.617188 7.15625 -21.828125 7.15625 -20.703125 L 7.15625 -19.34375 L 10.734375 -19.34375 Z M 10.734375 -16.078125 "/></g></g></g><g fill="#ffffff" fill-opacity="1"><g transform="translate(59.473015, 34.624315)"><g><path d="M 7.296875 -16.078125 L 7.296875 -5.375 C 7.296875 -4.644531 7.460938 -4.117188 7.796875 -3.796875 C 8.140625 -3.484375 8.722656 -3.328125 9.546875 -3.328125 L 12 -3.328125 L 12 0 L 8.84375 0 C 7.039062 0 5.660156 -0.421875 4.703125 -1.265625 C 3.742188 -2.109375 3.265625 -3.476562 3.265625 -5.375 L 3.265625 -16.078125 L 0.984375 -16.078125 L 0.984375 -19.34375 L 3.265625 -19.34375 L 3.265625 -24.140625 L 7.296875 -24.140625 L 7.296875 -19.34375 L 12 -19.34375 L 12 -16.078125 Z M 7.296875 -16.078125 "/></g></g></g><g fill="#ffffff" fill-opacity="1"><g transform="translate(72.519756, 34.624315)"><g><path d="M 6.625 -25.96875 L 6.625 0 L 2.625 0 L 2.625 -25.96875 Z M 6.625 -25.96875 "/></g></g></g><g fill="#ffffff" fill-opacity="1"><g transform="translate(81.778752, 34.624315)"><g><path d="M 11.015625 0.3125 C 9.191406 0.3125 7.539062 -0.0976562 6.0625 -0.921875 C 4.59375 -1.753906 3.4375 -2.925781 2.59375 -4.4375 C 1.75 -5.945312 1.328125 -7.695312 1.328125 -9.6875 C 1.328125 -11.65625 1.757812 -13.398438 2.625 -14.921875 C 3.5 -16.441406 4.679688 -17.609375 6.171875 -18.421875 C 7.671875 -19.242188 9.34375 -19.65625 11.1875 -19.65625 C 13.039062 -19.65625 14.710938 -19.242188 16.203125 -18.421875 C 17.703125 -17.609375 18.882812 -16.441406 19.75 -14.921875 C 20.625 -13.398438 21.0625 -11.65625 21.0625 -9.6875 C 21.0625 -7.71875 20.613281 -5.972656 19.71875 -4.453125 C 18.832031 -2.929688 17.625 -1.753906 16.09375 -0.921875 C 14.5625 -0.0976562 12.867188 0.3125 11.015625 0.3125 Z M 11.015625 -3.15625 C 12.046875 -3.15625 13.007812 -3.398438 13.90625 -3.890625 C 14.8125 -4.378906 15.546875 -5.113281 16.109375 -6.09375 C 16.671875 -7.082031 16.953125 -8.28125 16.953125 -9.6875 C 16.953125 -11.09375 16.679688 -12.28125 16.140625 -13.25 C 15.609375 -14.21875 14.894531 -14.945312 14 -15.4375 C 13.113281 -15.925781 12.15625 -16.171875 11.125 -16.171875 C 10.09375 -16.171875 9.140625 -15.925781 8.265625 -15.4375 C 7.390625 -14.945312 6.691406 -14.21875 6.171875 -13.25 C 5.660156 -12.28125 5.40625 -11.09375 5.40625 -9.6875 C 5.40625 -7.601562 5.9375 -5.992188 7 -4.859375 C 8.0625 -3.722656 9.398438 -3.15625 11.015625 -3.15625 Z M 11.015625 -3.15625 "/></g></g></g><g fill="#ffffff" fill-opacity="1"><g transform="translate(104.154616, 34.624315)"><g><path d="M 1.296875 -9.6875 C 1.296875 -11.675781 1.695312 -13.425781 2.5 -14.9375 C 3.3125 -16.445312 4.429688 -17.609375 5.859375 -18.421875 C 7.285156 -19.242188 8.925781 -19.65625 10.78125 -19.65625 C 13.113281 -19.65625 15.046875 -19.097656 16.578125 -17.984375 C 18.109375 -16.867188 19.144531 -15.285156 19.6875 -13.234375 L 15.375 -13.234375 C 15.019531 -14.191406 14.457031 -14.9375 13.6875 -15.46875 C 12.914062 -16.007812 11.945312 -16.28125 10.78125 -16.28125 C 9.132812 -16.28125 7.828125 -15.703125 6.859375 -14.546875 C 5.890625 -13.390625 5.40625 -11.769531 5.40625 -9.6875 C 5.40625 -7.601562 5.890625 -5.972656 6.859375 -4.796875 C 7.828125 -3.628906 9.132812 -3.046875 10.78125 -3.046875 C 13.09375 -3.046875 14.625 -4.066406 15.375 -6.109375 L 19.6875 -6.109375 C 19.125 -4.140625 18.070312 -2.578125 16.53125 -1.421875 C 14.988281 -0.265625 13.070312 0.3125 10.78125 0.3125 C 8.925781 0.3125 7.285156 -0.0976562 5.859375 -0.921875 C 4.429688 -1.753906 3.3125 -2.925781 2.5 -4.4375 C 1.695312 -5.945312 1.296875 -7.695312 1.296875 -9.6875 Z M 1.296875 -9.6875 "/></g></g></g><g fill="#ffffff" fill-opacity="1"><g transform="translate(125.197771, 34.624315)"><g><path d="M 10.28125 -9.65625 L 19.203125 0 L 13.796875 0 L 6.625 -8.3125 L 6.625 0 L 2.625 0 L 2.625 -25.96875 L 6.625 -25.96875 L 6.625 -10.875 L 13.65625 -19.34375 L 19.203125 -19.34375 Z M 10.28125 -9.65625 "/></g></g></g><g fill="#ffffff" fill-opacity="1"><g transform="translate(144.627602, 34.624315)"><g><path d="M 4.25 0.25 C 3.519531 0.25 2.910156 0.00390625 2.421875 -0.484375 C 1.929688 -0.984375 1.6875 -1.59375 1.6875 -2.3125 C 1.6875 -3.039062 1.929688 -3.648438 2.421875 -4.140625 C 2.910156 -4.628906 3.519531 -4.875 4.25 -4.875 C 4.945312 -4.875 5.539062 -4.628906 6.03125 -4.140625 C 6.519531 -3.648438 6.765625 -3.039062 6.765625 -2.3125 C 6.765625 -1.59375 6.519531 -0.984375 6.03125 -0.484375 C 5.539062 0.00390625 4.945312 0.25 4.25 0.25 Z M 4.25 0.25 "/></g></g></g><g fill="#ffffff" fill-opacity="1"><g transform="translate(153.079923, 34.624315)"><g><path d="M 1.296875 -9.75 C 1.296875 -11.695312 1.695312 -13.414062 2.5 -14.90625 C 3.3125 -16.40625 4.410156 -17.570312 5.796875 -18.40625 C 7.191406 -19.238281 8.734375 -19.65625 10.421875 -19.65625 C 11.941406 -19.65625 13.269531 -19.351562 14.40625 -18.75 C 15.539062 -18.15625 16.445312 -17.414062 17.125 -16.53125 L 17.125 -19.34375 L 21.15625 -19.34375 L 21.15625 0 L 17.125 0 L 17.125 -2.875 C 16.445312 -1.96875 15.519531 -1.207031 14.34375 -0.59375 C 13.175781 0.0078125 11.847656 0.3125 10.359375 0.3125 C 8.691406 0.3125 7.164062 -0.113281 5.78125 -0.96875 C 4.40625 -1.820312 3.3125 -3.015625 2.5 -4.546875 C 1.695312 -6.078125 1.296875 -7.8125 1.296875 -9.75 Z M 17.125 -9.6875 C 17.125 -11.019531 16.847656 -12.175781 16.296875 -13.15625 C 15.742188 -14.144531 15.023438 -14.894531 14.140625 -15.40625 C 13.253906 -15.914062 12.296875 -16.171875 11.265625 -16.171875 C 10.234375 -16.171875 9.269531 -15.921875 8.375 -15.421875 C 7.488281 -14.921875 6.769531 -14.179688 6.21875 -13.203125 C 5.675781 -12.234375 5.40625 -11.082031 5.40625 -9.75 C 5.40625 -8.414062 5.675781 -7.242188 6.21875 -6.234375 C 6.769531 -5.234375 7.492188 -4.46875 8.390625 -3.9375 C 9.296875 -3.414062 10.253906 -3.15625 11.265625 -3.15625 C 12.296875 -3.15625 13.253906 -3.410156 14.140625 -3.921875 C 15.023438 -4.441406 15.742188 -5.195312 16.296875 -6.1875 C 16.847656 -7.1875 17.125 -8.351562 17.125 -9.6875 Z M 17.125 -9.6875 "/></g></g></g><g fill="#ffffff" fill-opacity="1"><g transform="translate(176.858676, 34.624315)"><g><path d="M 4.671875 -21.90625 C 3.941406 -21.90625 3.332031 -22.148438 2.84375 -22.640625 C 2.351562 -23.128906 2.109375 -23.734375 2.109375 -24.453125 C 2.109375 -25.179688 2.351562 -25.789062 2.84375 -26.28125 C 3.332031 -26.769531 3.941406 -27.015625 4.671875 -27.015625 C 5.367188 -27.015625 5.960938 -26.769531 6.453125 -26.28125 C 6.941406 -25.789062 7.1875 -25.179688 7.1875 -24.453125 C 7.1875 -23.734375 6.941406 -23.128906 6.453125 -22.640625 C 5.960938 -22.148438 5.367188 -21.90625 4.671875 -21.90625 Z M 6.625 -19.34375 L 6.625 0 L 2.625 0 L 2.625 -19.34375 Z M 6.625 -19.34375 "/></g></g></g></g></g><g clip-path="url(#6416587842)"><g clip-path="url(#790137d45f)"><path stroke-linecap="butt" transform="matrix(0, 0.748005, -0.748005, 0, 83.942651, 61.954435)" fill="none" stroke-linejoin="miter" d="M 54.095252 0.0016638 C 64.377809 0.0016638 72.717698 8.116998 72.717698 18.133221 C 72.717698 28.149444 64.377809 36.264777 54.095252 36.264777 L 18.615472 36.264777 C 8.338138 36.264777 -0.00175136 28.149444 -0.00175136 18.133221 C -0.00175136 8.116998 8.338138 0.0016638 18.615472 0.0016638 Z M 54.095252 0.0016638 " stroke="#ffffff" stroke-width="14" stroke-opacity="1" stroke-miterlimit="4"/></g></g><path stroke-linecap="butt" transform="matrix(0.748005, 0, 0, 0.748005, 87.530149, 66.1149)" fill="none" stroke-linejoin="miter" d="M 0.00147236 3.501947 L 21.047029 3.501947 C 28.781141 3.501947 35.047808 9.768614 35.047808 17.497504 L 35.047808 44.104728 C 35.047808 51.838839 28.781141 58.105506 21.047029 58.105506 L 0.00147236 58.105506 " stroke="#ffffff" stroke-width="7" stroke-opacity="1" stroke-miterlimit="4"/></svg>